<?xml version="1.0" standalone="no"?>
<!DOCTYPE svg PUBLIC "-//W3C//DTD SVG 1.1//EN" "http://www.w3.org/Graphics/SVG/1.1/DTD/svg11.dtd" >
<svg xmlns="http://www.w3.org/2000/svg" xmlns:xlink="http://www.w3.org/1999/xlink" version="1.1">
<metadata>
Created by FontForge 20170731 at Wed Mar  1 03:26:50 2023
 By Aleksey,,,
Copyright (c) 2019 by Mathieu Desjardins. All rights reserved.
</metadata>
<defs>
<font id="PPEditorialNew-Regular" horiz-adv-x="1925" >
  <font-face 
    font-family="PP Editorial New"
    font-weight="400"
    font-stretch="normal"
    units-per-em="2048"
    panose-1="0 0 5 0 0 0 0 0 0 0"
    ascent="1638"
    descent="-410"
    x-height="1085"
    cap-height="1638"
    bbox="-748 -592 2882 2200"
    underline-thickness="71"
    underline-position="-251"
    unicode-range="U+0020-FB02"
  />
<missing-glyph horiz-adv-x="1064" 
d="M199 1679h673v-2130h-673v2130zM709 1466v70h-351v-70h138v-77h-140v-72h353v72h-140v77h140zM569 1112v150h-213v-222h353v72h-140zM426 1190h70v-78h-70v78zM709 913v70h-353v-70h140v-79h-140v-70h213v149h140zM709 643v213h-70v-141h-283v-72h353zM709 354v242h-213
v-121h73v49h70v-100h-213v172h-70v-242h353zM709 -14v241h-353v-241h353zM426 156h213v-99h-213v99zM709 -133v70h-353v-70h148l-148 -100v-70h353v70h-217l149 100h68z" />
    <glyph glyph-name="f_f" unicode="ff" horiz-adv-x="1236" 
d="M1147 1694q108 0 177 -48.5t69 -111.5q0 -41 -26.5 -69.5t-74.5 -28.5q-34 0 -55.5 18.5t-50.5 61.5q-32 49 -49.5 65t-44.5 16q-138 0 -138 -323v-189h228v-84h-228v-790q0 -69 15 -101.5t57.5 -46.5t132.5 -14v-49h-557v49q98 0 126 31t28 131v790h-375v-790
q0 -52 6.5 -81t27.5 -48.5t57 -26t99 -6.5v-49h-532v49q92 0 118.5 31t26.5 131v790h-125v68l125 10v82q0 234 100.5 355.5t266.5 121.5q99 0 169 -34.5t99 -90.5q55 93 143 137t185 44zM381 1208v-123h375v152q0 55 6 104q-6 -2 -21 -2q-80 0 -96 95q-4 28 -8 44t-14 36.5
t-29.5 30t-48.5 9.5q-88 0 -126 -85.5t-38 -260.5z" />
    <glyph glyph-name="f_f_i" unicode="ffi" horiz-adv-x="1728" 
d="M1554 1094v-883q0 -100 26.5 -131t117.5 -31v-49h-486v49q91 0 117.5 31t26.5 131v633q0 27 -0.5 40.5t-3.5 35.5t-10.5 33.5t-19.5 24t-32.5 18t-48.5 5.5h-289v-790q0 -69 15 -101.5t56.5 -46.5t129.5 -14v-49h-551v49q97 0 125.5 31t28.5 131v790h-375v-790
q0 -52 6.5 -81t27.5 -48.5t57 -26t99 -6.5v-49h-532v49q92 0 118.5 31t26.5 131v790h-125v68l125 10v82q0 234 100.5 355.5t266.5 121.5q103 0 174 -36t98 -95q58 97 155.5 143t207.5 46q128 0 218.5 -58t90.5 -145q0 -45 -28.5 -72.5t-75.5 -27.5q-9 0 -17 1.5t-14 2.5
t-13.5 6t-12 7t-11.5 9.5t-10 10.5t-11.5 14t-11 14.5t-12 17t-12.5 17.5q-32 48 -60 71t-73 23q-181 0 -181 -313v-189h332q140 0 244 37zM381 1208v-123h375v136q0 58 10 120q-8 -2 -25 -2q-80 0 -96 95q-4 28 -8 44t-14 36.5t-29.5 30t-48.5 9.5q-88 0 -126 -85.5
t-38 -260.5z" />
    <glyph glyph-name="f_i" unicode="fi" horiz-adv-x="1165" 
d="M991 1094v-883q0 -100 26 -131t118 -31v-49h-488v49q92 0 119 31t27 131v633q0 27 -0.5 40.5t-3.5 35.5t-10.5 33.5t-19.5 24t-32.5 18t-48.5 5.5h-289v-790q0 -69 15 -101.5t56.5 -46.5t129.5 -14v-49h-553v49q98 0 125.5 31t27.5 131v790h-135v68l135 10v142
q0 104 25.5 187t67.5 136t99.5 88t116.5 49.5t124 14.5q127 0 218 -58.5t91 -144.5q0 -45 -29 -72.5t-78 -27.5q-21 0 -36 5.5t-31.5 22.5t-25 28.5t-30.5 43.5q-32 48 -60 71t-73 23q-180 0 -180 -313v-189h332q140 0 244 37z" />
    <glyph glyph-name="f_l" unicode="fl" horiz-adv-x="1179" 
d="M1001 1624v-1413q0 -100 27 -131t119 -31v-49h-483v49q89 0 114 31t25 131v1188q-20 -4 -35 -4q-39 0 -63.5 23.5t-53.5 74.5q-29 48 -54 71t-62 23q-71 0 -108.5 -69t-37.5 -244v-189h205v-84h-205v-790q0 -100 32 -131t144 -31v-49h-528v49q98 0 125.5 31t27.5 131v790
h-135v68l135 10v176q0 114 32.5 201t87.5 136t117.5 72.5t131.5 23.5q96 0 178.5 -37t116.5 -95l119 91z" />
    <glyph glyph-name=".notdef" horiz-adv-x="1064" 
d="M199 1679h673v-2130h-673v2130zM709 1466v70h-351v-70h138v-77h-140v-72h353v72h-140v77h140zM569 1112v150h-213v-222h353v72h-140zM426 1190h70v-78h-70v78zM709 913v70h-353v-70h140v-79h-140v-70h213v149h140zM709 643v213h-70v-141h-283v-72h353zM709 354v242h-213
v-121h73v49h70v-100h-213v172h-70v-242h353zM709 -14v241h-353v-241h353zM426 156h213v-99h-213v99zM709 -133v70h-353v-70h148l-148 -100v-70h353v70h-217l149 100h68z" />
    <glyph glyph-name=".null" horiz-adv-x="0" 
 />
    <glyph glyph-name="nonmarkingreturn" horiz-adv-x="682" 
 />
    <glyph glyph-name="space" unicode=" " horiz-adv-x="425" 
 />
    <glyph glyph-name="exclam" unicode="!" horiz-adv-x="452" 
d="M119 1544q0 135 108 135q52 0 80.5 -34.5t28.5 -100.5q0 -80 -18 -222t-37.5 -375t-22.5 -527h-59q-3 294 -23 527t-38.5 375t-18.5 222zM227 -33q-51 0 -86 35t-35 86q0 50 35 85.5t86 35.5q49 0 84 -35.5t35 -85.5q0 -51 -34.5 -86t-84.5 -35z" />
    <glyph glyph-name="quotedbl" unicode="&#x22;" horiz-adv-x="698" 
d="M102 1565q0 56 23 85t65 29q89 0 89 -114q0 -54 -9 -118t-26 -159.5t-27 -171.5h-49q-10 82 -38 231.5t-28 217.5zM420 1565q0 56 23 85t65 29q88 0 88 -114q0 -54 -8.5 -117.5t-25.5 -160t-27 -171.5h-50q-10 80 -37.5 230t-27.5 219z" />
    <glyph glyph-name="numbersign" unicode="#" horiz-adv-x="1689" 
d="M1587 1231v-137h-309l-152 -523h318v-137h-357l-137 -475h-139l137 475h-426l-137 -475h-141l137 475h-279v137h318l151 523h-325v137h364l129 448h142l-129 -448h426l129 448h139l-129 -448h270zM561 571h426l152 523h-426z" />
    <glyph glyph-name="dollar" unicode="$" horiz-adv-x="1097" 
d="M1004 387q0 -178 -112 -293.5t-310 -128.5v-160h-70v158q-117 3 -220 42.5t-177 92.5v404h47q0 -112 28.5 -201t77.5 -143.5t111 -83t133 -29.5v672q-5 3 -14.5 10t-14.5 10q-139 94 -217 165.5t-119 153.5t-41 181q0 157 113 254t293 106v140h70v-142q187 -12 333 -129
v-323h-47q0 171 -77.5 269.5t-208.5 107.5v-596l6 -4q189 -137 253 -197q124 -115 152 -238q11 -47 11 -98zM276 1284q0 -81 48.5 -144t187.5 -165v543q-116 -12 -176 -75.5t-60 -158.5zM582 668v-619q123 17 184 87.5t61 176.5q0 98 -59 178t-186 177z" />
    <glyph glyph-name="percent" unicode="%" horiz-adv-x="1591" 
d="M387 840q-120 0 -202.5 121t-82.5 296q0 178 82.5 300t202.5 122q117 0 199 -122t82 -300q0 -174 -82 -295.5t-199 -121.5zM240 0l1017 1638h89l-1018 -1638h-88zM387 893q70 0 101.5 101t31.5 263q0 165 -31.5 266t-101.5 101q-137 0 -137 -367q0 -104 12 -182
t43.5 -130t81.5 -52zM1208 -33q-120 0 -202 121.5t-82 298.5q0 178 82 300t202 122q117 0 199 -122t82 -300q0 -177 -82 -298.5t-199 -121.5zM1208 23q70 0 101.5 100.5t31.5 263.5q0 165 -31.5 266t-101.5 101q-137 0 -137 -367q0 -364 137 -364z" />
    <glyph glyph-name="ampersand" unicode="&#x26;" horiz-adv-x="1636" 
d="M1499 381h49q-16 -90 -38 -157.5t-58 -124.5t-90.5 -87t-126.5 -30q-146 0 -285 139q-165 -152 -397 -152q-96 0 -181 26.5t-151.5 77.5t-105.5 132.5t-39 183.5q0 162 98.5 279.5t294.5 222.5q-96 228 -96 395q0 99 34 179.5t90.5 130.5t126.5 77t146 27q78 0 139 -25
t96.5 -66.5t54 -90t19.5 -99.5q3 -263 -381 -522q55 -112 140 -256q110 -191 186 -287q85 146 145 357q25 97 3 127t-134 30v47h457v-47q-110 0 -154.5 -30.5t-70.5 -124.5q-82 -264 -189 -428q125 -138 232 -138q67 0 111 56.5t75 177.5zM788 1614q-99 0 -158 -77t-59 -210
q0 -144 84 -336q293 220 293 434q0 87 -41.5 138t-118.5 51zM309 424q0 -90 26 -158.5t71 -109t100 -60.5t119 -20q145 0 264 110q-111 130 -252 375q-77 136 -121 230q-112 -83 -159.5 -167.5t-47.5 -199.5z" />
    <glyph glyph-name="quotesingle" unicode="'" horiz-adv-x="380" 
d="M102 1565q0 56 23 85t65 29q89 0 89 -114q0 -54 -9 -118t-26 -159.5t-27 -171.5h-49q-10 82 -38 231.5t-28 217.5z" />
    <glyph glyph-name="parenleft" unicode="(" horiz-adv-x="790" 
d="M729 -463v-49q-135 89 -246 203t-198 256.5t-135 318.5t-48 369q0 197 44.5 377t125 323.5t187 256.5t235.5 190v-49q-120 -112 -201.5 -288.5t-118 -379t-36.5 -430.5q0 -326 100 -621t291 -477z" />
    <glyph glyph-name="parenright" unicode=")" horiz-adv-x="790" 
d="M61 -512v49q191 183 291.5 478t100.5 620q0 350 -89 640.5t-268 457.5v49q129 -77 235.5 -190t187 -256.5t125 -323.5t44.5 -377q0 -193 -48 -369t-135 -318.5t-198 -256.5t-246 -203z" />
    <glyph glyph-name="asterisk" unicode="*" horiz-adv-x="905" 
d="M453 848q-38 0 -63 26.5t-25 69.5q0 38 16 78.5t34.5 95t22.5 121.5q-45 -30 -79.5 -63.5t-51.5 -57.5t-40.5 -49.5t-49.5 -40.5q-25 -14 -53 -14q-51 0 -76 43q-10 23 -10 45q0 51 51 80q31 18 76 24t102 17.5t115 42.5q-60 31 -116.5 43t-100.5 18.5t-76 24.5
q-51 29 -51 82q0 23 10 43q27 45 76 45q28 0 53 -17q26 -15 49.5 -41t40.5 -50.5t52 -58.5t81 -63q-3 68 -22 123t-36 96.5t-17 79.5q0 43 25 70t63 27t63 -27t25 -70q0 -38 -16 -79.5t-34.5 -97t-21.5 -122.5q45 28 79 62t50.5 58.5t40 51t49.5 41.5q25 17 53 17
q49 0 76 -45q12 -18 12 -43q0 -52 -53 -82q-35 -20 -127.5 -34t-165.5 -52q57 -29 114.5 -40.5t102 -18.5t76.5 -25q53 -30 53 -80q0 -24 -12 -45q-25 -43 -76 -43q-28 0 -53 14q-26 15 -49.5 40.5t-40.5 50t-51 58t-78 62.5q4 -67 22.5 -122t34 -95.5t15.5 -77.5
q0 -43 -25 -69.5t-63 -26.5z" />
    <glyph glyph-name="plus" unicode="+" horiz-adv-x="1044" 
d="M449 539h-347v151h347v344h151v-344h342v-151h-342v-344h-151v344z" />
    <glyph glyph-name="comma" unicode="," horiz-adv-x="473" 
d="M203 -23q-43 0 -72 31.5t-29 77.5q0 52 35 87.5t88 35.5q64 0 108 -47.5t44 -130.5q0 -71 -26 -138t-89.5 -130t-157.5 -101v55q81 35 138 101.5t57 134.5q0 41 -27 41q-10 0 -30 -8.5t-39 -8.5z" />
    <glyph glyph-name="hyphen" unicode="-" horiz-adv-x="911" 
d="M809 479h-707v148h707v-148z" />
    <glyph glyph-name="period" unicode="." horiz-adv-x="446" 
d="M223 -33q-51 0 -86 35t-35 86q0 50 35 85.5t86 35.5q49 0 85 -35.5t36 -85.5q0 -51 -35.5 -86t-85.5 -35z" />
    <glyph glyph-name="slash" unicode="/" horiz-adv-x="677" 
d="M0 0l537 1679h141l-537 -1679h-141z" />
    <glyph glyph-name="zero" unicode="0" horiz-adv-x="1179" 
d="M590 -31q-159 0 -273 116.5t-168.5 307.5t-54.5 432q0 238 54.5 426.5t168.5 304t273 115.5q158 0 271.5 -115.5t167.5 -304t54 -426.5q0 -179 -31.5 -333.5t-92 -271.5t-155.5 -184t-214 -67zM590 53q69 0 119.5 56.5t81 161.5t45 242.5t14.5 311.5q0 171 -14.5 307
t-44.5 239.5t-81 159.5t-120 56q-70 0 -120.5 -55.5t-81 -159.5t-44.5 -239.5t-14 -307.5q0 -174 14 -311.5t44.5 -242.5t81 -161.5t120.5 -56.5z" />
    <glyph glyph-name="one" unicode="1" horiz-adv-x="716" 
d="M479 1647v-1436q0 -69 13 -101.5t50 -46.5t117 -14v-49h-583v49q86 0 126.5 14t55 46.5t14.5 101.5v1137q0 32 -0.5 49t-3.5 36.5t-7.5 26.5t-15 13t-24 3t-35.5 -10t-48 -20t-64 -33l-27 49l256 133l148 80z" />
    <glyph glyph-name="two" unicode="2" horiz-adv-x="1067" 
d="M258 182h500q98 0 143 41.5t88 169.5l47 -16l-75 -223l-54 -154h-874v49q95 104 160 176t144 167t130.5 167t104.5 159t83.5 161.5t50 156.5t19.5 160q0 136 -61 216.5t-183 80.5q-145 0 -226 -120.5t-89 -330.5h-51q0 286 127.5 457.5t343.5 171.5q176 0 268 -104
t92 -269q0 -81 -22.5 -169t-59 -168t-93 -168.5t-113 -162t-130.5 -158t-134.5 -147t-135.5 -137.5v-6z" />
    <glyph glyph-name="three" unicode="3" horiz-adv-x="970" 
d="M33 129q0 37 25.5 60.5t64.5 23.5q20 0 35.5 -5.5t32 -21.5t22.5 -22.5t25 -30.5q32 -41 62 -58.5t85 -17.5q51 0 98 21.5t87 64.5t64.5 119t24.5 174q0 110 -31.5 191t-87 126t-120 66t-139.5 21v47q337 98 337 387q0 108 -56.5 179t-168.5 71q-214 0 -274 -240h-49
q26 185 133 286t274 101q155 0 256 -96.5t101 -261.5q0 -140 -89.5 -248t-252.5 -172v-6q174 -19 285.5 -126.5t111.5 -297.5q0 -149 -73 -263.5t-193 -173.5t-265 -59q-129 0 -227 44.5t-98 117.5z" />
    <glyph glyph-name="four" unicode="4" horiz-adv-x="1126" 
d="M649 436h-592v182l639 1051h162v-1051h186v-182h-186v-225q0 -100 31 -131t139 -31v-49h-555v49q112 0 144 31t32 131v225zM158 625v-7h491v840z" />
    <glyph glyph-name="five" unicode="5" horiz-adv-x="1007" 
d="M375 -33q-132 0 -232 47.5t-100 118.5q0 38 25.5 62t64.5 24q20 0 35.5 -5.5t32 -21.5t22.5 -22.5t25 -30.5q64 -82 147 -82q52 0 101.5 31t90.5 90.5t66 158.5t25 222q0 216 -69.5 319t-190.5 103q-123 0 -211 -102l-68 49l158 710h588l-43 -182h-482l-90 -436l9 -6
q107 88 235 88q173 0 286 -139t113 -363q0 -152 -44.5 -275t-120 -200t-171.5 -117.5t-202 -40.5z" />
    <glyph glyph-name="six" unicode="6" horiz-adv-x="1128" 
d="M659 1122q129 0 220.5 -74t133.5 -191t42 -263q0 -94 -18 -184t-56 -170.5t-92 -141t-131.5 -96t-169.5 -35.5q-153 0 -265.5 86.5t-170.5 242t-58 363.5q0 263 98.5 475.5t293 355t464.5 189.5v-49q-125 -33 -225 -98.5t-168 -154.5t-113 -186.5t-73 -211.5
q54 64 128 103.5t160 39.5zM588 51q231 0 231 492q0 103 -11.5 186t-37.5 152.5t-73 108t-113 38.5q-71 0 -132 -39t-102 -112q-20 -129 -20 -259q0 -266 67.5 -416.5t190.5 -150.5z" />
    <glyph glyph-name="seven" unicode="7" horiz-adv-x="1040" 
d="M1008 1638l-541 -1675l-162 41l486 1446v6h-484q-96 0 -138 -43t-71 -180l-47 10l49 234l33 161h875z" />
    <glyph glyph-name="eight" unicode="8" horiz-adv-x="1079" 
d="M645 909q47 -41 65.5 -57.5t57.5 -52.5t55 -54t45.5 -51t42 -55t30.5 -55t25 -61.5t13 -64t6 -73.5q0 -184 -127.5 -304t-327.5 -120q-193 0 -314.5 110t-121.5 275q0 61 18 119.5t44 104t72.5 98.5t85 89.5t100.5 90.5q-57 54 -91.5 89t-74 82.5t-60.5 88t-35 91.5
t-14 106q0 161 117.5 263.5t300.5 102.5q175 0 281 -93.5t106 -242.5q0 -51 -14.5 -97t-35.5 -81.5t-62.5 -79t-75 -73.5t-93.5 -80zM555 1583q-95 0 -155 -61.5t-60 -167.5q0 -92 54 -175.5t171 -195.5q106 103 152.5 191t46.5 180q0 105 -56.5 167t-152.5 62zM541 51
q109 0 173 75.5t64 203.5q0 60 -16 111.5t-57 107t-84.5 101.5t-124.5 122q-110 -110 -163.5 -212.5t-53.5 -213.5q0 -124 69.5 -209.5t192.5 -85.5z" />
    <glyph glyph-name="nine" unicode="9" horiz-adv-x="1144" 
d="M557 1671q153 0 265.5 -86.5t170.5 -242t58 -363.5q0 -263 -98.5 -475.5t-293 -355t-464.5 -189.5v49q125 33 225 98.5t168 154.5t113 186.5t73 211.5q-54 -62 -129 -101.5t-160 -39.5q-97 0 -174 42t-124.5 115t-72 167t-24.5 202q0 94 18 184t56 170.5t92 141t131.5 96
t169.5 35.5zM795 762q20 129 20 258q0 266 -67.5 416.5t-190.5 150.5q-231 0 -231 -491q0 -102 11.5 -185t37.5 -153t73 -109t113 -39q71 0 132 39.5t102 112.5z" />
    <glyph glyph-name="colon" unicode=":" horiz-adv-x="446" 
d="M223 874q-51 0 -86 34.5t-35 84.5q0 51 35 86t86 35q50 0 85.5 -35t35.5 -86q0 -49 -35.5 -84t-85.5 -35zM223 -33q-51 0 -86 35t-35 86q0 50 35 85.5t86 35.5q49 0 85 -35.5t36 -85.5q0 -51 -35.5 -86t-85.5 -35z" />
    <glyph glyph-name="semicolon" unicode=";" horiz-adv-x="473" 
d="M227 877q-51 0 -86 34.5t-35 85.5q0 50 35 84.5t86 34.5q49 0 84 -35t35 -84q0 -51 -34.5 -85.5t-84.5 -34.5zM199 -23q-41 0 -70 31.5t-29 77.5q0 53 34.5 88t86.5 35q65 0 109.5 -47.5t44.5 -130.5q0 -71 -26.5 -138t-90 -130t-156.5 -101v55q80 35 137.5 101.5
t57.5 134.5q0 41 -27 41q-10 0 -31 -8.5t-40 -8.5z" />
    <glyph glyph-name="less" unicode="&#x3c;" horiz-adv-x="958" 
d="M856 446v-159l-754 237v224l754 237v-160l-627 -186v-6z" />
    <glyph glyph-name="equal" unicode="=" horiz-adv-x="978" 
d="M877 725h-775v152h775v-152zM877 352h-775v152h775v-152z" />
    <glyph glyph-name="greater" unicode="&#x3e;" horiz-adv-x="958" 
d="M856 524l-754 -237v159l625 187v6l-625 186v160l754 -237v-224z" />
    <glyph glyph-name="question" unicode="?" horiz-adv-x="806" 
d="M367 459h-70q-73 99 -110 173.5t-37 141.5q0 82 45 151t157 169q132 117 186 185.5t54 145.5q0 69 -40 110.5t-124 41.5q-110 0 -182 -84.5t-82 -232.5h-60l-14 319q46 44 129 74t172 30q151 0 256 -92t105 -239q0 -100 -60.5 -188.5t-208.5 -215.5q-109 -95 -152.5 -160
t-43.5 -133q0 -45 24 -101t56 -95zM356 -33q-50 0 -85 35t-35 86q0 50 35.5 85.5t84.5 35.5q51 0 86 -35.5t35 -85.5q0 -51 -35 -86t-86 -35z" />
    <glyph glyph-name="at" unicode="@" horiz-adv-x="2086" 
d="M1956 240h69q-141 -333 -413.5 -526t-630.5 -193q-269 0 -468.5 105.5t-305 296t-105.5 442.5q0 188 54.5 365t154.5 321t233 252.5t299 168.5t343 60q172 0 313 -55.5t234 -151.5t143.5 -225t50.5 -277q0 -155 -59 -309.5t-150 -267.5t-204.5 -183.5t-219.5 -70.5
q-186 0 -186 174q0 80 35 184l55 166h-27q-220 -522 -448 -522q-89 0 -141 76.5t-52 205.5q0 124 50 270.5t129.5 270t189.5 206.5t219 83q97 0 149 -66t46 -163h4l53 163q52 0 94.5 22t67.5 56l35 -16l-260 -780q-37 -122 -37 -160q0 -82 86 -82q55 0 123 40t133.5 112.5
t120 163t88.5 203.5t34 222q0 132 -45 248t-128.5 204.5t-212.5 139.5t-287 51q-143 0 -275.5 -42t-240 -116.5t-197 -178.5t-150 -227t-93.5 -263t-33 -285q0 -355 213 -558.5t579 -203.5q329 0 580.5 172.5t390.5 477.5zM795 139q62 0 145 87.5t152 208t108 233.5
q41 118 41 188q0 75 -32.5 112.5t-88.5 37.5q-91 0 -187.5 -121t-157 -288.5t-60.5 -303.5q0 -154 80 -154z" />
    <glyph glyph-name="A" unicode="A" horiz-adv-x="1419" 
d="M762 1663l483 -1462q32 -93 76 -122.5t145 -29.5v-49h-622v49q100 0 139.5 13t43 47.5t-18.5 93.5l-99 315h-549l-100 -317q-22 -59 -19.5 -92.5t41 -46.5t136.5 -13v-49h-463v49q98 0 141.5 30t73.5 122l479 1462h113zM633 1368l-246 -770h496l-242 770h-8z" />
    <glyph glyph-name="B" unicode="B" horiz-adv-x="1306" 
d="M659 0h-620v49q72 0 114 7t65.5 27.5t30.5 48.5t7 79v1216q0 51 -7 79t-30.5 48.5t-65.5 27.5t-114 7v49h641q231 0 364.5 -102.5t133.5 -302.5q0 -165 -97 -265t-252 -120v-10q191 -12 307.5 -122t116.5 -276q0 -118 -46 -205t-129 -137t-187 -74t-232 -24zM483 1491
v-602q51 -8 154 -8q136 0 225.5 87.5t89.5 256.5q0 164 -89 246.5t-222 82.5q-73 0 -117 -10q-41 -8 -41 -53zM483 788v-641q0 -35 37 -49t113 -14q79 0 144 16.5t123 54t91 109.5t33 174q0 81 -25 145.5t-64.5 103.5t-92 64.5t-102.5 35.5t-101 10q-99 0 -156 -9z" />
    <glyph glyph-name="C" unicode="C" horiz-adv-x="1349" 
d="M72 805q0 246 82 442.5t234 310t347 113.5q203 0 336 -127q23 -22 39.5 -16t19.5 35l11 90h47l31 -580h-48q-89 508 -399 508q-140 0 -243 -99t-155 -267t-52 -384t53 -383t155.5 -263.5t241.5 -96.5q92 0 168.5 43.5t130.5 122t90.5 182.5t52.5 230h60
q-30 -331 -172.5 -515t-396.5 -184q-119 0 -221 42t-177.5 118.5t-128.5 181t-79.5 230.5t-26.5 266z" />
    <glyph glyph-name="D" unicode="D" horiz-adv-x="1507" 
d="M649 0h-610v49q72 0 114 7t65.5 27.5t30.5 48.5t7 79v1216q0 51 -7 79t-30.5 48.5t-65.5 27.5t-114 7v49h590q131 0 250 -30.5t223 -96.5t180 -161.5t120 -233.5t44 -305q0 -161 -41 -294.5t-113.5 -228.5t-173 -160.5t-218.5 -96.5t-251 -31zM625 84q143 0 255 54.5
t182 151.5t106 225.5t36 281.5q0 172 -45 315.5t-123 239.5t-183 149t-226 53q-69 0 -101 -12q-39 -9 -39 -53v-1317q0 -49 33.5 -68.5t104.5 -19.5z" />
    <glyph glyph-name="E" unicode="E" horiz-adv-x="1269" 
d="M1112 1638l6 -61l39 -352l-57 -6q-16 142 -41 211t-65 92.5t-117 23.5h-293q-47 0 -72 -25t-25 -71v-563h254q39 0 63 5t44 19t29.5 41.5t14.5 69t5 106.5h47v-555h-47q0 105 -15 156t-45.5 67.5t-95.5 16.5h-254v-604q0 -72 18.5 -94.5t78.5 -22.5h290q81 0 128.5 28.5
t86 107t80.5 237.5l58 -16l-101 -390l-16 -59h-1071v49q72 0 114 7t65.5 27.5t30.5 48.5t7 79v1216q0 51 -7 79t-30.5 48.5t-65.5 27.5t-114 7v49h1073z" />
    <glyph glyph-name="F" unicode="F" horiz-adv-x="1232" 
d="M1178 1638l6 -61l28 -354l-55 -4q-10 108 -23.5 171t-40.5 98.5t-61 46.5t-92 11h-356q-47 0 -72 -25t-25 -71v-602h279q67 0 99 16.5t47.5 68t15.5 157.5h49v-564h-49q0 106 -15.5 157t-47.5 67t-99 16h-279v-555q0 -67 16 -99t66 -47.5t154 -15.5v-49h-684v49
q72 0 114 7t65.5 27.5t30.5 48.5t7 79v1216q0 51 -7 79t-30.5 48.5t-65.5 27.5t-114 7v49h1139z" />
    <glyph glyph-name="G" unicode="G" horiz-adv-x="1478" 
d="M774 -33q-172 0 -307.5 65t-221 180t-129.5 266.5t-44 330.5q0 249 82 443t240.5 306.5t369.5 112.5q214 0 369 -131q23 -22 39.5 -16t19.5 35l10 94h49l27 -580h-47q-88 508 -432 508q-151 0 -260 -97t-163 -264t-54 -384q0 -221 53.5 -393t164.5 -274.5t265 -102.5
q107 0 187 48t124 117v404q0 67 -26.5 99t-107.5 47.5t-249 15.5v49h725v-49q-82 0 -104.5 -30.5t-22.5 -131.5v-393q-90 -128 -234 -201.5t-323 -73.5z" />
    <glyph glyph-name="H" unicode="H" horiz-adv-x="1607" 
d="M1571 1638v-49q-96 0 -142 -15.5t-61.5 -47.5t-15.5 -99v-1216q0 -67 15.5 -99t61.5 -47.5t142 -15.5v-49h-656v49q91 0 134.5 15.5t58 47.5t14.5 99v610h-635v-610q0 -67 14 -99t57.5 -47.5t133.5 -15.5v-49h-653v49q72 0 114 7t65.5 27.5t30.5 48.5t7 79v1216
q0 51 -7 79t-30.5 48.5t-65.5 27.5t-114 7v49h653v-49q-90 0 -133.5 -15.5t-57.5 -47.5t-14 -99v-518h635v518q0 67 -14.5 99t-58 47.5t-134.5 15.5v49h656z" />
    <glyph glyph-name="I" unicode="I" horiz-adv-x="743" 
d="M256 211v1216q0 51 -7 79t-30.5 48.5t-65.5 27.5t-114 7v49h668v-49q-97 0 -143.5 -15.5t-61.5 -47.5t-15 -99v-1216q0 -67 15 -99t61.5 -47.5t143.5 -15.5v-49h-668v49q72 0 114 7t65.5 27.5t30.5 48.5t7 79z" />
    <glyph glyph-name="J" unicode="J" horiz-adv-x="985" 
d="M526 367v1060q0 67 -15.5 99t-61.5 47.5t-142 15.5v49h668v-49q-96 0 -142 -15.5t-61.5 -47.5t-15.5 -99v-997q0 -241 -97.5 -352t-271.5 -111q-160 0 -250 84t-90 197q0 62 33.5 96.5t83.5 34.5q53 0 84 -28.5t31 -74.5q0 -14 -3.5 -43t-3.5 -49q0 -61 28 -98t83 -37
q79 0 111 76t32 242z" />
    <glyph glyph-name="K" unicode="K" horiz-adv-x="1538" 
d="M256 211v1216q0 51 -7 79t-30.5 48.5t-65.5 27.5t-114 7v49h668v-49q-97 0 -143.5 -15.5t-61.5 -47.5t-15 -99v-1216q0 -67 15 -99t61.5 -47.5t143.5 -15.5v-49h-668v49q72 0 114 7t65.5 27.5t30.5 48.5t7 79zM748 975l532 -793q55 -81 107 -106t137 -25v-51h-643v49
q140 0 162.5 28t-39.5 120l-459 671l418 535q71 88 71 127q0 33 -35 46t-131 13v49h584v-49q-109 0 -169.5 -20.5t-119.5 -91.5z" />
    <glyph glyph-name="L" unicode="L" horiz-adv-x="1239" 
d="M707 1638v-49q-97 0 -143.5 -15.5t-61.5 -47.5t-15 -99v-1200q0 -85 24.5 -110t102.5 -25h248q81 0 128 29.5t85 112t76 249.5l57 -14l-94 -412l-12 -57h-1063v49q72 0 114 7t65.5 27.5t30.5 48.5t7 79v1216q0 51 -7 79t-30.5 48.5t-65.5 27.5t-114 7v49h668z" />
    <glyph glyph-name="M" unicode="M" horiz-adv-x="1931" 
d="M549 1638l416 -1294h4l417 1294h508v-49q-97 0 -143.5 -15.5t-61 -47.5t-14.5 -99v-1216q0 -67 14.5 -99t61 -47.5t143.5 -15.5v-49h-667v49q72 0 114 7t65.5 27.5t30.5 48.5t7 79v1309h-6l-500 -1561h-92l-498 1540h-6v-1288q0 -67 15.5 -99t61.5 -47.5t142 -15.5v-49
h-522v49q72 0 114 7t65.5 27.5t30.5 48.5t7 79v1216q0 51 -7 79t-30.5 48.5t-65.5 27.5t-114 7v49h510z" />
    <glyph glyph-name="N" unicode="N" horiz-adv-x="1533" 
d="M1511 1638v-49q-96 0 -142 -15.5t-61.5 -47.5t-15.5 -99v-1447h-114l-836 1337v-1106q0 -67 15.5 -99t63.5 -47.5t148 -15.5v-49h-530v49q72 0 114 7t65.5 27.5t30.5 48.5t7 79v1243l-2 4q-50 80 -95.5 105.5t-117.5 25.5v49h375l790 -1280v1069q0 51 -7 79t-30.5 48.5
t-65.5 27.5t-114 7v49h522z" />
    <glyph glyph-name="O" unicode="O" horiz-adv-x="1417" 
d="M713 -33q-189 0 -336.5 113.5t-226 307t-78.5 431.5t78.5 431t224.5 306t332 113q189 0 336.5 -114t226 -307.5t78.5 -430.5q0 -239 -78 -432t-224 -305.5t-333 -112.5zM756 55q112 0 194.5 85t122 216.5t39.5 288.5q0 166 -29.5 329t-83.5 300t-141.5 222t-193.5 85
q-111 0 -194 -85t-123 -217t-40 -286q0 -133 18 -265t55 -253.5t89 -215t126.5 -149t160.5 -55.5z" />
    <glyph glyph-name="P" unicode="P" horiz-adv-x="1257" 
d="M39 0v49q72 0 114 7t65.5 27.5t30.5 48.5t7 79v1216q0 51 -7 79t-30.5 48.5t-65.5 27.5t-114 7v49h602q276 0 426 -115t150 -347q0 -119 -39.5 -212t-109.5 -152t-162.5 -90t-203.5 -32q-116 -3 -217 37v-516q0 -67 15.5 -99t64 -47.5t148.5 -15.5v-49h-674zM664 782
q156 0 239.5 108t83.5 286q0 185 -91.5 281.5t-244.5 96.5q-71 0 -129 -22q-37 -15 -37 -55v-660q91 -35 179 -35z" />
    <glyph glyph-name="Q" unicode="Q" horiz-adv-x="1417" 
d="M1405 -135l41 -35q-32 -109 -102 -172.5t-173 -63.5q-69 0 -152.5 23t-150 50t-155.5 50t-168 23q-131 0 -281 -55l-41 143q264 53 473 139q-184 5 -327.5 119.5t-220 306t-76.5 426.5q0 238 78.5 431t224.5 306t332 113q189 0 336.5 -114t226 -307.5t78.5 -430.5
q0 -201 -57.5 -372t-162.5 -287h2q-55 -66 -154 -129t-207 -107t-201 -73.5t-162 -43.5l4 -16q179 31 309 31q96 0 243 -26.5t209 -26.5q89 0 143.5 22.5t90.5 75.5zM307 993q0 -133 18 -265t55 -253.5t89 -215t126.5 -149t160.5 -55.5q112 0 194.5 85t122 216.5t39.5 288.5
q0 166 -29.5 329t-83.5 300t-141.5 222t-193.5 85q-111 0 -194 -85t-123 -217t-40 -286z" />
    <glyph glyph-name="R" unicode="R" horiz-adv-x="1376" 
d="M979 563l174 -340q22 -43 36 -66.5t34.5 -48t43 -35t55 -17.5t77.5 -7v-49h-101q-73 0 -118 2.5t-86 12.5t-64 23.5t-48 43t-43 62t-44 89.5l-268 543h-31q-41 0 -111 4v-569q0 -67 15.5 -99t62 -47.5t142.5 -15.5v-49h-666v49q72 0 114 7t65.5 27.5t30.5 48.5t7 79v1216
q0 51 -7 79t-30.5 48.5t-65.5 27.5t-114 7v49h631q269 0 399.5 -108.5t130.5 -308.5q0 -100 -33 -177.5t-93 -128.5t-135 -82t-169 -45q66 -20 112 -67t97 -158zM485 1479v-619q55 -6 117 -6q81 0 145.5 20.5t114 62.5t76.5 112.5t27 164.5q0 166 -81.5 253t-232.5 87
q-68 0 -129 -20q-37 -14 -37 -55z" />
    <glyph glyph-name="S" unicode="S" horiz-adv-x="1056" 
d="M549 -33q-90 0 -174 37t-148 100q-53 53 -65 -16l-19 -94h-51l4 612h54q7 -149 57.5 -274.5t139.5 -202t198 -76.5q83 0 142.5 40.5t84.5 98.5t25 125q0 55 -17.5 106.5t-43.5 91.5t-71 85.5t-83.5 77t-98.5 76.5q-48 37 -68 52t-61.5 49t-60 52t-51 50.5t-47.5 55.5
t-36 57t-30 64.5t-16 68t-7 77.5q0 179 115 285t293 106q162 0 272 -104q26 -23 46 -17.5t24 39.5l10 62h49l25 -539h-51q-8 96 -35 180.5t-71 151t-110 105t-145 38.5q-109 0 -171 -68.5t-62 -168.5q0 -47 15 -90.5t38 -78t66.5 -77t83 -74.5t106.5 -82q75 -56 122.5 -94.5
t102 -94t85 -106t51 -117t20.5 -139.5q0 -192 -122.5 -311t-313.5 -119z" />
    <glyph glyph-name="T" unicode="T" horiz-adv-x="1280" 
d="M455 1546h-133q-80 0 -121 -23t-65 -92.5t-34 -211.5l-59 4l27 354l6 61h1128l4 -61l27 -354l-57 -4q-7 87 -18 143t-26 94t-41 57t-57 26t-80 7h-133q-67 0 -67 -69v-1266q0 -51 7 -79t30.5 -48.5t65.5 -27.5t114 -7v-49h-668v49q97 0 143.5 15.5t61 47.5t14.5 99v1266
q0 69 -69 69z" />
    <glyph glyph-name="U" unicode="U" horiz-adv-x="1509" 
d="M770 -33q-116 0 -208 29t-154 80t-103 124.5t-59.5 159t-18.5 187.5v880q0 51 -7 79t-30.5 48.5t-65.5 27.5t-114 7v49h668v-49q-97 0 -143.5 -15.5t-61 -47.5t-14.5 -99v-880q0 -244 91 -355.5t275 -111.5q175 0 271 117.5t96 355.5v874q0 67 -15.5 99t-61.5 47.5
t-142 15.5v49h528v-49q-96 0 -142 -15.5t-61.5 -47.5t-15.5 -99v-874q0 -95 -14.5 -177t-50.5 -159t-93 -131t-147 -86.5t-207 -32.5z" />
    <glyph glyph-name="V" unicode="V" horiz-adv-x="1456" 
d="M436 1438l363 -1121h10l356 1121q23 58 20 92t-40.5 46.5t-132.5 12.5v49h448v-49q-91 0 -132 -29.5t-71 -121.5l-471 -1471h-102l-491 1471q-30 92 -70.5 121.5t-130.5 29.5v49h598v-49q-136 0 -162 -31t8 -120z" />
    <glyph glyph-name="W" unicode="W" horiz-adv-x="2013" 
d="M1989 1638v-49q-91 0 -129 -30t-64 -125l-395 -1467h-111l-264 1100l-291 -1100h-108l-408 1469q-27 94 -65.5 123.5t-130.5 29.5v49h575v-49q-122 0 -146 -32t5 -123l288 -1104h9l231 903l-47 201q-23 95 -56.5 125t-111.5 30v49h569v-49q-91 0 -129 -13.5t-44 -48.5
t10 -95l239 -1102h6l287 1104q29 91 1.5 123t-159.5 32v49h439z" />
    <glyph glyph-name="X" unicode="X" horiz-adv-x="1497" 
d="M856 897l404 -713q45 -82 94 -108.5t137 -26.5v-49h-631v49q39 0 67 1t48 5t32.5 7.5t17.5 13.5t6 17t-6 24t-13.5 29.5t-20.5 37.5l-313 557l-311 -544q-48 -82 -21 -115t148 -33v-49h-484v51q92 0 155.5 41t125.5 146l340 587l-355 629q-47 83 -95 109t-132 26v49h627
v-49q-40 0 -68 -1t-48.5 -5t-33 -7.5t-17 -13.5t-6 -17t5.5 -24t13.5 -29.5t20.5 -37.5l268 -475l285 475q48 83 27 109t-146 26v49h457v-49q-92 0 -142.5 -25.5t-99.5 -107.5z" />
    <glyph glyph-name="Y" unicode="Y" horiz-adv-x="1376" 
d="M821 727v-516q0 -67 14.5 -99t61 -47.5t143.5 -15.5v-49h-667v49q72 0 114 7t65.5 27.5t30.5 48.5t7 79v510l-365 729q-42 86 -88.5 112.5t-134.5 26.5v49h629v-49q-56 0 -91.5 -2t-57.5 -10t-31.5 -16t-7.5 -27t9 -36t23 -50l297 -608h6l279 606q16 34 22.5 51t9.5 36.5
t-5 27.5t-27 16t-49.5 10t-79.5 2v49h446v-49q-91 0 -137 -27.5t-86 -115.5z" />
    <glyph glyph-name="Z" unicode="Z" horiz-adv-x="1144" 
d="M139 1638h938l-747 -1546h446q60 0 96 13t66 54t48 114t34 196l57 -6l-51 -406l-8 -57h-963v49l736 1497h-402q-80 0 -120 -23.5t-61.5 -94.5t-27.5 -216l-57 2l14 363z" />
    <glyph glyph-name="bracketleft" unicode="[" horiz-adv-x="602" 
d="M541 1782v-84h-203v-2126h203v-84h-439v2294h439z" />
    <glyph glyph-name="backslash" unicode="\" horiz-adv-x="677" 
d="M0 1679h141l537 -1679h-141z" />
    <glyph glyph-name="bracketright" unicode="]" horiz-adv-x="602" 
d="M61 1782h439v-2294h-439v84h203v2126h-203v84z" />
    <glyph glyph-name="asciicircum" unicode="^" horiz-adv-x="1183" 
d="M270 797h-168l400 841h176l403 -841h-168l-321 690h-6z" />
    <glyph glyph-name="underscore" unicode="_" horiz-adv-x="1433" 
d="M1434 -184v-109h-1434v109h1434z" />
    <glyph glyph-name="grave" unicode="`" horiz-adv-x="512" 
d="M248 1651l155 -375h-63l-285 375h193z" />
    <glyph glyph-name="a" unicode="a" horiz-adv-x="958" 
d="M918 231h47q-10 -264 -191 -264q-186 0 -186 269v36q-35 -145 -114 -225t-189 -80q-105 0 -166.5 69t-61.5 173q0 50 16.5 96.5t40 82.5t66 72t78 60.5t93.5 55t95 47t99 44.5q29 13 43 19v119q0 127 -40 182t-118 55q-61 0 -99 -29t-38 -79q0 -24 14.5 -61t14.5 -60
q0 -42 -26.5 -68t-74.5 -26q-54 0 -83 34.5t-29 92.5q0 116 100.5 197t253.5 81q152 0 236.5 -85t84.5 -248v-605q0 -71 13.5 -98t40.5 -27q75 0 80 170zM365 123q66 0 125.5 63.5t97.5 190.5v241q-60 -31 -100 -54t-88.5 -58.5t-77 -69t-48.5 -78.5t-20 -94
q0 -66 29 -103.5t82 -37.5z" />
    <glyph glyph-name="b" unicode="b" horiz-adv-x="1034" 
d="M160 106v1283q0 96 -8 113q-11 26 -57 9q-19 -7 -50 -22l-22 43l157 78l152 78l28 -29v-729h9q127 192 299 192q139 0 221 -140t82 -390q0 -291 -113 -457t-323 -166q-94 0 -195 34.5t-180 102.5zM360 829v-659q29 -44 74.5 -75.5t100.5 -31.5q107 0 164 129.5t57 364.5
q0 211 -51 317.5t-142 106.5q-111 0 -203 -152z" />
    <glyph glyph-name="c" unicode="c" horiz-adv-x="841" 
d="M444 -33q-177 0 -277.5 153t-100.5 404q0 172 47.5 306t142 213t223.5 79q128 0 208.5 -75t80.5 -191q0 -65 -28.5 -101t-80.5 -36q-45 0 -70.5 27t-25.5 67q0 17 7.5 57t7.5 62q0 51 -27 77.5t-74 26.5q-53 0 -94 -35t-65.5 -96t-37 -137.5t-12.5 -165.5
q0 -136 27 -242.5t84.5 -171.5t138.5 -65q80 0 144.5 75.5t89.5 252.5h49q-8 -124 -39 -218.5t-79.5 -151.5t-108 -85.5t-130.5 -28.5z" />
    <glyph glyph-name="d" unicode="d" horiz-adv-x="1040" 
d="M997 129l19 -47l-303 -115l-43 35v168h-8q-42 -95 -112.5 -149t-166.5 -54q-146 0 -231.5 149t-85.5 394q0 271 102.5 441.5t269.5 170.5q76 0 137 -30t95 -84v383v45.5t-1.5 33.5t-4 26.5t-9 14.5t-14.5 8.5t-21.5 -3t-30 -8.5t-40.5 -19l-21 43l314 156l26 -29v-1415
q0 -41 0.5 -60t4.5 -40.5t11.5 -27.5t22.5 -9t36 3t54 19zM469 111q63 0 111 42t90 119v379q0 159 -49 262t-140 103q-102 0 -153.5 -126.5t-51.5 -330.5q0 -205 48 -326.5t145 -121.5z" />
    <glyph glyph-name="e" unicode="e" horiz-adv-x="884" 
d="M768 438h49q-31 -240 -128 -355.5t-247 -115.5q-173 0 -274.5 151.5t-101.5 405.5q0 164 45 298.5t134.5 217t207.5 82.5q116 0 197 -69.5t118 -185.5t37 -269h-541v-4q0 -216 66 -345.5t190 -129.5q80 0 147 74t101 245zM453 1036q-166 0 -187 -354h342q0 354 -155 354z
" />
    <glyph glyph-name="f" unicode="f" horiz-adv-x="671" 
d="M582 1694q108 0 177.5 -48.5t69.5 -111.5q0 -41 -27 -69.5t-75 -28.5q-34 0 -55.5 18.5t-50.5 61.5q-32 48 -49.5 64.5t-45.5 16.5q-66 0 -101.5 -74.5t-35.5 -248.5v-189h229v-84h-229v-790q0 -69 15 -101.5t58 -46.5t134 -14v-49h-559v49q98 0 125.5 31t27.5 131v790
h-135v68l135 10v158q0 99 23.5 179t62 131t90.5 85t105.5 48t110.5 14z" />
    <glyph glyph-name="g" unicode="g" horiz-adv-x="999" 
d="M463 164h237q162 0 236 -50.5t74 -166.5q0 -174 -169 -302t-421 -128q-113 0 -203.5 26t-148.5 83t-58 138q0 157 215 252q-121 48 -121 160q0 121 158 219q-75 51 -116.5 136t-41.5 190q0 175 104.5 287t278.5 112q117 0 203 -53q119 68 234 68q75 0 75 -62
q0 -31 -19 -50t-54 -19q-38 0 -100.5 18t-92.5 14q129 -110 129 -309q0 -176 -103 -285.5t-274 -109.5q-95 0 -170 35q-67 -54 -67 -107q0 -23 6 -38t26.5 -29.5t65.5 -21.5t117 -7zM461 1042q-79 0 -117.5 -71t-38.5 -178q0 -68 11.5 -132.5t34.5 -122t64 -92t95 -34.5
q76 0 115 65.5t39 173.5q0 95 -20.5 181t-68 148t-114.5 62zM469 -360q185 0 305.5 75.5t120.5 167.5q0 58 -44.5 78.5t-156.5 20.5h-254q-90 0 -147 14q-119 -93 -119 -182q0 -73 72.5 -123.5t222.5 -50.5z" />
    <glyph glyph-name="h" unicode="h" horiz-adv-x="1112" 
d="M381 821v-610q0 -100 23.5 -131t103.5 -31v-49h-463v49q88 0 113.5 31t25.5 131l-2 1178q0 93 -8 111q-11 26 -58 8q-20 -8 -53 -25l-20 43l160 84l151 78l27 -29v-752h6q76 106 152.5 160.5t173.5 54.5q109 0 166 -76t57 -221v-614q0 -100 24.5 -131t112.5 -31v-49h-459
v49q78 0 101.5 31t23.5 131v604q0 164 -121 164q-62 0 -118.5 -39.5t-118.5 -118.5z" />
    <glyph glyph-name="i" unicode="i" horiz-adv-x="573" 
d="M283 1323q-58 0 -95.5 35.5t-37.5 89.5q0 56 37.5 91.5t95.5 35.5q57 0 94 -36t37 -91q0 -54 -37 -89.5t-94 -35.5zM397 1096v-885q0 -100 27 -131t119 -31v-49h-488v49q92 0 119 31t27 131v631q0 41 -0.5 60t-4.5 41t-11 27.5t-21 9t-33.5 -2.5t-50.5 -19l-19 48
l301 120z" />
    <glyph glyph-name="j" unicode="j" horiz-adv-x="530" 
d="M281 1323q-58 0 -96 35.5t-38 89.5q0 55 37.5 91t96.5 36q57 0 94 -36t37 -91q0 -54 -37 -89.5t-94 -35.5zM113 -483q-113 0 -184.5 47.5t-71.5 118.5q0 44 26 70t74 26q45 0 69.5 -23.5t36.5 -77.5q10 -44 23 -64t37 -20q46 0 62 72t16 223v953q0 41 -0.5 60t-5 40.5
t-11.5 26.5t-22.5 7.5t-36.5 -4t-55 -20.5l-21 47l311 127l39 -30v-1178q0 -196 -76.5 -298.5t-209.5 -102.5z" />
    <glyph glyph-name="k" unicode="k" horiz-adv-x="1101" 
d="M385 1659v-1448q0 -101 22.5 -131.5t104.5 -30.5v-49h-471v49q92 0 118.5 31t26.5 131v1184v44.5t-2 33.5t-4.5 26.5t-9 15t-14.5 8t-22 -2.5t-30.5 -9.5t-40.5 -19.5l-20 45l311 152zM610 694l291 -510q47 -83 91 -109t114 -26v-49h-490v49q97 0 105.5 22t-41.5 102
q-4 7 -6 11l-246 434l231 287q58 73 39 102t-114 29v49h465v-49q-81 0 -134.5 -21t-113.5 -91z" />
    <glyph glyph-name="l" unicode="l" horiz-adv-x="563" 
d="M385 1659v-1448q0 -101 25.5 -131.5t117.5 -30.5v-49h-487v49q92 0 118.5 31t26.5 131v1184v44.5t-2 33.5t-4.5 26.5t-9 15t-14.5 8t-22 -2.5t-30.5 -9.5t-40.5 -19.5l-20 45l311 152z" />
    <glyph glyph-name="m" unicode="m" horiz-adv-x="1617" 
d="M1442 827v-616q0 -100 24.5 -131t112.5 -31v-49h-453v49q75 0 97 31t22 131v606q0 162 -115 162q-54 0 -104 -36.5t-106 -111.5v-4v-616q0 -100 21.5 -131t96.5 -31v-49h-436v49q77 0 99 31t22 131v606q0 162 -115 162q-104 0 -217 -156v-612q0 -100 22 -131t99 -31v-49
h-457v49q89 0 114.5 31t25.5 131v631v47t-2 35t-4.5 27.5t-8.5 16.5t-14.5 10t-22 -0.5t-29.5 -6t-40 -15.5l-21 45l299 125l39 -30v-189h6q68 103 139 159t166 56q90 0 144 -55t69 -160h7q66 102 136.5 158.5t166.5 56.5q106 0 161.5 -76.5t55.5 -218.5z" />
    <glyph glyph-name="n" unicode="n" horiz-adv-x="1124" 
d="M57 0v49q88 0 114 31t26 131v631v47t-2 35t-4.5 28t-9 17t-14.5 10t-22 -0.5t-30.5 -6.5t-40.5 -16l-21 48l164 65l139 57l39 -30v-189h6q77 106 152 160.5t172 54.5q109 0 167 -76.5t58 -220.5v-614q0 -100 24.5 -131t110.5 -31v-49h-458v49q80 0 102.5 30.5t22.5 131.5
v602q0 166 -121 166q-113 0 -236 -158v-610q0 -101 22.5 -131.5t102.5 -30.5v-49h-463z" />
    <glyph glyph-name="o" unicode="o" horiz-adv-x="1009" 
d="M506 -33q-198 0 -319 159t-121 413q0 166 51 297t152 208.5t237 77.5q197 0 318.5 -159t121.5 -412q0 -166 -51.5 -297.5t-152.5 -209t-236 -77.5zM537 57q52 0 92.5 32.5t63.5 87t34.5 119t11.5 134.5q0 108 -16.5 212.5t-47.5 193t-83 142.5t-117 54q-69 0 -117 -57
t-68 -138.5t-20 -177.5q0 -108 17 -212.5t48.5 -192.5t84 -142.5t117.5 -54.5z" />
    <glyph glyph-name="p" unicode="p" horiz-adv-x="1034" 
d="M659 1122q150 0 228 -146.5t78 -391.5q0 -170 -41 -307t-122.5 -219.5t-189.5 -82.5q-74 0 -139.5 38t-105.5 110h-5v-363q0 -101 26.5 -131t119.5 -30v-50h-488v50q92 0 118 30t26 131v1082v47t-2 35t-4.5 28t-9 17t-14.5 10.5t-22 0t-30.5 -6.5t-40.5 -15l-18 48
l307 120l32 -30v-181h9q126 207 288 207zM561 74q50 0 87.5 39t59 107.5t32 151.5t10.5 181q0 428 -175 428q-60 0 -115 -45.5t-98 -118.5v-373q0 -167 57.5 -268.5t141.5 -101.5z" />
    <glyph glyph-name="q" unicode="q" horiz-adv-x="1007" 
d="M729 1036l102 90l31 -28v-1338q0 -101 26.5 -131t119.5 -30v-50h-504v50q102 0 131 30t29 131v412h-9q-96 -203 -272 -203q-142 0 -229.5 142t-87.5 399q0 128 23 236t69.5 193.5t124.5 134t180 48.5q135 0 266 -86zM664 274v553q-11 94 -59.5 141.5t-110.5 47.5
q-61 0 -105 -38t-68.5 -105t-35.5 -147t-11 -177q0 -208 50.5 -323t142.5 -115q110 0 197 163z" />
    <glyph glyph-name="r" unicode="r" horiz-adv-x="808" 
d="M670 1122q54 0 82 -28t28 -80q0 -58 -29.5 -94.5t-70.5 -36.5q-26 0 -41.5 9.5t-38.5 33.5q-22 22 -32.5 28.5t-28.5 6.5q-36 0 -75 -50.5t-71 -142.5v-545q0 -73 16 -107.5t61 -49.5t140 -15v-51h-553v49q88 0 114 31t26 131v631v47t-2 35t-4.5 28t-9 17t-14.5 10
t-22 -0.5t-30.5 -6.5t-40.5 -16l-21 48l164 65l139 57l37 -30v-197h6q48 92 120 157.5t151 65.5z" />
    <glyph glyph-name="s" unicode="s" horiz-adv-x="765" 
d="M418 -33q-120 0 -223 74q-38 28 -56 -10l-16 -41h-45l-15 442h46q23 -179 101.5 -279t186.5 -100q71 0 109.5 45.5t38.5 124.5q0 35 -8 60t-39.5 60.5t-68 66.5t-118.5 98q-132 104 -182.5 175.5t-50.5 158.5q0 126 80.5 203t203.5 77q111 0 193 -69q21 -18 34.5 -14
t18.5 24l13 45h47l8 -358h-45q-20 125 -86.5 205.5t-165.5 80.5q-61 0 -98 -37.5t-37 -99.5q0 -42 22 -79t56.5 -68.5t117.5 -96.5q77 -60 121.5 -101t82.5 -88.5t53.5 -94.5t15.5 -105q0 -145 -84 -222t-211 -77z" />
    <glyph glyph-name="t" unicode="t" horiz-adv-x="706" 
d="M616 459h58q0 -250 -59.5 -371t-204.5 -121q-125 0 -184.5 87t-59.5 296v651h-143v76q112 3 180.5 82.5t83.5 224.5h73v-299h246v-84h-241v-598q0 -74 4.5 -125t16.5 -93.5t35 -63.5t58 -21q137 0 137 359z" />
    <glyph glyph-name="u" unicode="u" horiz-adv-x="1073" 
d="M752 -33l-41 35l-4 174l-7 2q-133 -211 -313 -211q-105 0 -164 79.5t-59 215.5v578q0 38 -1 58t-5.5 40t-12 26.5t-23 9.5t-36 -1.5t-53.5 -14.5l-15 46l316 102l28 -27v-796q0 -179 115 -179q111 0 230 158v578q0 39 -1 58.5t-5.5 39.5t-12 26t-23 9.5t-36.5 -1
t-54 -14.5l-14 46l318 102l26 -27v-835q0 -40 1 -60t5 -41t11.5 -27t23 -9t36.5 2.5t54 17.5l19 -47z" />
    <glyph glyph-name="v" unicode="v" horiz-adv-x="1011" 
d="M563 283l182 600q11 37 16 56t6.5 39.5t-4 29t-19.5 16.5t-36 10t-57 2v49h355v-49q-73 0 -108 -30t-64 -123l-279 -899h-111l-278 899q-28 93 -61.5 123t-100.5 30v49h475v-49q-99 0 -115 -29t15 -124l172 -600h12z" />
    <glyph glyph-name="w" unicode="w" horiz-adv-x="1478" 
d="M1473 1085v-49q-67 0 -99.5 -30t-58.5 -123l-260 -901h-123l-178 696l-189 -696h-129l-268 901q-28 93 -61.5 123t-100.5 30v49h430v-49q-25 0 -41 -2t-25 -10t-12.5 -16t-0.5 -29.5t8 -39.5t16 -56l174 -607h8l150 560l-13 45q-24 94 -52 124.5t-85 30.5v49h428v-49
q-80 0 -93.5 -30t11.5 -127l140 -603h8l172 607q11 37 15.5 56t6 39.5t-4 29t-19.5 16.5t-35 10t-55 2v49h336z" />
    <glyph glyph-name="x" unicode="x" horiz-adv-x="999" 
d="M586 578l196 -390q42 -85 84 -112t111 -27v-49h-469v49q92 0 100 23.5t-39 108.5q-3 5 -4 7l-131 258l-125 -256q-40 -84 -40 -105q-1 -27 42 -33q22 -3 64 -3v-49h-363v49q76 0 119.5 27t85.5 112l174 347l-182 362q-42 84 -82.5 111.5t-103.5 27.5v49h450v-49
q-86 0 -93.5 -23t38.5 -103q4 -9 6 -13l119 -233l121 233q43 85 46 103q3 25 -31 32q-21 4 -67 4v49h338v-49q-66 0 -108.5 -27t-85.5 -110z" />
    <glyph glyph-name="y" unicode="y" horiz-adv-x="987" 
d="M205 -479q-73 0 -121.5 39.5t-48.5 101.5q0 49 29 77t73 28q34 0 56.5 -16.5t44.5 -45.5q19 -27 34 -37t39 -10q75 0 133 221q11 65 -16 195l-254 809q-30 93 -64.5 123t-103.5 30v49h479v-49q-98 0 -113.5 -29t15.5 -124l172 -602h10l170 602q30 95 14 124t-112 29v49
h338v-49q-64 0 -96.5 -30.5t-59.5 -122.5l-258 -871q-28 -95 -51.5 -160t-56 -131.5t-67 -106.5t-82 -65.5t-103.5 -27.5z" />
    <glyph glyph-name="z" unicode="z" horiz-adv-x="829" 
d="M293 84h225q46 0 74.5 6.5t50.5 23t32.5 51t15.5 83t5 125.5h54v-373h-699l4 49l477 952h-219q-59 0 -91 -8t-53.5 -35.5t-28.5 -73.5t-7 -128h-53v329h690v-49z" />
    <glyph glyph-name="braceleft" unicode="{" horiz-adv-x="821" 
d="M750 1782v-49q-256 -46 -256 -275q0 -64 24.5 -137t49 -149.5t24.5 -151.5q0 -88 -31 -157.5t-82 -110t-105.5 -62.5t-111.5 -28v-7q45 -4 89 -18.5t88 -43.5t77.5 -68.5t54.5 -99.5t21 -132q0 -91 -49 -246t-49 -233q0 -109 58 -180.5t198 -96.5v-49q-231 33 -335 129.5
t-104 263.5q0 93 34 260.5t34 237.5q0 128 -75 191t-216 63v49q134 0 212.5 64.5t78.5 193.5q0 63 -34 212t-34 241q0 157 102 256t337 133z" />
    <glyph glyph-name="bar" unicode="|" horiz-adv-x="356" 
d="M102 -328v2007h152v-2007h-152z" />
    <glyph glyph-name="braceright" unicode="}" horiz-adv-x="821" 
d="M735 682v-49q-291 0 -291 -254q0 -70 34 -237.5t34 -260.5q0 -167 -104.5 -263.5t-335.5 -129.5v49q258 45 258 277q0 78 -49.5 233t-49.5 246q0 72 21 132t54.5 99.5t77.5 68.5t88 43.5t89 18.5v7q-57 6 -111.5 28t-105.5 62.5t-82 110t-31 157.5q0 60 15.5 121.5
t34 105.5t34 101.5t15.5 109.5q0 228 -258 275v49q236 -34 338 -133t102 -256q0 -92 -34 -241t-34 -212q0 -129 77.5 -193.5t213.5 -64.5z" />
    <glyph glyph-name="asciitilde" unicode="~" horiz-adv-x="1265" 
d="M1114 793h49q-6 -149 -76.5 -234.5t-189.5 -85.5q-68 0 -142.5 26.5t-131 57.5t-131 57.5t-142.5 26.5q-166 0 -198 -166h-50q6 148 76.5 234t188.5 86q56 0 115 -17.5t109.5 -42.5t100.5 -50t108 -42.5t113 -17.5q169 0 201 168z" />
    <glyph glyph-name="exclamdown" unicode="&#xa1;" horiz-adv-x="452" 
d="M227 1124q49 0 84 -35t35 -85q0 -51 -34.5 -86t-84.5 -35q-51 0 -86 35t-35 86q0 50 35 85t86 35zM119 -453q0 80 18.5 222.5t38.5 375t23 525.5h59q3 -293 22.5 -525.5t37.5 -375t18 -222.5q0 -67 -28.5 -102t-80.5 -35q-108 0 -108 137z" />
    <glyph glyph-name="cent" unicode="&#xa2;" horiz-adv-x="940" 
d="M778 451h49q-16 -244 -113 -364t-243 -120q-43 0 -74 8l-102 -426h-72l109 449q-115 54 -177.5 192.5t-62.5 333.5q0 171 47.5 305.5t142.5 213.5t224 79q50 0 94 -12l127 528h70l-133 -555q62 -34 96.5 -93.5t34.5 -133.5q0 -65 -28.5 -101t-80.5 -36q-76 0 -94 69
l-152 -632q51 -33 107 -33q36 0 69 15.5t65.5 51t58 102t38.5 159.5zM295 602q0 -256 88 -387l192 797q-24 24 -71 24q-53 0 -94 -35t-65.5 -96t-37 -137.5t-12.5 -165.5z" />
    <glyph glyph-name="sterling" unicode="&#xa3;" horiz-adv-x="1312" 
d="M1192 481h51q-39 -173 -69 -252q-102 -268 -300 -268q-90 0 -169.5 40t-174.5 112q-110 -152 -251 -152q-76 0 -126.5 46.5t-50.5 127.5q0 86 60 135t157 49q62 0 132 -26q16 93 16 229q0 116 -18 246h-256v68h243q-8 38 -22 101.5t-22 101t-14.5 89.5t-6.5 99
q0 215 104.5 333.5t282.5 118.5q160 0 247 -76.5t87 -172.5q0 -53 -29 -84t-84 -31q-53 0 -83 30.5t-30 92.5q0 27 -1 44.5t-7 41t-17 37.5t-32.5 24t-52.5 10q-183 0 -183 -303q0 -89 37 -246.5t45 -209.5h281v-68h-272q6 -58 6 -123q0 -238 -76 -416q145 -69 256 -69
q70 0 126 25t96.5 72t68.5 100.5t51 123.5zM281 47q97 0 145 139q-78 50 -133 50q-44 0 -71 -27.5t-27 -71.5q0 -39 23 -64.5t63 -25.5z" />
    <glyph glyph-name="currency" unicode="&#xa4;" horiz-adv-x="1339" 
d="M1135 745q0 -149 -93 -276l195 -193l-98 -98l-193 195q-126 -92 -276 -92q-154 0 -277 92l-192 -195l-99 98l193 193q-90 123 -90 276q0 154 90 277l-193 192l99 99l192 -193q120 90 277 90q150 0 276 -92l193 195l98 -99l-195 -192q93 -124 93 -277zM344 745
q0 -135 94 -230t232 -95t231.5 95t93.5 230q0 136 -93.5 231t-231.5 95t-232 -95t-94 -231z" />
    <glyph glyph-name="yen" unicode="&#xa5;" horiz-adv-x="1556" 
d="M1462 1638v-49q-90 0 -135.5 -27.5t-85.5 -115.5l-283 -617h431v-69h-463l-15 -33v-145h478v-70h-478v-301q0 -51 7 -79t30.5 -48.5t65.5 -27.5t114 -7v-49h-667v49q97 0 143.5 15.5t61 47.5t14.5 99v301h-512v70h512v139l-18 39h-494v69h459l-312 621
q-42 86 -88.5 112.5t-134.5 26.5v49h629v-49q-56 0 -91.5 -2t-57.5 -10t-31.5 -16t-7.5 -27t9 -36t23 -50l297 -608h4l281 606q16 35 22 51t9 36.5t-5 28t-26.5 15.5t-50 10t-80.5 2v49h446z" />
    <glyph glyph-name="brokenbar" unicode="&#xa6;" horiz-adv-x="356" 
d="M102 860v819h152v-819h-152zM102 -328v820h152v-820h-152z" />
    <glyph glyph-name="section" unicode="&#xa7;" horiz-adv-x="921" 
d="M819 664q0 -104 -55.5 -184t-147.5 -152q115 -133 115 -275q0 -149 -90.5 -231t-214.5 -82q-129 0 -211 67.5t-82 147.5q0 44 24 73t66 29q44 0 69 -26.5t25 -79.5q0 -65 29 -103t105 -38q83 0 129.5 53.5t46.5 140.5q0 80 -52.5 150.5t-195.5 191.5q-64 54 -102 88.5
t-76 76t-57 76.5t-30.5 77t-11.5 90q0 56 16.5 106.5t48 93t63 73.5t73.5 65q-113 131 -113 274q0 100 45.5 172.5t113.5 105.5t147 33q128 0 209 -67.5t81 -147.5q0 -43 -24.5 -71.5t-65.5 -28.5q-43 0 -68.5 26t-25.5 78q0 66 -27.5 105t-103.5 39q-83 0 -129.5 -54.5
t-46.5 -140.5q0 -82 53 -152.5t195 -189.5q80 -67 124 -109t83 -92t54 -98.5t15 -109.5zM492 453q55 -48 90 -86q125 112 125 231q0 39 -11 73.5t-27.5 63t-55.5 68t-74.5 71t-104.5 89.5q-69 61 -96 90q-125 -113 -125 -234q0 -33 5.5 -60.5t23.5 -57.5t33.5 -51t56 -58.5
t68.5 -61.5t92 -77z" />
    <glyph glyph-name="dieresis" unicode="&#xa8;" horiz-adv-x="849" 
d="M231 1305q-51 0 -85.5 35t-34.5 85t34.5 85.5t85.5 35.5q49 0 84 -35.5t35 -85.5t-35 -85t-84 -35zM621 1305q-51 0 -86 35t-35 85t35 85.5t86 35.5q49 0 83.5 -35.5t34.5 -85.5t-34.5 -85t-83.5 -35z" />
    <glyph glyph-name="copyright" unicode="&#xa9;" horiz-adv-x="1884" 
d="M944 1688q177 0 334 -68t269 -184t177.5 -277t65.5 -342q0 -176 -65.5 -336t-177.5 -276.5t-269.5 -185t-333.5 -68.5q-238 0 -433.5 116.5t-306 315t-110.5 434.5q0 181 65 342t177.5 277t270.5 184t337 68zM944 1618q-166 0 -311.5 -63.5t-248 -171t-161.5 -255
t-59 -311.5t59 -311.5t161.5 -254t248 -169t311.5 -62.5q215 0 393.5 106t280.5 289t102 402q0 163 -60 311t-163 255.5t-247.5 171t-305.5 63.5zM422 815q0 231 146.5 382t365.5 151q75 0 140 -18t100 -39.5t64 -39.5t40 -18q12 0 16 14.5t4 59.5h48l30 -379h-47
q-21 163 -122 249.5t-251 86.5q-160 0 -264 -123.5t-104 -325.5q0 -203 107.5 -324.5t281.5 -121.5q152 0 262.5 92.5t157.5 263.5h49q-53 -208 -180 -325t-330 -117q-226 0 -370 149.5t-144 382.5z" />
    <glyph glyph-name="guillemotleft" unicode="&#xab;" horiz-adv-x="929" 
d="M492 1094l-216 -494l216 -500h-50l-348 500l348 494h50zM836 1094l-215 -494l215 -500h-50l-348 500l348 494h50z" />
    <glyph glyph-name="logicalnot" unicode="&#xac;" horiz-adv-x="1220" 
d="M102 762v151h1016v-600h-151v449h-865z" />
    <glyph glyph-name="registered" unicode="&#xae;" horiz-adv-x="1886" 
d="M942 1688q237 0 432 -114.5t306.5 -313t111.5 -437.5q0 -178 -65.5 -339.5t-178.5 -278t-271 -185.5t-335 -69q-142 0 -273 44t-234.5 124.5t-180.5 187.5t-118.5 240t-41.5 276q0 239 110.5 437t305.5 313t432 115zM942 20q163 0 308 63t248.5 170t163.5 254.5t60 311.5
q0 218 -102 401.5t-281.5 290.5t-396.5 107q-165 0 -310.5 -63t-247.5 -170.5t-161 -254.5t-59 -311t59.5 -311.5t162 -254.5t247.5 -170t309 -63zM1130 641l89 -154q51 -92 92 -120.5t114 -30.5v-47h-145q-71 0 -111.5 28t-76.5 93l-187 350q-14 -2 -49 -2h-90v-258
q0 -97 23 -129.5t100 -32.5v-49h-373v49q68 0 88.5 32.5t20.5 129.5v643q0 97 -20.5 129.5t-88.5 32.5v49h363q46 0 88 -4.5t90 -15t87.5 -32t72 -52t51 -78t18.5 -107.5q0 -115 -70.5 -191t-205.5 -102q33 -12 61 -42.5t59 -88.5zM766 823h72q134 0 212 62.5t78 175.5
q0 116 -68 171.5t-179 55.5q-69 0 -115 -16v-449z" />
    <glyph glyph-name="macron" unicode="&#xaf;" horiz-adv-x="808" 
d="M119 1372v103h571v-103h-571z" />
    <glyph glyph-name="degree" unicode="&#xb0;" horiz-adv-x="780" 
d="M389 1051q-144 0 -236 91t-92 232q0 140 92 231t236 91t237 -91t93 -231q0 -141 -92.5 -232t-237.5 -91zM389 1163q88 0 145.5 59.5t57.5 151.5q0 91 -57.5 150t-145.5 59t-144.5 -59t-56.5 -150q0 -92 56.5 -151.5t144.5 -59.5z" />
    <glyph glyph-name="plusminus" unicode="&#xb1;" horiz-adv-x="1046" 
d="M449 690h-347v152h347v344h151v-344h342v-152h-342v-344h-151v344zM944 160h-840v159h840v-159z" />
    <glyph glyph-name="acute" unicode="&#xb4;" horiz-adv-x="512" 
d="M172 1276h-63l155 375h193z" />
    <glyph glyph-name="paragraph" unicode="&#xb6;" horiz-adv-x="1323" 
d="M1221 1638v-49q-96 0 -142.5 -15.5t-62 -47.5t-15.5 -99v-1878h-96v2005h-237v-2005h-99v1307q-213 0 -340 100t-127 291t127 291t340 100h652z" />
    <glyph glyph-name="periodcentered" unicode="&#xb7;" horiz-adv-x="446" 
d="M223 696q-51 0 -86 35.5t-35 85.5q0 51 35 86t86 35q50 0 85.5 -35t35.5 -86q0 -49 -36 -85t-85 -36z" />
    <glyph glyph-name="cedilla" unicode="&#xb8;" horiz-adv-x="681" 
d="M215 -158l104 178h80l-61 -124q49 -4 89 -15.5t73.5 -32.5t52 -56t18.5 -81q0 -89 -73 -146t-180 -73.5t-224 0.5l12 47q150 -11 232 29.5t82 134.5q0 74 -53.5 105.5t-151.5 33.5z" />
    <glyph glyph-name="guillemotright" unicode="&#xbb;" horiz-adv-x="929" 
d="M94 100l215 500l-215 494h49l349 -494l-349 -500h-49zM438 100l215 500l-215 494h49l349 -494l-349 -500h-49z" />
    <glyph glyph-name="onequarter" unicode="&#xbc;" horiz-adv-x="1587" 
d="M432 1653v-854q0 -61 22 -80t99 -19v-28h-403v28q83 0 107 19t24 80v671q0 30 -2.5 44t-9 25t-23 9t-41 -10t-66.5 -27l-12 29l287 131zM233 0l1018 1638h88l-1017 -1638h-89zM1176 262h-381v113l411 622h107v-622h119v-113h-119v-135q0 -61 20 -79.5t92 -18.5v-29h-366
v29q74 0 95.5 18.5t21.5 79.5v135zM858 379v-4h318v489z" />
    <glyph glyph-name="onehalf" unicode="&#xbd;" horiz-adv-x="1783" 
d="M432 1653v-854q0 -61 22 -80t99 -19v-28h-403v28q83 0 107 19t24 80v671q0 30 -2.5 44t-9 25t-23 9t-41 -10t-66.5 -27l-12 29l287 131zM254 0l1018 1638h88l-1018 -1638h-88zM1192 119h301q59 0 86 24.5t55 102.5l27 -10l-47 -134l-37 -102h-541v29q87 91 138.5 148
t112.5 133.5t93.5 133.5t55 123.5t22.5 128.5q0 87 -40.5 136t-121.5 49q-91 0 -143.5 -69.5t-58.5 -186.5h-35q0 168 84 271t227 103q115 0 176.5 -63t61.5 -168q0 -76 -33 -158t-95.5 -166t-129.5 -157t-158 -160v-8z" />
    <glyph glyph-name="threequarters" unicode="&#xbe;" horiz-adv-x="1751" 
d="M168 754q0 25 16 40t41 15q18 0 33 -8.5t20.5 -14.5t22.5 -28q18 -25 40 -36t58 -11q34 0 64.5 11.5t57.5 35t43 67.5t16 103q0 65 -21 113t-57.5 74.5t-79 39t-92.5 12.5v31q223 57 223 227q0 65 -37.5 108.5t-109.5 43.5q-145 0 -181 -145h-35q17 114 89 176.5
t182 62.5q100 0 167.5 -60t67.5 -161q0 -84 -59 -149t-166 -101v-4q116 -11 189 -75t73 -177q0 -136 -101 -213.5t-249 -77.5q-86 0 -150.5 28t-64.5 73zM410 0l1017 1638h89l-1018 -1638h-88zM1341 262h-383v113l412 622h107v-622h118v-113h-118v-135q0 -61 20 -79.5
t94 -18.5v-29h-368v29q75 0 96.5 18.5t21.5 79.5v135zM1024 379v-4h317v489z" />
    <glyph glyph-name="questiondown" unicode="&#xbf;" horiz-adv-x="806" 
d="M451 1124q49 0 83.5 -35t34.5 -85q0 -51 -34 -86t-84 -35q-51 0 -86 35t-35 86q0 50 35 85t86 35zM440 631h70q147 -194 147 -316q0 -81 -44.5 -149t-157.5 -170q-129 -113 -184.5 -183.5t-55.5 -146.5q0 -69 39.5 -111t122.5 -42q111 0 183.5 85t82.5 232h59l13 -317
q-44 -44 -127.5 -74.5t-171.5 -30.5q-151 0 -257 91.5t-106 238.5q0 99 61 188t208 217q109 93 153.5 158.5t44.5 132.5q0 45 -24 101t-56 96z" />
    <glyph glyph-name="Agrave" unicode="&#xc0;" horiz-adv-x="1419" 
d="M637 2154l156 -374h-64l-285 374h193zM762 1663l483 -1462q32 -93 76 -122.5t145 -29.5v-49h-622v49q100 0 139.5 13t43 47.5t-18.5 93.5l-99 315h-549l-100 -317q-22 -59 -19.5 -92.5t41 -46.5t136.5 -13v-49h-463v49q98 0 141.5 30t73.5 122l479 1462h113zM633 1368
l-246 -770h496l-242 770h-8z" />
    <glyph glyph-name="Aacute" unicode="&#xc1;" horiz-adv-x="1419" 
d="M795 2154h192l-285 -374h-63zM762 1663l483 -1462q32 -93 76 -122.5t145 -29.5v-49h-622v49q100 0 139.5 13t43 47.5t-18.5 93.5l-99 315h-549l-100 -317q-22 -59 -19.5 -92.5t41 -46.5t136.5 -13v-49h-463v49q98 0 141.5 30t73.5 122l479 1462h113zM633 1368l-246 -770
h496l-242 770h-8z" />
    <glyph glyph-name="Acircumflex" unicode="&#xc2;" horiz-adv-x="1419" 
d="M940 1780l-229 268l-230 -268h-65l194 374h199l195 -374h-64zM762 1663l483 -1462q32 -93 76 -122.5t145 -29.5v-49h-622v49q100 0 139.5 13t43 47.5t-18.5 93.5l-99 315h-549l-100 -317q-22 -59 -19.5 -92.5t41 -46.5t136.5 -13v-49h-463v49q98 0 141.5 30t73.5 122
l479 1462h113zM633 1368l-246 -770h496l-242 770h-8z" />
    <glyph glyph-name="Atilde" unicode="&#xc3;" horiz-adv-x="1419" 
d="M547 1935q-53 0 -77 -36.5t-34 -108.5h-49q25 281 174 281q37 0 72 -14.5t63 -35.5t55.5 -42t59 -35.5t63.5 -14.5q53 0 77 37t32 109h49q-25 -281 -174 -281q-45 0 -89 22t-74 48.5t-70.5 48.5t-77.5 22zM762 1663l483 -1462q32 -93 76 -122.5t145 -29.5v-49h-622v49
q100 0 139.5 13t43 47.5t-18.5 93.5l-99 315h-549l-100 -317q-22 -59 -19.5 -92.5t41 -46.5t136.5 -13v-49h-463v49q98 0 141.5 30t73.5 122l479 1462h113zM633 1368l-246 -770h496l-242 770h-8z" />
    <glyph glyph-name="Adieresis" unicode="&#xc4;" horiz-adv-x="1419" 
d="M516 1808q-51 0 -86 35.5t-35 85.5t35 85.5t86 35.5q49 0 84 -35.5t35 -85.5t-35 -85.5t-84 -35.5zM905 1808q-51 0 -86 35.5t-35 85.5t35 85.5t86 35.5q49 0 84 -35.5t35 -85.5t-35 -85.5t-84 -35.5zM762 1663l483 -1462q32 -93 76 -122.5t145 -29.5v-49h-622v49
q100 0 139.5 13t43 47.5t-18.5 93.5l-99 315h-549l-100 -317q-22 -59 -19.5 -92.5t41 -46.5t136.5 -13v-49h-463v49q98 0 141.5 30t73.5 122l479 1462h113zM633 1368l-246 -770h496l-242 770h-8z" />
    <glyph glyph-name="Aring" unicode="&#xc5;" horiz-adv-x="1419" 
d="M711 1794q-91 0 -151 58.5t-60 146.5q0 86 60 143.5t151 57.5q89 0 148 -57.5t59 -143.5q0 -88 -59 -146.5t-148 -58.5zM711 2128q-57 0 -95 -37t-38 -92q0 -57 38 -94t95 -37q56 0 93.5 37t37.5 94q0 55 -37.5 92t-93.5 37zM762 1663l483 -1462q32 -93 76 -122.5
t145 -29.5v-49h-622v49q100 0 139.5 13t43 47.5t-18.5 93.5l-99 315h-549l-100 -317q-22 -59 -19.5 -92.5t41 -46.5t136.5 -13v-49h-463v49q98 0 141.5 30t73.5 122l479 1462h113zM633 1368l-246 -770h496l-242 770h-8z" />
    <glyph glyph-name="AE" unicode="&#xc6;" horiz-adv-x="1849" 
d="M1747 465l59 -16l-100 -390l-16 -59h-1053v49q97 0 143.5 15.5t61 47.5t14.5 99v321h-440l-144 -337q-14 -33 -20.5 -51t-8 -37.5t6.5 -28t27.5 -16.5t51 -10.5t79.5 -2.5v-49h-453v49q97 0 143.5 28t83.5 118l529 1249q10 25 15.5 39.5t9.5 31.5t2.5 25.5t-7.5 18.5
t-18 14.5t-31.5 8.5t-46 5.5t-62.5 1.5v49h1113l6 -63l34 -330l-55 -6q-15 132 -40 197t-65.5 87.5t-117.5 22.5h-279q-82 0 -82 -82v-577h228q64 0 94.5 16.5t45.5 67.5t15 157h48v-555h-48q0 105 -15 156t-45.5 67.5t-94.5 16.5h-228v-604q0 -72 18.5 -94.5t78.5 -22.5
h270q81 0 128.5 28.5t85.5 107t79 237.5zM850 1561l-401 -949h407v949h-6z" />
    <glyph glyph-name="Ccedilla" unicode="&#xc7;" horiz-adv-x="1349" 
d="M1214 666h60q-20 -216 -85.5 -369t-185.5 -240t-288 -90l-35 -73q103 -8 167 -51.5t64 -131.5q0 -89 -72.5 -146t-178.5 -74t-224 -1l13 49q148 -12 230.5 28.5t82.5 133.5q0 138 -205 141l74 129q-175 21 -303 137.5t-192 296t-64 400.5q0 246 82 442.5t234 310
t347 113.5q203 0 336 -127q23 -22 39.5 -16t19.5 35l11 90h47l31 -580h-48q-89 508 -399 508q-140 0 -243 -99t-155 -267t-52 -384t53 -383t155.5 -263.5t241.5 -96.5q92 0 168.5 43.5t130.5 122t90.5 182.5t52.5 230z" />
    <glyph glyph-name="Egrave" unicode="&#xc8;" horiz-adv-x="1269" 
d="M571 2154l156 -374h-63l-285 374h192zM1112 1638l6 -61l39 -352l-57 -6q-16 142 -41 211t-65 92.5t-117 23.5h-293q-47 0 -72 -25t-25 -71v-563h254q39 0 63 5t44 19t29.5 41.5t14.5 69t5 106.5h47v-555h-47q0 105 -15 156t-45.5 67.5t-95.5 16.5h-254v-604
q0 -72 18.5 -94.5t78.5 -22.5h290q81 0 128.5 28.5t86 107t80.5 237.5l58 -16l-101 -390l-16 -59h-1071v49q72 0 114 7t65.5 27.5t30.5 48.5t7 79v1216q0 51 -7 79t-30.5 48.5t-65.5 27.5t-114 7v49h1073z" />
    <glyph glyph-name="Eacute" unicode="&#xc9;" horiz-adv-x="1269" 
d="M637 1780h-64l156 374h193zM1112 1638l6 -61l39 -352l-57 -6q-16 142 -41 211t-65 92.5t-117 23.5h-293q-47 0 -72 -25t-25 -71v-563h254q39 0 63 5t44 19t29.5 41.5t14.5 69t5 106.5h47v-555h-47q0 105 -15 156t-45.5 67.5t-95.5 16.5h-254v-604q0 -72 18.5 -94.5
t78.5 -22.5h290q81 0 128.5 28.5t86 107t80.5 237.5l58 -16l-101 -390l-16 -59h-1071v49q72 0 114 7t65.5 27.5t30.5 48.5t7 79v1216q0 51 -7 79t-30.5 48.5t-65.5 27.5t-114 7v49h1073z" />
    <glyph glyph-name="Ecircumflex" unicode="&#xca;" horiz-adv-x="1269" 
d="M877 1780l-230 268l-229 -268h-66l195 374h198l195 -374h-63zM1169 465l58 -16l-101 -390l-16 -59h-1071v49q72 0 114 7t65.5 27.5t30.5 48.5t7 79v1216q0 51 -7 79t-30.5 48.5t-65.5 27.5t-114 7v49h1073l6 -61l39 -352l-57 -6q-16 142 -41 211t-65 92.5t-117 23.5h-293
q-47 0 -72 -25t-25 -71v-563h254q39 0 63 5t44 19t29.5 41.5t14.5 69t5 106.5h47v-555h-47q0 105 -15 156t-45.5 67.5t-95.5 16.5h-254v-604q0 -72 18.5 -94.5t78.5 -22.5h290q81 0 128.5 28.5t86 107t80.5 237.5z" />
    <glyph glyph-name="Edieresis" unicode="&#xcb;" horiz-adv-x="1269" 
d="M453 1808q-51 0 -86 35.5t-35 85.5t35 85.5t86 35.5q49 0 83.5 -35.5t34.5 -85.5t-34.5 -85.5t-83.5 -35.5zM842 1808q-51 0 -86 35.5t-35 85.5t35 85.5t86 35.5q49 0 84 -35.5t35 -85.5t-35 -85.5t-84 -35.5zM1112 1638l6 -61l39 -352l-57 -6q-16 142 -41 211t-65 92.5
t-117 23.5h-293q-47 0 -72 -25t-25 -71v-563h254q39 0 63 5t44 19t29.5 41.5t14.5 69t5 106.5h47v-555h-47q0 105 -15 156t-45.5 67.5t-95.5 16.5h-254v-604q0 -72 18.5 -94.5t78.5 -22.5h290q81 0 128.5 28.5t86 107t80.5 237.5l58 -16l-101 -390l-16 -59h-1071v49
q72 0 114 7t65.5 27.5t30.5 48.5t7 79v1216q0 51 -7 79t-30.5 48.5t-65.5 27.5t-114 7v49h1073z" />
    <glyph glyph-name="Igrave" unicode="&#xcc;" horiz-adv-x="743" 
d="M297 2154l156 -374h-64l-285 374h193zM256 211v1216q0 51 -7 79t-30.5 48.5t-65.5 27.5t-114 7v49h668v-49q-97 0 -143.5 -15.5t-61.5 -47.5t-15 -99v-1216q0 -67 15 -99t61.5 -47.5t143.5 -15.5v-49h-668v49q72 0 114 7t65.5 27.5t30.5 48.5t7 79z" />
    <glyph glyph-name="Iacute" unicode="&#xcd;" horiz-adv-x="743" 
d="M365 1780h-64l156 374h192zM256 211v1216q0 51 -7 79t-30.5 48.5t-65.5 27.5t-114 7v49h668v-49q-97 0 -143.5 -15.5t-61.5 -47.5t-15 -99v-1216q0 -67 15 -99t61.5 -47.5t143.5 -15.5v-49h-668v49q72 0 114 7t65.5 27.5t30.5 48.5t7 79z" />
    <glyph glyph-name="Icircumflex" unicode="&#xce;" horiz-adv-x="743" 
d="M602 1780l-229 268l-230 -268h-65l194 374h199l195 -374h-64zM707 1638v-49q-97 0 -143.5 -15.5t-61.5 -47.5t-15 -99v-1216q0 -67 15 -99t61.5 -47.5t143.5 -15.5v-49h-668v49q72 0 114 7t65.5 27.5t30.5 48.5t7 79v1216q0 51 -7 79t-30.5 48.5t-65.5 27.5t-114 7v49
h668z" />
    <glyph glyph-name="Idieresis" unicode="&#xcf;" horiz-adv-x="743" 
d="M178 1808q-51 0 -86 35.5t-35 85.5t35 85.5t86 35.5q49 0 84 -35.5t35 -85.5t-35 -85.5t-84 -35.5zM567 1808q-51 0 -86 35.5t-35 85.5t35 85.5t86 35.5q49 0 84 -35.5t35 -85.5t-35 -85.5t-84 -35.5zM256 211v1216q0 51 -7 79t-30.5 48.5t-65.5 27.5t-114 7v49h668v-49
q-97 0 -143.5 -15.5t-61.5 -47.5t-15 -99v-1216q0 -67 15 -99t61.5 -47.5t143.5 -15.5v-49h-668v49q72 0 114 7t65.5 27.5t30.5 48.5t7 79z" />
    <glyph glyph-name="Eth" unicode="&#xd0;" horiz-adv-x="1507" 
d="M629 1638q131 0 250 -30.5t223 -96.5t180 -161.5t120 -233.5t44 -305q0 -161 -41 -294.5t-113.5 -228.5t-173 -160.5t-218.5 -96.5t-251 -31h-610v49q72 0 114 7t65.5 27.5t30.5 48.5t7 79v616h-174v68h174v532q0 51 -7 79t-30.5 48.5t-65.5 27.5t-114 7v49h590zM625 84
q143 0 255 54.5t182 151.5t106 225.5t36 281.5q0 172 -45 315.5t-123 239.5t-183 149t-226 53q-69 0 -101 -12q-39 -9 -39 -53v-594h367v-68h-367v-655q0 -49 33.5 -68.5t104.5 -19.5z" />
    <glyph glyph-name="Ntilde" unicode="&#xd1;" horiz-adv-x="1533" 
d="M612 1935q-53 0 -76.5 -36.5t-33.5 -108.5h-49q25 281 174 281q37 0 72 -14.5t63 -35.5t55.5 -42t59 -35.5t63.5 -14.5q53 0 77 37t32 109h49q-25 -281 -174 -281q-45 0 -89 22t-74.5 48.5t-71 48.5t-77.5 22zM1511 1638v-49q-96 0 -142 -15.5t-61.5 -47.5t-15.5 -99
v-1447h-114l-836 1337v-1106q0 -67 15.5 -99t63.5 -47.5t148 -15.5v-49h-530v49q72 0 114 7t65.5 27.5t30.5 48.5t7 79v1243l-2 4q-50 80 -95.5 105.5t-117.5 25.5v49h375l790 -1280v1069q0 51 -7 79t-30.5 48.5t-65.5 27.5t-114 7v49h522z" />
    <glyph glyph-name="Ograve" unicode="&#xd2;" horiz-adv-x="1417" 
d="M637 2154l156 -374h-64l-285 374h193zM713 -33q-189 0 -336.5 113.5t-226 307t-78.5 431.5t78.5 431t224.5 306t332 113q189 0 336.5 -114t226 -307.5t78.5 -430.5q0 -239 -78 -432t-224 -305.5t-333 -112.5zM756 55q112 0 194.5 85t122 216.5t39.5 288.5
q0 166 -29.5 329t-83.5 300t-141.5 222t-193.5 85q-111 0 -194 -85t-123 -217t-40 -286q0 -133 18 -265t55 -253.5t89 -215t126.5 -149t160.5 -55.5z" />
    <glyph glyph-name="Oacute" unicode="&#xd3;" horiz-adv-x="1417" 
d="M705 1780h-64l156 374h192zM713 -33q-189 0 -336.5 113.5t-226 307t-78.5 431.5t78.5 431t224.5 306t332 113q189 0 336.5 -114t226 -307.5t78.5 -430.5q0 -239 -78 -432t-224 -305.5t-333 -112.5zM756 55q112 0 194.5 85t122 216.5t39.5 288.5q0 166 -29.5 329
t-83.5 300t-141.5 222t-193.5 85q-111 0 -194 -85t-123 -217t-40 -286q0 -133 18 -265t55 -253.5t89 -215t126.5 -149t160.5 -55.5z" />
    <glyph glyph-name="Ocircumflex" unicode="&#xd4;" horiz-adv-x="1417" 
d="M942 1780l-229 268l-230 -268h-65l194 374h199l195 -374h-64zM707 1669q189 0 336.5 -114t226 -307.5t78.5 -430.5q0 -239 -78 -432t-224 -305.5t-333 -112.5q-189 0 -336.5 113.5t-226 307t-78.5 431.5t78.5 431t224.5 306t332 113zM756 55q112 0 194.5 85t122 216.5
t39.5 288.5q0 166 -29.5 329t-83.5 300t-141.5 222t-193.5 85q-111 0 -194 -85t-123 -217t-40 -286q0 -133 18 -265t55 -253.5t89 -215t126.5 -149t160.5 -55.5z" />
    <glyph glyph-name="Otilde" unicode="&#xd5;" horiz-adv-x="1417" 
d="M860 1794q-45 0 -89 22t-74 48.5t-70.5 48.5t-77.5 22q-53 0 -77 -36.5t-34 -108.5h-49q25 281 174 281q37 0 72 -14.5t63.5 -35.5t56 -42t59 -35.5t63.5 -14.5q53 0 76.5 37t31.5 109h49q-25 -281 -174 -281zM713 -33q-189 0 -336.5 113.5t-226 307t-78.5 431.5
t78.5 431t224.5 306t332 113q189 0 336.5 -114t226 -307.5t78.5 -430.5q0 -239 -78 -432t-224 -305.5t-333 -112.5zM756 55q112 0 194.5 85t122 216.5t39.5 288.5q0 166 -29.5 329t-83.5 300t-141.5 222t-193.5 85q-111 0 -194 -85t-123 -217t-40 -286q0 -133 18 -265
t55 -253.5t89 -215t126.5 -149t160.5 -55.5z" />
    <glyph glyph-name="Odieresis" unicode="&#xd6;" horiz-adv-x="1417" 
d="M518 1808q-51 0 -86 35.5t-35 85.5t35 85.5t86 35.5q49 0 84 -35.5t35 -85.5t-35 -85.5t-84 -35.5zM907 1808q-51 0 -86 35.5t-35 85.5t35 85.5t86 35.5q49 0 84 -35.5t35 -85.5t-35 -85.5t-84 -35.5zM713 -33q-189 0 -336.5 113.5t-226 307t-78.5 431.5t78.5 431
t224.5 306t332 113q189 0 336.5 -114t226 -307.5t78.5 -430.5q0 -239 -78 -432t-224 -305.5t-333 -112.5zM756 55q112 0 194.5 85t122 216.5t39.5 288.5q0 166 -29.5 329t-83.5 300t-141.5 222t-193.5 85q-111 0 -194 -85t-123 -217t-40 -286q0 -133 18 -265t55 -253.5
t89 -215t126.5 -149t160.5 -55.5z" />
    <glyph glyph-name="multiply" unicode="&#xd7;" horiz-adv-x="907" 
d="M348 592l-246 246l107 106l246 -246l243 244l107 -106l-244 -244l242 -244l-107 -104l-241 239l-244 -241l-107 106z" />
    <glyph glyph-name="Oslash" unicode="&#xd8;" horiz-adv-x="1417" 
d="M1284 1745l-156 -270q105 -118 162.5 -289t57.5 -369q0 -239 -78 -432t-224 -305.5t-333 -112.5q-213 0 -371 142l-149 -259l-58 33l158 275q-105 118 -163 289t-58 372q0 238 78.5 431t224.5 306t332 113q213 0 374 -145l146 252zM307 993q0 -353 109 -622l555 962
q-122 248 -307 248q-111 0 -194 -85t-123 -217t-40 -286zM756 55q112 0 194.5 85t122 216.5t39.5 288.5q0 345 -106 615l-555 -963q124 -242 305 -242z" />
    <glyph glyph-name="Ugrave" unicode="&#xd9;" horiz-adv-x="1509" 
d="M737 2154l156 -374h-64l-284 374h192zM770 -33q-116 0 -208 29t-154 80t-103 124.5t-59.5 159t-18.5 187.5v880q0 51 -7 79t-30.5 48.5t-65.5 27.5t-114 7v49h668v-49q-97 0 -143.5 -15.5t-61 -47.5t-14.5 -99v-880q0 -244 91 -355.5t275 -111.5q175 0 271 117.5
t96 355.5v874q0 67 -15.5 99t-61.5 47.5t-142 15.5v49h528v-49q-96 0 -142 -15.5t-61.5 -47.5t-15.5 -99v-874q0 -95 -14.5 -177t-50.5 -159t-93 -131t-147 -86.5t-207 -32.5z" />
    <glyph glyph-name="Uacute" unicode="&#xda;" horiz-adv-x="1509" 
d="M803 1780h-64l156 374h192zM770 -33q-116 0 -208 29t-154 80t-103 124.5t-59.5 159t-18.5 187.5v880q0 51 -7 79t-30.5 48.5t-65.5 27.5t-114 7v49h668v-49q-97 0 -143.5 -15.5t-61 -47.5t-14.5 -99v-880q0 -244 91 -355.5t275 -111.5q175 0 271 117.5t96 355.5v874
q0 67 -15.5 99t-61.5 47.5t-142 15.5v49h528v-49q-96 0 -142 -15.5t-61.5 -47.5t-15.5 -99v-874q0 -95 -14.5 -177t-50.5 -159t-93 -131t-147 -86.5t-207 -32.5z" />
    <glyph glyph-name="Ucircumflex" unicode="&#xdb;" horiz-adv-x="1509" 
d="M1040 1780l-229 268l-229 -268h-66l195 374h198l195 -374h-64zM1501 1638v-49q-96 0 -142 -15.5t-61.5 -47.5t-15.5 -99v-874q0 -95 -14.5 -177t-50.5 -159t-93 -131t-147 -86.5t-207 -32.5q-116 0 -208 29t-154 80t-103 124.5t-59.5 159t-18.5 187.5v880q0 51 -7 79
t-30.5 48.5t-65.5 27.5t-114 7v49h668v-49q-97 0 -143.5 -15.5t-61 -47.5t-14.5 -99v-880q0 -244 91 -355.5t275 -111.5q175 0 271 117.5t96 355.5v874q0 67 -15.5 99t-61.5 47.5t-142 15.5v49h528z" />
    <glyph glyph-name="Udieresis" unicode="&#xdc;" horiz-adv-x="1509" 
d="M616 1808q-51 0 -85.5 35.5t-34.5 85.5t34.5 85.5t85.5 35.5q49 0 84 -35.5t35 -85.5t-35 -85.5t-84 -35.5zM1006 1808q-51 0 -86 35.5t-35 85.5t35 85.5t86 35.5q49 0 83.5 -35.5t34.5 -85.5t-34.5 -85.5t-83.5 -35.5zM770 -33q-116 0 -208 29t-154 80t-103 124.5
t-59.5 159t-18.5 187.5v880q0 51 -7 79t-30.5 48.5t-65.5 27.5t-114 7v49h668v-49q-97 0 -143.5 -15.5t-61 -47.5t-14.5 -99v-880q0 -244 91 -355.5t275 -111.5q175 0 271 117.5t96 355.5v874q0 67 -15.5 99t-61.5 47.5t-142 15.5v49h528v-49q-96 0 -142 -15.5t-61.5 -47.5
t-15.5 -99v-874q0 -95 -14.5 -177t-50.5 -159t-93 -131t-147 -86.5t-207 -32.5z" />
    <glyph glyph-name="Yacute" unicode="&#xdd;" horiz-adv-x="1376" 
d="M745 1780h-63l156 374h192zM821 727v-516q0 -67 14.5 -99t61 -47.5t143.5 -15.5v-49h-667v49q72 0 114 7t65.5 27.5t30.5 48.5t7 79v510l-365 729q-42 86 -88.5 112.5t-134.5 26.5v49h629v-49q-56 0 -91.5 -2t-57.5 -10t-31.5 -16t-7.5 -27t9 -36t23 -50l297 -608h6
l279 606q16 34 22.5 51t9.5 36.5t-5 27.5t-27 16t-49.5 10t-79.5 2v49h446v-49q-91 0 -137 -27.5t-86 -115.5z" />
    <glyph glyph-name="Thorn" unicode="&#xde;" horiz-adv-x="1253" 
d="M481 432v-221q0 -67 15.5 -99t61.5 -47.5t142 -15.5v-49h-661v49q72 0 114 7t65.5 27.5t30.5 48.5t7 79v1216q0 51 -7 79t-30.5 48.5t-65.5 27.5t-114 7v49h668v-49q-97 0 -143.5 -15.5t-61.5 -47.5t-15 -99v-92h152q272 0 423.5 -118.5t151.5 -344.5t-144 -351.5
t-370 -125.5q-114 0 -219 37zM659 485q158 0 242 106.5t84 280.5q0 183 -95.5 280t-252.5 97q-80 0 -117 -16t-37 -57v-656q103 -35 176 -35z" />
    <glyph glyph-name="germandbls" unicode="&#xdf;" horiz-adv-x="1171" 
d="M817 752l52 -39t50.5 -39.5t52 -45.5t45 -47.5t42 -55.5t30.5 -58.5t22.5 -67.5t6.5 -73q0 -147 -97.5 -250t-262.5 -103q-118 0 -246 62v354h51q0 -332 199 -326q86 2 137 56t51 151q0 55 -19.5 103.5t-58 90.5t-75 72.5t-89.5 70.5q-15 11 -22 16q-89 68 -129.5 116.5
t-40.5 114.5q0 50 26.5 90.5t99.5 120.5q4 5 6.5 7.5l6.5 6.5t7 8q67 74 100 138.5t33 146.5q0 110 -52.5 166.5t-140.5 56.5q-219 0 -219 -331v-1264h-346v49q98 0 125.5 31t27.5 131v790h-137v68l137 10v135q0 124 33.5 216.5t92 145t130 78t156.5 25.5q167 0 277 -81
t110 -212q0 -185 -201 -313q-92 -67 -112 -90q-27 -29 -27 -59q0 -19 9.5 -37t37 -42.5t49.5 -40.5t72 -52z" />
    <glyph glyph-name="agrave" unicode="&#xe0;" horiz-adv-x="958" 
d="M383 1651l156 -375h-64l-285 375h193zM918 231h47q-10 -264 -191 -264q-186 0 -186 269v36q-35 -145 -114 -225t-189 -80q-105 0 -166.5 69t-61.5 173q0 50 16.5 96.5t40 82.5t66 72t78 60.5t93.5 55t95 47t99 44.5q29 13 43 19v119q0 127 -40 182t-118 55q-61 0 -99 -29
t-38 -79q0 -24 14.5 -61t14.5 -60q0 -42 -26.5 -68t-74.5 -26q-54 0 -83 34.5t-29 92.5q0 116 100.5 197t253.5 81q152 0 236.5 -85t84.5 -248v-605q0 -71 13.5 -98t40.5 -27q75 0 80 170zM365 123q66 0 125.5 63.5t97.5 190.5v241q-60 -31 -100 -54t-88.5 -58.5t-77 -69
t-48.5 -78.5t-20 -94q0 -66 29 -103.5t82 -37.5z" />
    <glyph glyph-name="aacute" unicode="&#xe1;" horiz-adv-x="958" 
d="M543 1651h192l-284 -375h-64zM918 231h47q-10 -264 -191 -264q-186 0 -186 269v36q-35 -145 -114 -225t-189 -80q-105 0 -166.5 69t-61.5 173q0 50 16.5 96.5t40 82.5t66 72t78 60.5t93.5 55t95 47t99 44.5q29 13 43 19v119q0 127 -40 182t-118 55q-61 0 -99 -29t-38 -79
q0 -24 14.5 -61t14.5 -60q0 -42 -26.5 -68t-74.5 -26q-54 0 -83 34.5t-29 92.5q0 116 100.5 197t253.5 81q152 0 236.5 -85t84.5 -248v-605q0 -71 13.5 -98t40.5 -27q75 0 80 170zM365 123q66 0 125.5 63.5t97.5 190.5v241q-60 -31 -100 -54t-88.5 -58.5t-77 -69
t-48.5 -78.5t-20 -94q0 -66 29 -103.5t82 -37.5z" />
    <glyph glyph-name="acircumflex" unicode="&#xe2;" horiz-adv-x="958" 
d="M688 1276l-229 268l-230 -268h-65l194 375h199l195 -375h-64zM918 231h47q-10 -264 -191 -264q-186 0 -186 269v36q-35 -145 -114 -225t-189 -80q-105 0 -166.5 69t-61.5 173q0 50 16.5 96.5t40 82.5t66 72t78 60.5t93.5 55t95 47t99 44.5q29 13 43 19v119q0 127 -40 182
t-118 55q-61 0 -99 -29t-38 -79q0 -24 14.5 -61t14.5 -60q0 -42 -26.5 -68t-74.5 -26q-54 0 -83 34.5t-29 92.5q0 116 100.5 197t253.5 81q152 0 236.5 -85t84.5 -248v-605q0 -71 13.5 -98t40.5 -27q75 0 80 170zM365 123q66 0 125.5 63.5t97.5 190.5v241q-60 -31 -100 -54
t-88.5 -58.5t-77 -69t-48.5 -78.5t-20 -94q0 -66 29 -103.5t82 -37.5z" />
    <glyph glyph-name="atilde" unicode="&#xe3;" horiz-adv-x="958" 
d="M295 1432q-53 0 -77 -37t-34 -109h-49q25 281 174 281q37 0 72 -14.5t63.5 -35.5t56 -42t59 -35.5t63.5 -14.5q53 0 76.5 37t31.5 109h49q-25 -281 -174 -281q-37 0 -72 14.5t-63 35.5t-55 42t-58.5 35.5t-62.5 14.5zM918 231h47q-10 -264 -191 -264q-186 0 -186 269v36
q-35 -145 -114 -225t-189 -80q-105 0 -166.5 69t-61.5 173q0 50 16.5 96.5t40 82.5t66 72t78 60.5t93.5 55t95 47t99 44.5q29 13 43 19v119q0 127 -40 182t-118 55q-61 0 -99 -29t-38 -79q0 -24 14.5 -61t14.5 -60q0 -42 -26.5 -68t-74.5 -26q-54 0 -83 34.5t-29 92.5
q0 116 100.5 197t253.5 81q152 0 236.5 -85t84.5 -248v-605q0 -71 13.5 -98t40.5 -27q75 0 80 170zM365 123q66 0 125.5 63.5t97.5 190.5v241q-60 -31 -100 -54t-88.5 -58.5t-77 -69t-48.5 -78.5t-20 -94q0 -66 29 -103.5t82 -37.5z" />
    <glyph glyph-name="adieresis" unicode="&#xe4;" horiz-adv-x="958" 
d="M264 1305q-51 0 -86 35t-35 85t35 85.5t86 35.5q49 0 84 -35.5t35 -85.5t-35 -85t-84 -35zM653 1305q-51 0 -86 35t-35 85t35 85.5t86 35.5q49 0 84 -35.5t35 -85.5t-35 -85t-84 -35zM918 231h47q-10 -264 -191 -264q-186 0 -186 269v36q-35 -145 -114 -225t-189 -80
q-105 0 -166.5 69t-61.5 173q0 50 16.5 96.5t40 82.5t66 72t78 60.5t93.5 55t95 47t99 44.5q29 13 43 19v119q0 127 -40 182t-118 55q-61 0 -99 -29t-38 -79q0 -24 14.5 -61t14.5 -60q0 -42 -26.5 -68t-74.5 -26q-54 0 -83 34.5t-29 92.5q0 116 100.5 197t253.5 81
q152 0 236.5 -85t84.5 -248v-605q0 -71 13.5 -98t40.5 -27q75 0 80 170zM365 123q66 0 125.5 63.5t97.5 190.5v241q-60 -31 -100 -54t-88.5 -58.5t-77 -69t-48.5 -78.5t-20 -94q0 -66 29 -103.5t82 -37.5z" />
    <glyph glyph-name="aring" unicode="&#xe5;" horiz-adv-x="958" 
d="M459 1290q-91 0 -151 58.5t-60 146.5q0 86 60 143.5t151 57.5q89 0 148 -57.5t59 -143.5q0 -88 -59 -146.5t-148 -58.5zM459 1624q-57 0 -95 -37t-38 -92q0 -57 38 -94t95 -37q56 0 93.5 37t37.5 94q0 55 -37.5 92t-93.5 37zM918 231h47q-10 -264 -191 -264
q-186 0 -186 269v36q-35 -145 -114 -225t-189 -80q-105 0 -166.5 69t-61.5 173q0 50 16.5 96.5t40 82.5t66 72t78 60.5t93.5 55t95 47t99 44.5q29 13 43 19v119q0 127 -40 182t-118 55q-61 0 -99 -29t-38 -79q0 -24 14.5 -61t14.5 -60q0 -42 -26.5 -68t-74.5 -26
q-54 0 -83 34.5t-29 92.5q0 116 100.5 197t253.5 81q152 0 236.5 -85t84.5 -248v-605q0 -71 13.5 -98t40.5 -27q75 0 80 170zM365 123q66 0 125.5 63.5t97.5 190.5v241q-60 -31 -100 -54t-88.5 -58.5t-77 -69t-48.5 -78.5t-20 -94q0 -66 29 -103.5t82 -37.5z" />
    <glyph glyph-name="ae" unicode="&#xe6;" horiz-adv-x="1394" 
d="M1276 438h49q-30 -240 -127.5 -355.5t-247.5 -115.5q-125 0 -215.5 82.5t-130.5 229.5q-77 -312 -321 -312q-102 0 -164 69.5t-62 180.5q0 36 9 69.5t22 61t39 55.5t46.5 48t58.5 44.5t62.5 39t71 37t70 33t74 32.5t70.5 31v151q0 120 -38 172.5t-110 52.5
q-65 0 -103 -29.5t-38 -78.5q0 -26 13 -61.5t13 -63.5q0 -41 -26.5 -66.5t-77.5 -25.5q-109 0 -109 121q0 123 100 203.5t257 80.5q178 0 258 -118q99 116 244 116q115 0 195.5 -69.5t117.5 -185.5t37 -269h-539v-76q11 -186 75.5 -294.5t178.5 -108.5q80 0 147 74t101 245z
M961 1036q-166 0 -187 -354h342q0 354 -155 354zM365 123q64 0 123 59.5t98 179.5q-13 80 -13 162q0 40 2 58q-146 -75 -194 -109q-126 -91 -127 -207q0 -67 29 -105t82 -38z" />
    <glyph glyph-name="ccedilla" unicode="&#xe7;" horiz-adv-x="841" 
d="M487 -31l-28 -59q231 -19 231 -182q0 -89 -72.5 -146t-178.5 -74.5t-224 -1.5l12 50q149 -12 231.5 28t82.5 133q0 139 -205 142l63 110q-156 20 -244.5 171t-88.5 384q0 172 47.5 306t142 213t223.5 79q128 0 208.5 -75t80.5 -191q0 -65 -28.5 -101t-80.5 -36
q-45 0 -70.5 27t-25.5 67q0 17 7.5 57t7.5 62q0 51 -27 77.5t-74 26.5q-53 0 -94 -35t-65.5 -96t-37 -137.5t-12.5 -165.5q0 -136 27 -242.5t84.5 -171.5t138.5 -65q80 0 144.5 75.5t89.5 252.5h49q-14 -225 -99 -345.5t-215 -136.5z" />
    <glyph glyph-name="egrave" unicode="&#xe8;" horiz-adv-x="884" 
d="M381 1651l156 -375h-64l-285 375h193zM768 438h49q-31 -240 -128 -355.5t-247 -115.5q-173 0 -274.5 151.5t-101.5 405.5q0 164 45 298.5t134.5 217t207.5 82.5q116 0 197 -69.5t118 -185.5t37 -269h-541v-4q0 -216 66 -345.5t190 -129.5q80 0 147 74t101 245zM453 1036
q-166 0 -187 -354h342q0 354 -155 354z" />
    <glyph glyph-name="eacute" unicode="&#xe9;" horiz-adv-x="884" 
d="M539 1651h192l-285 -375h-63zM768 438h49q-31 -240 -128 -355.5t-247 -115.5q-173 0 -274.5 151.5t-101.5 405.5q0 164 45 298.5t134.5 217t207.5 82.5q116 0 197 -69.5t118 -185.5t37 -269h-541v-4q0 -216 66 -345.5t190 -129.5q80 0 147 74t101 245zM453 1036
q-166 0 -187 -354h342q0 354 -155 354z" />
    <glyph glyph-name="ecircumflex" unicode="&#xea;" horiz-adv-x="884" 
d="M684 1276l-229 268l-230 -268h-65l194 375h199l195 -375h-64zM768 438h49q-31 -240 -128 -355.5t-247 -115.5q-173 0 -274.5 151.5t-101.5 405.5q0 164 45 298.5t134.5 217t207.5 82.5q116 0 197 -69.5t118 -185.5t37 -269h-541v-4q0 -216 66 -345.5t190 -129.5
q80 0 147 74t101 245zM453 1036q-166 0 -187 -354h342q0 354 -155 354z" />
    <glyph glyph-name="edieresis" unicode="&#xeb;" horiz-adv-x="884" 
d="M260 1305q-51 0 -86 35t-35 85t35 85.5t86 35.5q49 0 84 -35.5t35 -85.5t-35 -85t-84 -35zM649 1305q-51 0 -86 35t-35 85t35 85.5t86 35.5q49 0 84 -35.5t35 -85.5t-35 -85t-84 -35zM768 438h49q-31 -240 -128 -355.5t-247 -115.5q-173 0 -274.5 151.5t-101.5 405.5
q0 164 45 298.5t134.5 217t207.5 82.5q116 0 197 -69.5t118 -185.5t37 -269h-541v-4q0 -216 66 -345.5t190 -129.5q80 0 147 74t101 245zM453 1036q-166 0 -187 -354h342q0 354 -155 354z" />
    <glyph glyph-name="igrave" unicode="&#xec;" horiz-adv-x="573" 
d="M199 1651l155 -375h-63l-285 375h193zM55 0v49q92 0 119 31t27 131v631q0 31 -0.5 46.5t-2 35.5t-4.5 27.5t-9 17t-14.5 10t-21.5 0t-29.5 -6t-39.5 -14.5l-19 48l304 120l32 -30v-885q0 -100 27 -131t119 -31v-49h-488z" />
    <glyph glyph-name="iacute" unicode="&#xed;" horiz-adv-x="573" 
d="M266 1276h-63l155 375h193zM55 0v49q92 0 119 31t27 131v631q0 31 -0.5 46.5t-2 35.5t-4.5 27.5t-9 17t-14.5 10t-21.5 0t-29.5 -6t-39.5 -14.5l-19 48l304 120l32 -30v-885q0 -100 27 -131t119 -31v-49h-488z" />
    <glyph glyph-name="icircumflex" unicode="&#xee;" horiz-adv-x="573" 
d="M567 1276h-63l-230 268l-229 -268h-65l194 375h199zM397 1096v-885q0 -100 27 -131t119 -31v-49h-488v49q92 0 119 31t27 131v631q0 31 -0.5 46.5t-2 35.5t-4.5 27.5t-9 17t-14.5 10t-21.5 0t-29.5 -6t-39.5 -14.5l-19 48l304 120z" />
    <glyph glyph-name="idieresis" unicode="&#xef;" horiz-adv-x="573" 
d="M80 1305q-51 0 -86 35t-35 85t35 85.5t86 35.5q49 0 84 -35.5t35 -85.5t-35 -85t-84 -35zM469 1305q-51 0 -86 35t-35 85t35 85.5t86 35.5q49 0 84 -35.5t35 -85.5t-35 -85t-84 -35zM55 0v49q92 0 119 31t27 131v631q0 31 -0.5 46.5t-2 35.5t-4.5 27.5t-9 17t-14.5 10
t-21.5 0t-29.5 -6t-39.5 -14.5l-19 48l304 120l32 -30v-885q0 -100 27 -131t119 -31v-49h-488z" />
    <glyph glyph-name="eth" unicode="&#xf0;" horiz-adv-x="1003" 
d="M786 1538l-215 -133q367 -341 367 -815q0 -278 -126 -450.5t-323 -172.5q-128 0 -225 76t-147.5 205t-50.5 289q0 158 46 285.5t136 203.5t209 76q58 0 108.5 -24t81.5 -64q-63 177 -178 327l-221 -135l-27 49l213 131q-116 138 -262 244v49q211 -110 356 -235l230 141z
M518 55q60 0 102 36.5t65.5 107t33.5 159t10 205.5q0 169 -43 334q-61 125 -180 125q-53 0 -94.5 -24t-67.5 -63.5t-43 -96t-24 -116.5t-7 -130q0 -152 26 -270.5t83 -192.5t139 -74z" />
    <glyph glyph-name="ntilde" unicode="&#xf1;" horiz-adv-x="1124" 
d="M741 1290q-37 0 -72 14.5t-63 35.5t-55 42t-58.5 35.5t-62.5 14.5q-53 0 -77 -37t-34 -109h-49q25 281 174 281q37 0 72 -14.5t63.5 -35.5t56 -42t59 -35.5t63.5 -14.5q53 0 76.5 37t31.5 109h49q-25 -281 -174 -281zM57 0v49q88 0 114 31t26 131v631v47t-2 35t-4.5 28
t-9 17t-14.5 10t-22 -0.5t-30.5 -6.5t-40.5 -16l-21 48l164 65l139 57l39 -30v-189h6q77 106 152 160.5t172 54.5q109 0 167 -76.5t58 -220.5v-614q0 -100 24.5 -131t110.5 -31v-49h-458v49q80 0 102.5 30.5t22.5 131.5v602q0 166 -121 166q-113 0 -236 -158v-610
q0 -101 22.5 -131.5t102.5 -30.5v-49h-463z" />
    <glyph glyph-name="ograve" unicode="&#xf2;" horiz-adv-x="1009" 
d="M422 1651l156 -375h-64l-285 375h193zM506 -33q-198 0 -319 159t-121 413q0 166 51 297t152 208.5t237 77.5q197 0 318.5 -159t121.5 -412q0 -166 -51.5 -297.5t-152.5 -209t-236 -77.5zM537 57q52 0 92.5 32.5t63.5 87t34.5 119t11.5 134.5q0 108 -16.5 212.5t-47.5 193
t-83 142.5t-117 54q-69 0 -117 -57t-68 -138.5t-20 -177.5q0 -108 17 -212.5t48.5 -192.5t84 -142.5t117.5 -54.5z" />
    <glyph glyph-name="oacute" unicode="&#xf3;" horiz-adv-x="1009" 
d="M487 1276h-63l156 375h192zM506 -33q-198 0 -319 159t-121 413q0 166 51 297t152 208.5t237 77.5q197 0 318.5 -159t121.5 -412q0 -166 -51.5 -297.5t-152.5 -209t-236 -77.5zM537 57q52 0 92.5 32.5t63.5 87t34.5 119t11.5 134.5q0 108 -16.5 212.5t-47.5 193t-83 142.5
t-117 54q-69 0 -117 -57t-68 -138.5t-20 -177.5q0 -108 17 -212.5t48.5 -192.5t84 -142.5t117.5 -54.5z" />
    <glyph glyph-name="ocircumflex" unicode="&#xf4;" horiz-adv-x="1009" 
d="M727 1276l-229 268l-230 -268h-65l194 375h199l195 -375h-64zM506 1122q197 0 318.5 -159t121.5 -412q0 -166 -51.5 -297.5t-152.5 -209t-236 -77.5q-198 0 -319 159t-121 413q0 166 51 297t152 208.5t237 77.5zM537 57q52 0 92.5 32.5t63.5 87t34.5 119t11.5 134.5
q0 108 -16.5 212.5t-47.5 193t-83 142.5t-117 54q-69 0 -117 -57t-68 -138.5t-20 -177.5q0 -108 17 -212.5t48.5 -192.5t84 -142.5t117.5 -54.5z" />
    <glyph glyph-name="otilde" unicode="&#xf5;" horiz-adv-x="1009" 
d="M645 1290q-37 0 -72 14.5t-63 35.5t-55 42t-58.5 35.5t-62.5 14.5q-53 0 -77 -37t-34 -109h-49q25 281 174 281q37 0 72 -14.5t63.5 -35.5t56 -42t59 -35.5t63.5 -14.5q53 0 76.5 37t31.5 109h49q-25 -281 -174 -281zM506 -33q-198 0 -319 159t-121 413q0 166 51 297
t152 208.5t237 77.5q197 0 318.5 -159t121.5 -412q0 -166 -51.5 -297.5t-152.5 -209t-236 -77.5zM537 57q52 0 92.5 32.5t63.5 87t34.5 119t11.5 134.5q0 108 -16.5 212.5t-47.5 193t-83 142.5t-117 54q-69 0 -117 -57t-68 -138.5t-20 -177.5q0 -108 17 -212.5t48.5 -192.5
t84 -142.5t117.5 -54.5z" />
    <glyph glyph-name="odieresis" unicode="&#xf6;" horiz-adv-x="1009" 
d="M303 1305q-51 0 -86 35t-35 85t35 85.5t86 35.5q49 0 84 -35.5t35 -85.5t-35 -85t-84 -35zM692 1305q-51 0 -86 35t-35 85t35 85.5t86 35.5q49 0 84 -35.5t35 -85.5t-35 -85t-84 -35zM506 -33q-198 0 -319 159t-121 413q0 166 51 297t152 208.5t237 77.5
q197 0 318.5 -159t121.5 -412q0 -166 -51.5 -297.5t-152.5 -209t-236 -77.5zM537 57q52 0 92.5 32.5t63.5 87t34.5 119t11.5 134.5q0 108 -16.5 212.5t-47.5 193t-83 142.5t-117 54q-69 0 -117 -57t-68 -138.5t-20 -177.5q0 -108 17 -212.5t48.5 -192.5t84 -142.5
t117.5 -54.5z" />
    <glyph glyph-name="divide" unicode="&#xf7;" horiz-adv-x="978" 
d="M489 883q-38 0 -66 28t-28 68q0 38 28 67t66 29t66.5 -29t28.5 -67q0 -39 -28 -67.5t-67 -28.5zM877 539h-775v151h775v-151zM489 156q-38 0 -66 28t-28 68q0 38 28 67t66 29t66.5 -29t28.5 -67q0 -40 -28 -68t-67 -28z" />
    <glyph glyph-name="oslash" unicode="&#xf8;" horiz-adv-x="1026" 
d="M907 1169l-100 -174q70 -78 108.5 -192t38.5 -252q0 -166 -51.5 -297.5t-152.5 -209t-236 -77.5q-141 0 -250 86l-98 -172l-47 33l102 178q-71 77 -110 192t-39 255q0 166 51.5 297t153 208.5t237.5 77.5q145 0 250 -88l96 166zM279 659q0 -206 53 -374l338 583
q-75 164 -187 164q-53 0 -93.5 -32.5t-64 -87t-35 -118.5t-11.5 -135zM543 57q70 0 118 57.5t67.5 138.5t19.5 177q0 200 -54 371l-336 -584q75 -160 185 -160z" />
    <glyph glyph-name="ugrave" unicode="&#xf9;" horiz-adv-x="1073" 
d="M449 1651l155 -375h-63l-285 375h193zM752 -33l-41 35l-4 174l-7 2q-133 -211 -313 -211q-105 0 -164 79.5t-59 215.5v578q0 38 -1 58t-5.5 40t-12 26.5t-23 9.5t-36 -1.5t-53.5 -14.5l-15 46l316 102l28 -27v-796q0 -179 115 -179q111 0 230 158v578q0 39 -1 58.5
t-5.5 39.5t-12 26t-23 9.5t-36.5 -1t-54 -14.5l-14 46l318 102l26 -27v-835q0 -40 1 -60t5 -41t11.5 -27t23 -9t36.5 2.5t54 17.5l19 -47z" />
    <glyph glyph-name="uacute" unicode="&#xfa;" horiz-adv-x="1073" 
d="M516 1276h-63l155 375h193zM752 -33l-41 35l-4 174l-7 2q-133 -211 -313 -211q-105 0 -164 79.5t-59 215.5v578q0 38 -1 58t-5.5 40t-12 26.5t-23 9.5t-36 -1.5t-53.5 -14.5l-15 46l316 102l28 -27v-796q0 -179 115 -179q111 0 230 158v578q0 39 -1 58.5t-5.5 39.5
t-12 26t-23 9.5t-36.5 -1t-54 -14.5l-14 46l318 102l26 -27v-835q0 -40 1 -60t5 -41t11.5 -27t23 -9t36.5 2.5t54 17.5l19 -47z" />
    <glyph glyph-name="ucircumflex" unicode="&#xfb;" horiz-adv-x="1073" 
d="M754 1276l-230 268l-229 -268h-66l195 375h199l194 -375h-63zM1036 127l19 -47l-303 -113l-41 35l-4 174l-7 2q-133 -211 -313 -211q-105 0 -164 79.5t-59 215.5v578q0 38 -1 58t-5.5 40t-12 26.5t-23 9.5t-36 -1.5t-53.5 -14.5l-15 46l316 102l28 -27v-796
q0 -179 115 -179q111 0 230 158v578q0 39 -1 58.5t-5.5 39.5t-12 26t-23 9.5t-36.5 -1t-54 -14.5l-14 46l318 102l26 -27v-835q0 -40 1 -60t5 -41t11.5 -27t23 -9t36.5 2.5t54 17.5z" />
    <glyph glyph-name="udieresis" unicode="&#xfc;" horiz-adv-x="1073" 
d="M330 1305q-51 0 -86 35t-35 85t35 85.5t86 35.5q49 0 84 -35.5t35 -85.5t-35 -85t-84 -35zM719 1305q-51 0 -86 35t-35 85t35 85.5t86 35.5q49 0 84 -35.5t35 -85.5t-35 -85t-84 -35zM752 -33l-41 35l-4 174l-7 2q-133 -211 -313 -211q-105 0 -164 79.5t-59 215.5v578
q0 38 -1 58t-5.5 40t-12 26.5t-23 9.5t-36 -1.5t-53.5 -14.5l-15 46l316 102l28 -27v-796q0 -179 115 -179q111 0 230 158v578q0 39 -1 58.5t-5.5 39.5t-12 26t-23 9.5t-36.5 -1t-54 -14.5l-14 46l318 102l26 -27v-835q0 -40 1 -60t5 -41t11.5 -27t23 -9t36.5 2.5t54 17.5
l19 -47z" />
    <glyph glyph-name="yacute" unicode="&#xfd;" horiz-adv-x="987" 
d="M502 1276h-64l156 375h192zM205 -479q-73 0 -121.5 39.5t-48.5 101.5q0 49 29 77t73 28q34 0 56.5 -16.5t44.5 -45.5q19 -27 34 -37t39 -10q75 0 133 221q11 65 -16 195l-254 809q-30 93 -64.5 123t-103.5 30v49h479v-49q-98 0 -113.5 -29t15.5 -124l172 -602h10l170 602
q30 95 14 124t-112 29v49h338v-49q-64 0 -96.5 -30.5t-59.5 -122.5l-258 -871q-28 -95 -51.5 -160t-56 -131.5t-67 -106.5t-82 -65.5t-103.5 -27.5z" />
    <glyph glyph-name="thorn" unicode="&#xfe;" horiz-adv-x="1042" 
d="M664 1122q151 0 232 -147t81 -391q0 -267 -99 -438t-262 -171q-76 0 -142.5 38t-106.5 110h-5v-363q0 -101 26.5 -131t119.5 -30v-50h-488v50q92 0 118 30t26 131v1626v6q0 40 -0.5 56.5t-4 36.5t-10.5 24t-21 5.5t-33.5 -6.5t-51.5 -23l-20 43l309 151l30 -28v-736h9
q126 207 293 207zM561 74q50 0 88.5 39t60.5 107t33 152t11 181q0 207 -45.5 317.5t-133.5 110.5q-60 0 -115 -45.5t-98 -118.5v-373q0 -167 57.5 -268.5t141.5 -101.5z" />
    <glyph glyph-name="ydieresis" unicode="&#xff;" horiz-adv-x="987" 
d="M317 1305q-51 0 -85.5 35t-34.5 85t34.5 85.5t85.5 35.5q49 0 84 -35.5t35 -85.5t-35 -85t-84 -35zM707 1305q-51 0 -86 35t-35 85t35 85.5t86 35.5q49 0 83.5 -35.5t34.5 -85.5t-34.5 -85t-83.5 -35zM205 -479q-73 0 -121.5 39.5t-48.5 101.5q0 49 29 77t73 28
q34 0 56.5 -16.5t44.5 -45.5q19 -27 34 -37t39 -10q75 0 133 221q11 65 -16 195l-254 809q-30 93 -64.5 123t-103.5 30v49h479v-49q-98 0 -113.5 -29t15.5 -124l172 -602h10l170 602q30 95 14 124t-112 29v49h338v-49q-64 0 -96.5 -30.5t-59.5 -122.5l-258 -871
q-28 -95 -51.5 -160t-56 -131.5t-67 -106.5t-82 -65.5t-103.5 -27.5z" />
    <glyph glyph-name="Amacron" unicode="&#x100;" horiz-adv-x="1419" 
d="M424 1978h571v-102h-571v102zM762 1663l483 -1462q32 -93 76 -122.5t145 -29.5v-49h-622v49q100 0 139.5 13t43 47.5t-18.5 93.5l-99 315h-549l-100 -317q-22 -59 -19.5 -92.5t41 -46.5t136.5 -13v-49h-463v49q98 0 141.5 30t73.5 122l479 1462h113zM633 1368l-246 -770
h496l-242 770h-8z" />
    <glyph glyph-name="amacron" unicode="&#x101;" horiz-adv-x="958" 
d="M172 1475h571v-103h-571v103zM918 231h47q-10 -264 -191 -264q-186 0 -186 269v36q-35 -145 -114 -225t-189 -80q-105 0 -166.5 69t-61.5 173q0 50 16.5 96.5t40 82.5t66 72t78 60.5t93.5 55t95 47t99 44.5q29 13 43 19v119q0 127 -40 182t-118 55q-61 0 -99 -29t-38 -79
q0 -24 14.5 -61t14.5 -60q0 -42 -26.5 -68t-74.5 -26q-54 0 -83 34.5t-29 92.5q0 116 100.5 197t253.5 81q152 0 236.5 -85t84.5 -248v-605q0 -71 13.5 -98t40.5 -27q75 0 80 170zM365 123q66 0 125.5 63.5t97.5 190.5v241q-60 -31 -100 -54t-88.5 -58.5t-77 -69
t-48.5 -78.5t-20 -94q0 -66 29 -103.5t82 -37.5z" />
    <glyph glyph-name="Abreve" unicode="&#x102;" horiz-adv-x="1419" 
d="M711 1831q-124 0 -199 75.5t-84 217.5h49q10 -74 73 -115t161 -41t159.5 41t71.5 115h49q-9 -142 -83.5 -217.5t-196.5 -75.5zM762 1663l483 -1462q32 -93 76 -122.5t145 -29.5v-49h-622v49q100 0 139.5 13t43 47.5t-18.5 93.5l-99 315h-549l-100 -317
q-22 -59 -19.5 -92.5t41 -46.5t136.5 -13v-49h-463v49q98 0 141.5 30t73.5 122l479 1462h113zM633 1368l-246 -770h496l-242 770h-8z" />
    <glyph glyph-name="abreve" unicode="&#x103;" horiz-adv-x="958" 
d="M459 1327q-124 0 -199 75.5t-84 217.5h49q10 -74 73 -115t161 -41t159.5 41t71.5 115h49q-9 -142 -83.5 -217.5t-196.5 -75.5zM918 231h47q-10 -264 -191 -264q-186 0 -186 269v36q-35 -145 -114 -225t-189 -80q-105 0 -166.5 69t-61.5 173q0 50 16.5 96.5t40 82.5t66 72
t78 60.5t93.5 55t95 47t99 44.5q29 13 43 19v119q0 127 -40 182t-118 55q-61 0 -99 -29t-38 -79q0 -24 14.5 -61t14.5 -60q0 -42 -26.5 -68t-74.5 -26q-54 0 -83 34.5t-29 92.5q0 116 100.5 197t253.5 81q152 0 236.5 -85t84.5 -248v-605q0 -71 13.5 -98t40.5 -27
q75 0 80 170zM365 123q66 0 125.5 63.5t97.5 190.5v241q-60 -31 -100 -54t-88.5 -58.5t-77 -69t-48.5 -78.5t-20 -94q0 -66 29 -103.5t82 -37.5z" />
    <glyph glyph-name="Aogonek" unicode="&#x104;" horiz-adv-x="1419" 
d="M1262 0q-21 -25 -61.5 -65t-64.5 -65t-43.5 -63.5t-19.5 -78.5q0 -60 30 -94.5t89 -34.5q66 0 168 47l12 -49q-116 -91 -242 -91q-88 0 -148 51.5t-60 143.5q0 60 35 110.5t77 78t98 60.5t76 50h-364v49q100 0 139.5 13t43 47.5t-18.5 93.5l-99 315h-549l-100 -317
q-22 -59 -19.5 -92.5t41 -46.5t136.5 -13v-49h-463v49q98 0 141.5 30t73.5 122l479 1462h113l483 -1462q32 -93 76 -122.5t145 -29.5v-49h-204zM633 1368l-246 -770h496l-242 770h-8z" />
    <glyph glyph-name="aogonek" unicode="&#x105;" horiz-adv-x="958" 
d="M776 -416q66 0 168 47l12 -49q-115 -90 -241 -90q-88 0 -148.5 51.5t-60.5 143.5q0 37 14 71t33.5 57.5t50.5 48t55.5 39t58.5 34.5t50 30q-180 3 -180 269v36q-35 -145 -114 -225t-189 -80q-105 0 -166.5 69t-61.5 173q0 50 16.5 96.5t40 82.5t66 72t78 60.5t93.5 55
t95 47t99 44.5q29 13 43 19v119q0 127 -40 182t-118 55q-61 0 -99 -29t-38 -79q0 -24 14.5 -61t14.5 -60q0 -42 -26.5 -68t-74.5 -26q-54 0 -83 34.5t-29 92.5q0 116 100.5 197t253.5 81q152 0 236.5 -85t84.5 -248v-605q0 -71 13.5 -98t40.5 -27q75 0 80 170h47
q-7 -212 -127 -254q-20 -23 -59.5 -62.5t-61.5 -63.5t-41 -62t-19 -76q0 -60 30 -94.5t89 -34.5zM365 123q66 0 125.5 63.5t97.5 190.5v241q-60 -31 -100 -54t-88.5 -58.5t-77 -69t-48.5 -78.5t-20 -94q0 -66 29 -103.5t82 -37.5z" />
    <glyph glyph-name="Cacute" unicode="&#x106;" horiz-adv-x="1349" 
d="M723 1780h-64l156 374h193zM72 805q0 246 82 442.5t234 310t347 113.5q203 0 336 -127q23 -22 39.5 -16t19.5 35l11 90h47l31 -580h-48q-89 508 -399 508q-140 0 -243 -99t-155 -267t-52 -384t53 -383t155.5 -263.5t241.5 -96.5q92 0 168.5 43.5t130.5 122t90.5 182.5
t52.5 230h60q-30 -331 -172.5 -515t-396.5 -184q-119 0 -221 42t-177.5 118.5t-128.5 181t-79.5 230.5t-26.5 266z" />
    <glyph glyph-name="cacute" unicode="&#x107;" horiz-adv-x="841" 
d="M471 1276h-63l155 375h193zM444 -33q-177 0 -277.5 153t-100.5 404q0 172 47.5 306t142 213t223.5 79q128 0 208.5 -75t80.5 -191q0 -65 -28.5 -101t-80.5 -36q-45 0 -70.5 27t-25.5 67q0 17 7.5 57t7.5 62q0 51 -27 77.5t-74 26.5q-53 0 -94 -35t-65.5 -96t-37 -137.5
t-12.5 -165.5q0 -136 27 -242.5t84.5 -171.5t138.5 -65q80 0 144.5 75.5t89.5 252.5h49q-8 -124 -39 -218.5t-79.5 -151.5t-108 -85.5t-130.5 -28.5z" />
    <glyph glyph-name="Cdotaccent" unicode="&#x10a;" horiz-adv-x="1349" 
d="M731 1808q-49 0 -85 36t-36 85t36 85t85 36t85 -36t36 -85t-36 -85t-85 -36zM72 805q0 246 82 442.5t234 310t347 113.5q203 0 336 -127q23 -22 39.5 -16t19.5 35l11 90h47l31 -580h-48q-89 508 -399 508q-140 0 -243 -99t-155 -267t-52 -384t53 -383t155.5 -263.5
t241.5 -96.5q92 0 168.5 43.5t130.5 122t90.5 182.5t52.5 230h60q-30 -331 -172.5 -515t-396.5 -184q-119 0 -221 42t-177.5 118.5t-128.5 181t-79.5 230.5t-26.5 266z" />
    <glyph glyph-name="cdotaccent" unicode="&#x10b;" horiz-adv-x="841" 
d="M479 1305q-50 0 -85.5 35.5t-35.5 84.5t36 85t85 36t85 -36t36 -85t-35.5 -84.5t-85.5 -35.5zM444 -33q-177 0 -277.5 153t-100.5 404q0 172 47.5 306t142 213t223.5 79q128 0 208.5 -75t80.5 -191q0 -65 -28.5 -101t-80.5 -36q-45 0 -70.5 27t-25.5 67q0 17 7.5 57
t7.5 62q0 51 -27 77.5t-74 26.5q-53 0 -94 -35t-65.5 -96t-37 -137.5t-12.5 -165.5q0 -136 27 -242.5t84.5 -171.5t138.5 -65q80 0 144.5 75.5t89.5 252.5h49q-8 -124 -39 -218.5t-79.5 -151.5t-108 -85.5t-130.5 -28.5z" />
    <glyph glyph-name="Ccaron" unicode="&#x10c;" horiz-adv-x="1349" 
d="M633 1782l-195 375h64l229 -269l230 269h65l-195 -375h-198zM1214 666h60q-30 -331 -172.5 -515t-396.5 -184q-119 0 -221 42t-177.5 118.5t-128.5 181t-79.5 230.5t-26.5 266q0 246 82 442.5t234 310t347 113.5q203 0 336 -127q23 -22 39.5 -16t19.5 35l11 90h47
l31 -580h-48q-89 508 -399 508q-140 0 -243 -99t-155 -267t-52 -384t53 -383t155.5 -263.5t241.5 -96.5q92 0 168.5 43.5t130.5 122t90.5 182.5t52.5 230z" />
    <glyph glyph-name="ccaron" unicode="&#x10d;" horiz-adv-x="841" 
d="M381 1278l-195 375h64l229 -269l230 269h65l-194 -375h-199zM752 451h49q-8 -124 -39 -218.5t-79.5 -151.5t-108 -85.5t-130.5 -28.5q-177 0 -277.5 153t-100.5 404q0 172 47.5 306t142 213t223.5 79q128 0 208.5 -75t80.5 -191q0 -65 -28.5 -101t-80.5 -36
q-45 0 -70.5 27t-25.5 67q0 17 7.5 57t7.5 62q0 51 -27 77.5t-74 26.5q-53 0 -94 -35t-65.5 -96t-37 -137.5t-12.5 -165.5q0 -136 27 -242.5t84.5 -171.5t138.5 -65q80 0 144.5 75.5t89.5 252.5z" />
    <glyph glyph-name="Dcaron" unicode="&#x10e;" horiz-adv-x="1507" 
d="M604 1782l-194 375h63l229 -269l230 269h65l-194 -375h-199zM629 1638q131 0 250 -30.5t223 -96.5t180 -161.5t120 -233.5t44 -305q0 -161 -41 -294.5t-113.5 -228.5t-173 -160.5t-218.5 -96.5t-251 -31h-610v49q72 0 114 7t65.5 27.5t30.5 48.5t7 79v1216q0 51 -7 79
t-30.5 48.5t-65.5 27.5t-114 7v49h590zM625 84q143 0 255 54.5t182 151.5t106 225.5t36 281.5q0 172 -45 315.5t-123 239.5t-183 149t-226 53q-69 0 -101 -12q-39 -9 -39 -53v-1317q0 -49 33.5 -68.5t104.5 -19.5z" />
    <glyph glyph-name="dcaron" unicode="&#x10f;" horiz-adv-x="1040" 
d="M868 1659v-1415q0 -41 0.5 -60t4.5 -40.5t11.5 -27.5t22.5 -9t36 3t54 19l19 -47l-303 -115l-43 35v168h-8q-42 -95 -112.5 -149t-166.5 -54q-146 0 -231.5 149t-85.5 394q0 271 102.5 441.5t269.5 170.5q76 0 137 -30t95 -84v383v45.5t-1.5 33.5t-4 26.5t-9 14.5
t-14.5 8.5t-21.5 -3t-30 -8.5t-40.5 -19l-21 43l314 156zM971 1286l2 393h170l-109 -393h-63zM469 111q63 0 111 42t90 119v379q0 159 -49 262t-140 103q-102 0 -153.5 -126.5t-51.5 -330.5q0 -205 48 -326.5t145 -121.5z" />
    <glyph glyph-name="Dcroat" unicode="&#x110;" horiz-adv-x="1507" 
d="M629 1638q131 0 250 -30.5t223 -96.5t180 -161.5t120 -233.5t44 -305q0 -161 -41 -294.5t-113.5 -228.5t-173 -160.5t-218.5 -96.5t-251 -31h-610v49q72 0 114 7t65.5 27.5t30.5 48.5t7 79v616h-174v68h174v532q0 51 -7 79t-30.5 48.5t-65.5 27.5t-114 7v49h590zM625 84
q143 0 255 54.5t182 151.5t106 225.5t36 281.5q0 172 -45 315.5t-123 239.5t-183 149t-226 53q-69 0 -101 -12q-39 -9 -39 -53v-594h367v-68h-367v-655q0 -49 33.5 -68.5t104.5 -19.5z" />
    <glyph glyph-name="dcroat" unicode="&#x111;" horiz-adv-x="1062" 
d="M1022 1307v-56h-154v-1007q0 -41 0.5 -60t4.5 -40.5t11.5 -27.5t22.5 -9t36 3t54 19l19 -47l-303 -115l-43 35v168h-8q-42 -95 -112.5 -149t-166.5 -54q-146 0 -231.5 149t-85.5 394q0 271 102.5 441.5t269.5 170.5q76 0 137 -30t95 -84v243h-326v56h326v84v45.5
t-1.5 33.5t-4 26.5t-9 14.5t-14.5 8.5t-21.5 -3t-30 -8.5t-40.5 -19l-21 43l314 156l26 -29v-352h154zM469 111q63 0 111 42t90 119v379q0 159 -49 262t-140 103q-102 0 -153.5 -126.5t-51.5 -330.5q0 -205 48 -326.5t145 -121.5z" />
    <glyph glyph-name="Emacron" unicode="&#x112;" horiz-adv-x="1269" 
d="M360 1876v102h572v-102h-572zM1112 1638l6 -61l39 -352l-57 -6q-16 142 -41 211t-65 92.5t-117 23.5h-293q-47 0 -72 -25t-25 -71v-563h254q39 0 63 5t44 19t29.5 41.5t14.5 69t5 106.5h47v-555h-47q0 105 -15 156t-45.5 67.5t-95.5 16.5h-254v-604q0 -72 18.5 -94.5
t78.5 -22.5h290q81 0 128.5 28.5t86 107t80.5 237.5l58 -16l-101 -390l-16 -59h-1071v49q72 0 114 7t65.5 27.5t30.5 48.5t7 79v1216q0 51 -7 79t-30.5 48.5t-65.5 27.5t-114 7v49h1073z" />
    <glyph glyph-name="emacron" unicode="&#x113;" horiz-adv-x="884" 
d="M168 1475h571v-103h-571v103zM768 438h49q-31 -240 -128 -355.5t-247 -115.5q-173 0 -274.5 151.5t-101.5 405.5q0 164 45 298.5t134.5 217t207.5 82.5q116 0 197 -69.5t118 -185.5t37 -269h-541v-4q0 -216 66 -345.5t190 -129.5q80 0 147 74t101 245zM453 1036
q-166 0 -187 -354h342q0 354 -155 354z" />
    <glyph glyph-name="Edotaccent" unicode="&#x116;" horiz-adv-x="1269" 
d="M645 1808q-49 0 -85 36t-36 85t36 85t85 36t85 -36t36 -85t-36 -85t-85 -36zM1112 1638l6 -61l39 -352l-57 -6q-16 142 -41 211t-65 92.5t-117 23.5h-293q-47 0 -72 -25t-25 -71v-563h254q39 0 63 5t44 19t29.5 41.5t14.5 69t5 106.5h47v-555h-47q0 105 -15 156
t-45.5 67.5t-95.5 16.5h-254v-604q0 -72 18.5 -94.5t78.5 -22.5h290q81 0 128.5 28.5t86 107t80.5 237.5l58 -16l-101 -390l-16 -59h-1071v49q72 0 114 7t65.5 27.5t30.5 48.5t7 79v1216q0 51 -7 79t-30.5 48.5t-65.5 27.5t-114 7v49h1073z" />
    <glyph glyph-name="edotaccent" unicode="&#x117;" horiz-adv-x="884" 
d="M455 1305q-50 0 -85.5 35.5t-35.5 84.5t36 85t85 36t84.5 -35.5t35.5 -85.5q0 -49 -35.5 -84.5t-84.5 -35.5zM768 438h49q-31 -240 -128 -355.5t-247 -115.5q-173 0 -274.5 151.5t-101.5 405.5q0 164 45 298.5t134.5 217t207.5 82.5q116 0 197 -69.5t118 -185.5t37 -269
h-541v-4q0 -216 66 -345.5t190 -129.5q80 0 147 74t101 245zM453 1036q-166 0 -187 -354h342q0 354 -155 354z" />
    <glyph glyph-name="Eogonek" unicode="&#x118;" horiz-adv-x="1269" 
d="M1217 -354l12 -49q-116 -91 -242 -91q-88 0 -148.5 51.5t-60.5 143.5q0 49 21.5 90t58 71t72 52.5t76 46t59.5 39.5h-1026v49q72 0 114 7t65.5 27.5t30.5 48.5t7 79v1216q0 51 -7 79t-30.5 48.5t-65.5 27.5t-114 7v49h1073l6 -61l39 -352l-57 -6q-16 142 -41 211
t-65 92.5t-117 23.5h-293q-47 0 -72 -25t-25 -71v-563h254q39 0 63 5t44 19t29.5 41.5t14.5 69t5 106.5h47v-555h-47q0 105 -15 156t-45.5 67.5t-95.5 16.5h-254v-604q0 -72 18.5 -94.5t78.5 -22.5h290q81 0 128.5 28.5t86 107t80.5 237.5l58 -16l-101 -390l-16 -59h8
q-21 -25 -61.5 -65t-64 -65t-43 -63.5t-19.5 -78.5q0 -60 30 -94.5t89 -34.5q66 0 168 47z" />
    <glyph glyph-name="eogonek" unicode="&#x119;" horiz-adv-x="884" 
d="M496 -412q66 0 168 47l12 -49q-115 -90 -242 -90q-88 0 -148.5 51.5t-60.5 143.5q0 44 16.5 81t50 67.5t60 49.5t71.5 44.5t60 35.5q-12 -2 -41 -2q-173 0 -274.5 151.5t-101.5 405.5q0 164 45 298.5t134.5 217t207.5 82.5q116 0 197 -69.5t118 -185.5t37 -269h-541v-4
q0 -216 66 -345.5t190 -129.5q80 0 147 74t101 245h49q-48 -367 -252 -448q-21 -25 -61.5 -65t-64 -65.5t-43 -64t-19.5 -78.5q0 -60 30 -94.5t89 -34.5zM453 1036q-166 0 -187 -354h342q0 354 -155 354z" />
    <glyph glyph-name="Ecaron" unicode="&#x11a;" horiz-adv-x="1269" 
d="M547 1782l-195 375h64l229 -269l229 269h66l-195 -375h-198zM1169 465l58 -16l-101 -390l-16 -59h-1071v49q72 0 114 7t65.5 27.5t30.5 48.5t7 79v1216q0 51 -7 79t-30.5 48.5t-65.5 27.5t-114 7v49h1073l6 -61l39 -352l-57 -6q-16 142 -41 211t-65 92.5t-117 23.5h-293
q-47 0 -72 -25t-25 -71v-563h254q39 0 63 5t44 19t29.5 41.5t14.5 69t5 106.5h47v-555h-47q0 105 -15 156t-45.5 67.5t-95.5 16.5h-254v-604q0 -72 18.5 -94.5t78.5 -22.5h290q81 0 128.5 28.5t86 107t80.5 237.5z" />
    <glyph glyph-name="ecaron" unicode="&#x11b;" horiz-adv-x="884" 
d="M356 1278l-194 375h63l230 -269l229 269h66l-195 -375h-199zM768 438h49q-31 -240 -128 -355.5t-247 -115.5q-173 0 -274.5 151.5t-101.5 405.5q0 164 45 298.5t134.5 217t207.5 82.5q116 0 197 -69.5t118 -185.5t37 -269h-541v-4q0 -216 66 -345.5t190 -129.5
q80 0 147 74t101 245zM453 1036q-166 0 -187 -354h342q0 354 -155 354z" />
    <glyph glyph-name="Gbreve" unicode="&#x11e;" horiz-adv-x="1478" 
d="M1014 2124h49q-9 -142 -84 -217.5t-197 -75.5q-124 0 -198.5 75.5t-83.5 217.5h49q10 -74 72.5 -115t160.5 -41t160 41t72 115zM774 -33q-172 0 -307.5 65t-221 180t-129.5 266.5t-44 330.5q0 249 82 443t240.5 306.5t369.5 112.5q214 0 369 -131q23 -22 39.5 -16
t19.5 35l10 94h49l27 -580h-47q-88 508 -432 508q-151 0 -260 -97t-163 -264t-54 -384q0 -221 53.5 -393t164.5 -274.5t265 -102.5q107 0 187 48t124 117v404q0 67 -26.5 99t-107.5 47.5t-249 15.5v49h725v-49q-82 0 -104.5 -30.5t-22.5 -131.5v-393q-90 -128 -234 -201.5
t-323 -73.5z" />
    <glyph glyph-name="gbreve" unicode="&#x11f;" horiz-adv-x="999" 
d="M473 1329q-124 0 -199 75.5t-84 217.5h50q10 -74 72.5 -115t160.5 -41t160 41t72 115h49q-9 -142 -84 -217.5t-197 -75.5zM463 164h237q162 0 236 -50.5t74 -166.5q0 -174 -169 -302t-421 -128q-113 0 -203.5 26t-148.5 83t-58 138q0 157 215 252q-121 48 -121 160
q0 121 158 219q-75 51 -116.5 136t-41.5 190q0 175 104.5 287t278.5 112q117 0 203 -53q119 68 234 68q75 0 75 -62q0 -31 -19 -50t-54 -19q-38 0 -100.5 18t-92.5 14q129 -110 129 -309q0 -176 -103 -285.5t-274 -109.5q-95 0 -170 35q-67 -54 -67 -107q0 -23 6 -38
t26.5 -29.5t65.5 -21.5t117 -7zM461 1042q-79 0 -117.5 -71t-38.5 -178q0 -68 11.5 -132.5t34.5 -122t64 -92t95 -34.5q76 0 115 65.5t39 173.5q0 95 -20.5 181t-68 148t-114.5 62zM469 -360q185 0 305.5 75.5t120.5 167.5q0 58 -44.5 78.5t-156.5 20.5h-254q-90 0 -147 14
q-119 -93 -119 -182q0 -73 72.5 -123.5t222.5 -50.5z" />
    <glyph glyph-name="Gdotaccent" unicode="&#x120;" horiz-adv-x="1478" 
d="M782 1808q-49 0 -84.5 35.5t-35.5 85.5t35.5 85.5t84.5 35.5q50 0 85.5 -36t35.5 -85t-35.5 -85t-85.5 -36zM774 -33q-172 0 -307.5 65t-221 180t-129.5 266.5t-44 330.5q0 249 82 443t240.5 306.5t369.5 112.5q214 0 369 -131q23 -22 39.5 -16t19.5 35l10 94h49l27 -580
h-47q-88 508 -432 508q-151 0 -260 -97t-163 -264t-54 -384q0 -221 53.5 -393t164.5 -274.5t265 -102.5q107 0 187 48t124 117v404q0 67 -26.5 99t-107.5 47.5t-249 15.5v49h725v-49q-82 0 -104.5 -30.5t-22.5 -131.5v-393q-90 -128 -234 -201.5t-323 -73.5z" />
    <glyph glyph-name="gdotaccent" unicode="&#x121;" horiz-adv-x="999" 
d="M473 1307q-50 0 -85.5 35.5t-35.5 84.5t36 85t85 36t85 -36t36 -85t-35.5 -84.5t-85.5 -35.5zM463 164h237q162 0 236 -50.5t74 -166.5q0 -174 -169 -302t-421 -128q-113 0 -203.5 26t-148.5 83t-58 138q0 157 215 252q-121 48 -121 160q0 121 158 219q-75 51 -116.5 136
t-41.5 190q0 175 104.5 287t278.5 112q117 0 203 -53q119 68 234 68q75 0 75 -62q0 -31 -19 -50t-54 -19q-38 0 -100.5 18t-92.5 14q129 -110 129 -309q0 -176 -103 -285.5t-274 -109.5q-95 0 -170 35q-67 -54 -67 -107q0 -23 6 -38t26.5 -29.5t65.5 -21.5t117 -7zM461 1042
q-79 0 -117.5 -71t-38.5 -178q0 -68 11.5 -132.5t34.5 -122t64 -92t95 -34.5q76 0 115 65.5t39 173.5q0 95 -20.5 181t-68 148t-114.5 62zM469 -360q185 0 305.5 75.5t120.5 167.5q0 58 -44.5 78.5t-156.5 20.5h-254q-90 0 -147 14q-119 -93 -119 -182q0 -73 72.5 -123.5
t222.5 -50.5z" />
    <glyph glyph-name="uni0122" unicode="&#x122;" horiz-adv-x="1478" 
d="M774 -33q-172 0 -307.5 65t-221 180t-129.5 266.5t-44 330.5q0 249 82 443t240.5 306.5t369.5 112.5q214 0 369 -131q23 -22 39.5 -16t19.5 35l10 94h49l27 -580h-47q-88 508 -432 508q-151 0 -260 -97t-163 -264t-54 -384q0 -221 53.5 -393t164.5 -274.5t265 -102.5
q107 0 187 48t124 117v404q0 67 -26.5 99t-107.5 47.5t-249 15.5v49h725v-49q-82 0 -104.5 -30.5t-22.5 -131.5v-393q-90 -128 -234 -201.5t-323 -73.5zM754 -334q-30 0 -51 25t-21 67q0 47 31 75t82 28q60 0 96.5 -38.5t36.5 -107.5q0 -78 -53 -139t-158 -88v49
q49 13 90 47.5t41 71.5q0 12 -6 21.5t-17 9.5q-8 0 -29 -10.5t-42 -10.5z" />
    <glyph glyph-name="uni0123" unicode="&#x123;" horiz-adv-x="999" 
d="M487 1329q-60 0 -96.5 38.5t-36.5 107.5q0 78 53 139t158 88v-49q-49 -13 -90 -47.5t-41 -71.5q0 -12 6 -21.5t17 -9.5q8 0 29 10.5t42 10.5q30 0 51 -25t21 -67q0 -47 -31 -75t-82 -28zM463 164h237q162 0 236 -50.5t74 -166.5q0 -174 -169 -302t-421 -128
q-113 0 -203.5 26t-148.5 83t-58 138q0 157 215 252q-121 48 -121 160q0 121 158 219q-75 51 -116.5 136t-41.5 190q0 175 104.5 287t278.5 112q117 0 203 -53q119 68 234 68q75 0 75 -62q0 -31 -19 -50t-54 -19q-38 0 -100.5 18t-92.5 14q129 -110 129 -309
q0 -176 -103 -285.5t-274 -109.5q-95 0 -170 35q-67 -54 -67 -107q0 -23 6 -38t26.5 -29.5t65.5 -21.5t117 -7zM461 1042q-79 0 -117.5 -71t-38.5 -178q0 -68 11.5 -132.5t34.5 -122t64 -92t95 -34.5q76 0 115 65.5t39 173.5q0 95 -20.5 181t-68 148t-114.5 62zM469 -360
q185 0 305.5 75.5t120.5 167.5q0 58 -44.5 78.5t-156.5 20.5h-254q-90 0 -147 14q-119 -93 -119 -182q0 -73 72.5 -123.5t222.5 -50.5z" />
    <glyph glyph-name="Hbar" unicode="&#x126;" horiz-adv-x="1615" 
d="M1575 1638v-49q-97 0 -143.5 -15.5t-61 -47.5t-14.5 -99v-139h205v-65h-205v-1012q0 -67 14.5 -99t61 -47.5t143.5 -15.5v-49h-655v49q90 0 133.5 15.5t57 47.5t13.5 99v610h-632v-610q0 -67 13.5 -99t57 -47.5t133.5 -15.5v-49h-655v49q97 0 143.5 15.5t61 47.5t14.5 99
v1012h-205v65h205v139q0 67 -14.5 99t-61 47.5t-143.5 15.5v49h655v-49q-90 0 -133.5 -15.5t-57 -47.5t-13.5 -99v-139h632v139q0 67 -13.5 99t-57 47.5t-133.5 15.5v49h655zM492 909h632v314h-632v-314z" />
    <glyph glyph-name="hbar" unicode="&#x127;" horiz-adv-x="1116" 
d="M936 825v-614q0 -100 24.5 -131t112.5 -31v-49h-459v49q78 0 101.5 31t23.5 131v604q0 164 -121 164q-62 0 -118.5 -39.5t-118.5 -118.5v-610q0 -100 23.5 -131t103.5 -31v-49h-463v49q88 0 113.5 31t25.5 131l-2 1059h-129v55h129v64q0 93 -8 111q-11 26 -58 8
q-20 -8 -53 -25l-20 43l160 84l151 78l27 -29v-334h344v-55h-344v-363h6q76 106 152.5 160.5t173.5 54.5q109 0 166 -76t57 -221z" />
    <glyph glyph-name="Imacron" unicode="&#x12a;" horiz-adv-x="743" 
d="M86 1876v102h571v-102h-571zM256 211v1216q0 51 -7 79t-30.5 48.5t-65.5 27.5t-114 7v49h668v-49q-97 0 -143.5 -15.5t-61.5 -47.5t-15 -99v-1216q0 -67 15 -99t61.5 -47.5t143.5 -15.5v-49h-668v49q72 0 114 7t65.5 27.5t30.5 48.5t7 79z" />
    <glyph glyph-name="imacron" unicode="&#x12b;" horiz-adv-x="573" 
d="M-12 1372v103h571v-103h-571zM55 0v49q92 0 119 31t27 131v631q0 31 -0.5 46.5t-2 35.5t-4.5 27.5t-9 17t-14.5 10t-21.5 0t-29.5 -6t-39.5 -14.5l-19 48l304 120l32 -30v-885q0 -100 27 -131t119 -31v-49h-488z" />
    <glyph glyph-name="Iogonek" unicode="&#x12e;" horiz-adv-x="743" 
d="M707 1638v-49q-97 0 -143.5 -15.5t-61.5 -47.5t-15 -99v-1216q0 -67 15 -99t61.5 -47.5t143.5 -15.5v-49h-144q-21 -25 -61.5 -65t-64 -65t-43 -63.5t-19.5 -78.5q0 -60 30 -94.5t89 -34.5q66 0 168 47l12 -49q-116 -91 -242 -91q-88 0 -148.5 51.5t-60.5 143.5
q0 49 21.5 90t58 71t72 52.5t76 46t59.5 39.5h-471v49q72 0 114 7t65.5 27.5t30.5 48.5t7 79v1216q0 51 -7 79t-30.5 48.5t-65.5 27.5t-114 7v49h668z" />
    <glyph glyph-name="iogonek" unicode="&#x12f;" horiz-adv-x="573" 
d="M274 1305q-50 0 -85 35.5t-35 84.5q0 50 35.5 85.5t84.5 35.5q50 0 85.5 -36t35.5 -85t-35.5 -84.5t-85.5 -35.5zM549 -354l12 -49q-116 -91 -242 -91q-88 0 -148 51.5t-60 143.5q0 60 35 110.5t77 78t98 60.5t76 50h-342v49q92 0 119 31t27 131v631q0 31 -0.5 46.5
t-2 35.5t-4.5 27.5t-9 17t-14.5 10t-21.5 0t-29.5 -6t-39.5 -14.5l-19 48l304 120l32 -30v-885q0 -100 27 -131t119 -31v-49h-92q-21 -25 -61.5 -65t-64.5 -65t-43.5 -63.5t-19.5 -78.5q0 -60 30 -94.5t89 -34.5q66 0 168 47z" />
    <glyph glyph-name="Idotaccent" unicode="&#x130;" horiz-adv-x="743" 
d="M373 1808q-49 0 -85 36t-36 85t36 85t85 36t85 -36t36 -85t-36 -85t-85 -36zM256 211v1216q0 51 -7 79t-30.5 48.5t-65.5 27.5t-114 7v49h668v-49q-97 0 -143.5 -15.5t-61.5 -47.5t-15 -99v-1216q0 -67 15 -99t61.5 -47.5t143.5 -15.5v-49h-668v49q72 0 114 7t65.5 27.5
t30.5 48.5t7 79z" />
    <glyph glyph-name="dotlessi" unicode="&#x131;" horiz-adv-x="573" 
d="M55 0v49q92 0 119 31t27 131v631q0 31 -0.5 46.5t-2 35.5t-4.5 27.5t-9 17t-14.5 10t-21.5 0t-29.5 -6t-39.5 -14.5l-19 48l304 120l32 -30v-885q0 -100 27 -131t119 -31v-49h-488z" />
    <glyph glyph-name="uni0136" unicode="&#x136;" horiz-adv-x="1538" 
d="M256 211v1216q0 51 -7 79t-30.5 48.5t-65.5 27.5t-114 7v49h668v-49q-97 0 -143.5 -15.5t-61.5 -47.5t-15 -99v-1216q0 -67 15 -99t61.5 -47.5t143.5 -15.5v-49h-668v49q72 0 114 7t65.5 27.5t30.5 48.5t7 79zM748 975l532 -793q55 -81 107 -106t137 -25v-51h-643v49
q140 0 162.5 28t-39.5 120l-459 671l418 535q71 88 71 127q0 33 -35 46t-131 13v49h584v-49q-109 0 -169.5 -20.5t-119.5 -91.5zM745 -334q-30 0 -50.5 25t-20.5 67q0 47 30.5 75t81.5 28q60 0 97 -38.5t37 -107.5q0 -78 -53 -139t-158 -88v49q49 13 90 47.5t41 71.5
q0 12 -6 21.5t-17 9.5q-8 0 -29.5 -10.5t-42.5 -10.5z" />
    <glyph glyph-name="uni0137" unicode="&#x137;" horiz-adv-x="1101" 
d="M385 1659v-1448q0 -101 22.5 -131.5t104.5 -30.5v-49h-471v49q92 0 118.5 31t26.5 131v1184v44.5t-2 33.5t-4.5 26.5t-9 15t-14.5 8t-22 -2.5t-30.5 -9.5t-40.5 -19.5l-20 45l311 152zM610 694l291 -510q47 -83 91 -109t114 -26v-49h-490v49q97 0 105.5 22t-41.5 102
q-4 7 -6 11l-246 434l231 287q58 73 39 102t-114 29v49h465v-49q-81 0 -134.5 -21t-113.5 -91zM532 -334q-30 0 -50.5 25t-20.5 67q0 47 30.5 75t81.5 28q60 0 97 -38.5t37 -107.5q0 -78 -53 -139t-158 -88v49q49 13 90 47.5t41 71.5q0 12 -6 21.5t-17 9.5q-8 0 -29.5 -10.5
t-42.5 -10.5z" />
    <glyph glyph-name="Lacute" unicode="&#x139;" horiz-adv-x="1239" 
d="M453 1780h-66l158 374h190zM707 1638v-49q-97 0 -143.5 -15.5t-61.5 -47.5t-15 -99v-1200q0 -85 24.5 -110t102.5 -25h248q81 0 128 29.5t85 112t76 249.5l57 -14l-94 -412l-12 -57h-1063v49q72 0 114 7t65.5 27.5t30.5 48.5t7 79v1216q0 51 -7 79t-30.5 48.5t-65.5 27.5
t-114 7v49h668z" />
    <glyph glyph-name="lacute" unicode="&#x13a;" horiz-adv-x="563" 
d="M266 1798h-63l155 375h193zM385 1659v-1448q0 -101 25.5 -131.5t117.5 -30.5v-49h-487v49q92 0 118.5 31t26.5 131v1184v44.5t-2 33.5t-4.5 26.5t-9 15t-14.5 8t-22 -2.5t-30.5 -9.5t-40.5 -19.5l-20 45l311 152z" />
    <glyph glyph-name="uni013B" unicode="&#x13b;" horiz-adv-x="1239" 
d="M707 1638v-49q-97 0 -143.5 -15.5t-61.5 -47.5t-15 -99v-1200q0 -85 24.5 -110t102.5 -25h248q81 0 128 29.5t85 112t76 249.5l57 -14l-94 -412l-12 -57h-1063v49q72 0 114 7t65.5 27.5t30.5 48.5t7 79v1216q0 51 -7 79t-30.5 48.5t-65.5 27.5t-114 7v49h668zM614 -334
q-30 0 -50.5 25t-20.5 67q0 47 30.5 75t81.5 28q60 0 96.5 -38.5t36.5 -107.5q0 -78 -52.5 -139.5t-157.5 -87.5v49q49 13 90 47.5t41 71.5q0 12 -6 21.5t-17 9.5q-8 0 -29.5 -10.5t-42.5 -10.5z" />
    <glyph glyph-name="uni013C" unicode="&#x13c;" horiz-adv-x="563" 
d="M385 1659v-1448q0 -101 25.5 -131.5t117.5 -30.5v-49h-487v49q92 0 118.5 31t26.5 131v1184v44.5t-2 33.5t-4.5 26.5t-9 15t-14.5 8t-22 -2.5t-30.5 -9.5t-40.5 -19.5l-20 45l311 152zM227 -334q-30 0 -50.5 25t-20.5 67q0 47 30.5 75t81.5 28q60 0 96.5 -38.5
t36.5 -107.5q0 -78 -53 -139t-158 -88v49q49 13 90.5 47.5t41.5 71.5q0 12 -6 21.5t-17 9.5q-8 0 -29.5 -10.5t-42.5 -10.5z" />
    <glyph glyph-name="Lcaron" unicode="&#x13d;" horiz-adv-x="1239" 
d="M948 1288h-63l2 393h170zM707 1638v-49q-97 0 -143.5 -15.5t-61.5 -47.5t-15 -99v-1200q0 -85 24.5 -110t102.5 -25h248q81 0 128 29.5t85 112t76 249.5l57 -14l-94 -412l-12 -57h-1063v49q72 0 114 7t65.5 27.5t30.5 48.5t7 79v1216q0 51 -7 79t-30.5 48.5t-65.5 27.5
t-114 7v49h668z" />
    <glyph glyph-name="lcaron" unicode="&#x13e;" horiz-adv-x="563" 
d="M385 1659v-1448q0 -101 25.5 -131.5t117.5 -30.5v-49h-487v49q92 0 118.5 31t26.5 131v1184v44.5t-2 33.5t-4.5 26.5t-9 15t-14.5 8t-22 -2.5t-30.5 -9.5t-40.5 -19.5l-20 45l311 152zM549 1286h-64l2 393h170z" />
    <glyph glyph-name="Lslash" unicode="&#x141;" horiz-adv-x="1239" 
d="M1151 483l57 -14l-94 -412l-12 -57h-1063v49q72 0 114 7t65.5 27.5t30.5 48.5t7 79v461l-182 -90l-31 59l213 104v682q0 51 -7 79t-30.5 48.5t-65.5 27.5t-114 7v49h668v-49q-97 0 -143.5 -15.5t-61.5 -47.5t-15 -99v-569l502 246l31 -60l-533 -260v-557q0 -85 24.5 -110
t102.5 -25h248q81 0 128 29.5t85 112t76 249.5z" />
    <glyph glyph-name="lslash" unicode="&#x142;" horiz-adv-x="571" 
d="M385 874v-663q0 -101 25.5 -131.5t117.5 -30.5v-49h-487v49q92 0 118.5 31t26.5 131v549l-166 -96l-28 53l194 112v566v44.5t-2 33.5t-4.5 26.5t-9 15t-14.5 8t-22 -2.5t-30.5 -9.5t-40.5 -19.5l-20 45l311 152l31 -29v-715l158 90l28 -51z" />
    <glyph glyph-name="Nacute" unicode="&#x143;" horiz-adv-x="1533" 
d="M860 2154h193l-285 -374h-63zM1511 1638v-49q-96 0 -142 -15.5t-61.5 -47.5t-15.5 -99v-1447h-114l-836 1337v-1106q0 -67 15.5 -99t63.5 -47.5t148 -15.5v-49h-530v49q72 0 114 7t65.5 27.5t30.5 48.5t7 79v1243l-2 4q-50 80 -95.5 105.5t-117.5 25.5v49h375l790 -1280
v1069q0 51 -7 79t-30.5 48.5t-65.5 27.5t-114 7v49h522z" />
    <glyph glyph-name="nacute" unicode="&#x144;" horiz-adv-x="1124" 
d="M586 1276h-64l156 375h192zM57 0v49q88 0 114 31t26 131v631v47t-2 35t-4.5 28t-9 17t-14.5 10t-22 -0.5t-30.5 -6.5t-40.5 -16l-21 48l164 65l139 57l39 -30v-189h6q77 106 152 160.5t172 54.5q109 0 167 -76.5t58 -220.5v-614q0 -100 24.5 -131t110.5 -31v-49h-458v49
q80 0 102.5 30.5t22.5 131.5v602q0 166 -121 166q-113 0 -236 -158v-610q0 -101 22.5 -131.5t102.5 -30.5v-49h-463z" />
    <glyph glyph-name="uni0145" unicode="&#x145;" horiz-adv-x="1533" 
d="M1511 1638v-49q-96 0 -142 -15.5t-61.5 -47.5t-15.5 -99v-1447h-114l-836 1337v-1106q0 -67 15.5 -99t63.5 -47.5t148 -15.5v-49h-530v49q72 0 114 7t65.5 27.5t30.5 48.5t7 79v1243l-2 4q-50 80 -95.5 105.5t-117.5 25.5v49h375l790 -1280v1069q0 51 -7 79t-30.5 48.5
t-65.5 27.5t-114 7v49h522zM809 -139q60 0 96.5 -38.5t36.5 -107.5q0 -78 -53 -139t-158 -88v49q49 13 90 47.5t41 71.5q0 31 -22 31q-8 0 -29.5 -10.5t-42.5 -10.5q-30 0 -51 25t-21 67q0 47 31 75t82 28z" />
    <glyph glyph-name="uni0146" unicode="&#x146;" horiz-adv-x="1124" 
d="M57 0v49q88 0 114 31t26 131v631v47t-2 35t-4.5 28t-9 17t-14.5 10t-22 -0.5t-30.5 -6.5t-40.5 -16l-21 48l164 65l139 57l39 -30v-189h6q77 106 152 160.5t172 54.5q109 0 167 -76.5t58 -220.5v-614q0 -100 24.5 -131t110.5 -31v-49h-458v49q80 0 102.5 30.5t22.5 131.5
v602q0 166 -121 166q-113 0 -236 -158v-610q0 -101 22.5 -131.5t102.5 -30.5v-49h-463zM516 -334q-30 0 -51 25t-21 67q0 47 31 75t82 28q60 0 96.5 -38.5t36.5 -107.5q0 -78 -53 -139t-158 -88v49q49 13 90 47.5t41 71.5q0 31 -22 31q-8 0 -29.5 -10.5t-42.5 -10.5z" />
    <glyph glyph-name="Ncaron" unicode="&#x147;" horiz-adv-x="1533" 
d="M676 1782l-195 375h64l229 -269l230 269h65l-195 -375h-198zM1511 1638v-49q-96 0 -142 -15.5t-61.5 -47.5t-15.5 -99v-1447h-114l-836 1337v-1106q0 -67 15.5 -99t63.5 -47.5t148 -15.5v-49h-530v49q72 0 114 7t65.5 27.5t30.5 48.5t7 79v1243l-2 4q-50 80 -95.5 105.5
t-117.5 25.5v49h375l790 -1280v1069q0 51 -7 79t-30.5 48.5t-65.5 27.5t-114 7v49h522z" />
    <glyph glyph-name="ncaron" unicode="&#x148;" horiz-adv-x="1124" 
d="M494 1278l-195 375h63l230 -269l229 269h66l-195 -375h-198zM950 825v-614q0 -100 24.5 -131t110.5 -31v-49h-458v49q80 0 102.5 30.5t22.5 131.5v602q0 166 -121 166q-113 0 -236 -158v-610q0 -101 22.5 -131.5t102.5 -30.5v-49h-463v49q88 0 114 31t26 131v631v47
t-2 35t-4.5 28t-9 17t-14.5 10t-22 -0.5t-30.5 -6.5t-40.5 -16l-21 48l164 65l139 57l39 -30v-189h6q77 106 152 160.5t172 54.5q109 0 167 -76.5t58 -220.5z" />
    <glyph glyph-name="Eng" unicode="&#x14a;" horiz-adv-x="1533" 
d="M1004 -479q-123 0 -194 57.5t-71 138.5q0 50 31 77.5t78 27.5q46 0 76 -27t30 -80q0 -110 95 -110q44 0 76 27t49.5 75.5t25.5 105.5t8 126v59l-65 41l-801 1282v-1110q0 -67 15.5 -99t63.5 -47.5t148 -15.5v-49h-530v49q72 0 114 7t65.5 27.5t30.5 48.5t7 79v1245l-2 4
q-50 79 -95.5 104t-117.5 25v49h375l790 -1273v1062q0 51 -7 79t-30.5 48.5t-65.5 27.5t-114 7v49h522v-49q-96 0 -142 -15.5t-61.5 -47.5t-15.5 -99v-1476q0 -75 -8 -136.5t-28 -117.5t-51.5 -93.5t-82.5 -60t-118 -22.5z" />
    <glyph glyph-name="eng" unicode="&#x14b;" horiz-adv-x="1075" 
d="M729 1122q109 0 167 -76.5t58 -220.5v-907q0 -196 -76.5 -298.5t-209.5 -102.5q-113 0 -183.5 47.5t-70.5 118.5q0 44 26 70t74 26q46 0 70.5 -23.5t36.5 -77.5q10 -44 22.5 -64t36.5 -20q46 0 61 71t15 224v926q0 83 -31.5 125.5t-89.5 42.5q-112 0 -238 -162v-610
q0 -100 23.5 -131t101.5 -31v-49h-461v49q88 0 113 31t25 131v620v6v44t-1.5 32t-4.5 25t-9 14.5t-14 7.5t-21.5 -3.5t-29.5 -9.5t-39 -19l-23 45l310 153l30 -28v-191h6q76 106 152.5 160.5t173.5 54.5z" />
    <glyph glyph-name="Omacron" unicode="&#x14c;" horiz-adv-x="1417" 
d="M426 1876v102h571v-102h-571zM713 -33q-189 0 -336.5 113.5t-226 307t-78.5 431.5t78.5 431t224.5 306t332 113q189 0 336.5 -114t226 -307.5t78.5 -430.5q0 -239 -78 -432t-224 -305.5t-333 -112.5zM756 55q112 0 194.5 85t122 216.5t39.5 288.5q0 166 -29.5 329
t-83.5 300t-141.5 222t-193.5 85q-111 0 -194 -85t-123 -217t-40 -286q0 -133 18 -265t55 -253.5t89 -215t126.5 -149t160.5 -55.5z" />
    <glyph glyph-name="omacron" unicode="&#x14d;" horiz-adv-x="1009" 
d="M211 1372v103h571v-103h-571zM506 -33q-198 0 -319 159t-121 413q0 166 51 297t152 208.5t237 77.5q197 0 318.5 -159t121.5 -412q0 -166 -51.5 -297.5t-152.5 -209t-236 -77.5zM537 57q52 0 92.5 32.5t63.5 87t34.5 119t11.5 134.5q0 108 -16.5 212.5t-47.5 193
t-83 142.5t-117 54q-69 0 -117 -57t-68 -138.5t-20 -177.5q0 -108 17 -212.5t48.5 -192.5t84 -142.5t117.5 -54.5z" />
    <glyph glyph-name="Ohungarumlaut" unicode="&#x150;" horiz-adv-x="1417" 
d="M551 1780h-49l108 374h148zM764 1780h-49l125 374h145zM713 -33q-189 0 -336.5 113.5t-226 307t-78.5 431.5t78.5 431t224.5 306t332 113q189 0 336.5 -114t226 -307.5t78.5 -430.5q0 -239 -78 -432t-224 -305.5t-333 -112.5zM756 55q112 0 194.5 85t122 216.5
t39.5 288.5q0 166 -29.5 329t-83.5 300t-141.5 222t-193.5 85q-111 0 -194 -85t-123 -217t-40 -286q0 -133 18 -265t55 -253.5t89 -215t126.5 -149t160.5 -55.5z" />
    <glyph glyph-name="ohungarumlaut" unicode="&#x151;" horiz-adv-x="1009" 
d="M334 1276h-49l108 375h148zM547 1276h-49l125 375h145zM506 -33q-198 0 -319 159t-121 413q0 166 51 297t152 208.5t237 77.5q197 0 318.5 -159t121.5 -412q0 -166 -51.5 -297.5t-152.5 -209t-236 -77.5zM537 57q52 0 92.5 32.5t63.5 87t34.5 119t11.5 134.5
q0 108 -16.5 212.5t-47.5 193t-83 142.5t-117 54q-69 0 -117 -57t-68 -138.5t-20 -177.5q0 -108 17 -212.5t48.5 -192.5t84 -142.5t117.5 -54.5z" />
    <glyph glyph-name="OE" unicode="&#x152;" horiz-adv-x="1947" 
d="M1845 465l60 -16l-101 -390l-16 -59h-707q-59 0 -164.5 -10t-189.5 -10q-204 0 -354.5 112t-225.5 300t-75 427t75 427.5t225.5 300.5t354.5 112q84 0 189.5 -10.5t164.5 -10.5h703l6 -63l35 -330l-56 -6q-15 132 -40 197t-65.5 87.5t-117.5 22.5h-293q-94 0 -94 -94
v-565h254q48 0 75 8t47 33.5t27 72.5t7 127h47v-555h-47q0 79 -7 125.5t-27 72.5t-47 34t-75 8h-254v-604q0 -72 18 -94.5t78 -22.5h297q81 0 128.5 28.5t85.5 107t79 237.5zM713 63q91 0 153 40t62 106v1243q0 127 -207 127q-83 0 -150 -39.5t-113 -109t-77 -166t-45 -208
t-14 -237.5q0 -223 42.5 -391t131.5 -266.5t217 -98.5z" />
    <glyph glyph-name="oe" unicode="&#x153;" horiz-adv-x="1687" 
d="M1571 438h47q-30 -240 -127 -355.5t-248 -115.5q-123 0 -212.5 79.5t-131.5 221.5q-51 -139 -152.5 -220t-240.5 -81q-198 0 -319 159t-121 413q0 166 51 297t152 208.5t237 77.5q141 0 246 -84.5t155 -232.5q46 146 135.5 231.5t212.5 85.5q116 0 197 -69.5
t118.5 -185.5t37.5 -269h-543v-4q0 -215 66.5 -345t189.5 -130q80 0 148 74t102 245zM1253 1036q-165 0 -186 -354h344q0 354 -158 354zM537 57q52 0 92.5 32.5t63.5 87t34.5 119t11.5 134.5q0 108 -16.5 212.5t-47.5 193t-83 142.5t-117 54q-69 0 -117 -57t-68 -138.5
t-20 -177.5q0 -108 17 -212.5t48.5 -192.5t84 -142.5t117.5 -54.5z" />
    <glyph glyph-name="Racute" unicode="&#x154;" horiz-adv-x="1376" 
d="M717 2154h192l-284 -374h-64zM979 563l174 -340q22 -43 36 -66.5t34.5 -48t43 -35t55 -17.5t77.5 -7v-49h-101q-73 0 -118 2.5t-86 12.5t-64 23.5t-48 43t-43 62t-44 89.5l-268 543h-31q-41 0 -111 4v-569q0 -67 15.5 -99t62 -47.5t142.5 -15.5v-49h-666v49q72 0 114 7
t65.5 27.5t30.5 48.5t7 79v1216q0 51 -7 79t-30.5 48.5t-65.5 27.5t-114 7v49h631q269 0 399.5 -108.5t130.5 -308.5q0 -100 -33 -177.5t-93 -128.5t-135 -82t-169 -45q66 -20 112 -67t97 -158zM485 1479v-619q55 -6 117 -6q81 0 145.5 20.5t114 62.5t76.5 112.5t27 164.5
q0 166 -81.5 253t-232.5 87q-68 0 -129 -20q-37 -14 -37 -55z" />
    <glyph glyph-name="racute" unicode="&#x155;" horiz-adv-x="808" 
d="M537 1651h192l-285 -375h-63zM670 1122q54 0 82 -28t28 -80q0 -58 -29.5 -94.5t-70.5 -36.5q-26 0 -41.5 9.5t-38.5 33.5q-22 22 -32.5 28.5t-28.5 6.5q-36 0 -75 -50.5t-71 -142.5v-545q0 -73 16 -107.5t61 -49.5t140 -15v-51h-553v49q88 0 114 31t26 131v631v47t-2 35
t-4.5 28t-9 17t-14.5 10t-22 -0.5t-30.5 -6.5t-40.5 -16l-21 48l164 65l139 57l37 -30v-197h6q48 92 120 157.5t151 65.5z" />
    <glyph glyph-name="uni0156" unicode="&#x156;" horiz-adv-x="1376" 
d="M979 563l174 -340q22 -43 36 -66.5t34.5 -48t43 -35t55 -17.5t77.5 -7v-49h-101q-73 0 -118 2.5t-86 12.5t-64 23.5t-48 43t-43 62t-44 89.5l-268 543h-31q-41 0 -111 4v-569q0 -67 15.5 -99t62 -47.5t142.5 -15.5v-49h-666v49q72 0 114 7t65.5 27.5t30.5 48.5t7 79v1216
q0 51 -7 79t-30.5 48.5t-65.5 27.5t-114 7v49h631q269 0 399.5 -108.5t130.5 -308.5q0 -100 -33 -177.5t-93 -128.5t-135 -82t-169 -45q66 -20 112 -67t97 -158zM485 1479v-619q55 -6 117 -6q81 0 145.5 20.5t114 62.5t76.5 112.5t27 164.5q0 166 -81.5 253t-232.5 87
q-68 0 -129 -20q-37 -14 -37 -55zM821 -139q60 0 96.5 -38.5t36.5 -107.5q0 -78 -53 -139t-158 -88v49q49 13 90 47.5t41 71.5q0 31 -22 31q-8 0 -29.5 -10.5t-42.5 -10.5q-30 0 -50.5 25t-20.5 67q0 47 30.5 75t81.5 28z" />
    <glyph glyph-name="uni0157" unicode="&#x157;" horiz-adv-x="808" 
d="M670 1122q54 0 82 -28t28 -80q0 -58 -29.5 -94.5t-70.5 -36.5q-26 0 -41.5 9.5t-38.5 33.5q-22 22 -32.5 28.5t-28.5 6.5q-36 0 -75 -50.5t-71 -142.5v-545q0 -73 16 -107.5t61 -49.5t140 -15v-51h-553v49q88 0 114 31t26 131v631v47t-2 35t-4.5 28t-9 17t-14.5 10
t-22 -0.5t-30.5 -6.5t-40.5 -16l-21 48l164 65l139 57l37 -30v-197h6q48 92 120 157.5t151 65.5zM305 -139q60 0 96.5 -38.5t36.5 -107.5q0 -78 -53 -139t-158 -88v49q49 13 90 47.5t41 71.5q0 31 -22 31q-8 0 -29.5 -10.5t-42.5 -10.5q-30 0 -50.5 25t-20.5 67
q0 47 30.5 75t81.5 28z" />
    <glyph glyph-name="Rcaron" unicode="&#x158;" horiz-adv-x="1376" 
d="M532 1782l-194 375h63l230 -269l229 269h66l-195 -375h-199zM979 563l174 -340q22 -43 36 -66.5t34.5 -48t43 -35t55 -17.5t77.5 -7v-49h-101q-73 0 -118 2.5t-86 12.5t-64 23.5t-48 43t-43 62t-44 89.5l-268 543h-31q-41 0 -111 4v-569q0 -67 15.5 -99t62 -47.5
t142.5 -15.5v-49h-666v49q72 0 114 7t65.5 27.5t30.5 48.5t7 79v1216q0 51 -7 79t-30.5 48.5t-65.5 27.5t-114 7v49h631q269 0 399.5 -108.5t130.5 -308.5q0 -100 -33 -177.5t-93 -128.5t-135 -82t-169 -45q66 -20 112 -67t97 -158zM485 1479v-619q55 -6 117 -6
q81 0 145.5 20.5t114 62.5t76.5 112.5t27 164.5q0 166 -81.5 253t-232.5 87q-68 0 -129 -20q-37 -14 -37 -55z" />
    <glyph glyph-name="rcaron" unicode="&#x159;" horiz-adv-x="808" 
d="M354 1278l-194 375h63l230 -269l229 269h66l-195 -375h-199zM670 1122q54 0 82 -28t28 -80q0 -58 -29.5 -94.5t-70.5 -36.5q-26 0 -41.5 9.5t-38.5 33.5q-22 22 -32.5 28.5t-28.5 6.5q-36 0 -75 -50.5t-71 -142.5v-545q0 -73 16 -107.5t61 -49.5t140 -15v-51h-553v49
q88 0 114 31t26 131v631v47t-2 35t-4.5 28t-9 17t-14.5 10t-22 -0.5t-30.5 -6.5t-40.5 -16l-21 48l164 65l139 57l37 -30v-197h6q48 92 120 157.5t151 65.5z" />
    <glyph glyph-name="Sacute" unicode="&#x15a;" horiz-adv-x="1056" 
d="M522 1780h-63l155 374h193zM549 -33q-90 0 -174 37t-148 100q-53 53 -65 -16l-19 -94h-51l4 612h54q7 -149 57.5 -274.5t139.5 -202t198 -76.5q83 0 142.5 40.5t84.5 98.5t25 125q0 55 -17.5 106.5t-43.5 91.5t-71 85.5t-83.5 77t-98.5 76.5q-48 37 -68 52t-61.5 49
t-60 52t-51 50.5t-47.5 55.5t-36 57t-30 64.5t-16 68t-7 77.5q0 179 115 285t293 106q162 0 272 -104q26 -23 46 -17.5t24 39.5l10 62h49l25 -539h-51q-8 96 -35 180.5t-71 151t-110 105t-145 38.5q-109 0 -171 -68.5t-62 -168.5q0 -47 15 -90.5t38 -78t66.5 -77t83 -74.5
t106.5 -82q75 -56 122.5 -94.5t102 -94t85 -106t51 -117t20.5 -139.5q0 -192 -122.5 -311t-313.5 -119z" />
    <glyph glyph-name="sacute" unicode="&#x15b;" horiz-adv-x="765" 
d="M371 1278h-64l156 375h192zM418 -33q-120 0 -223 74q-38 28 -56 -10l-16 -41h-45l-15 442h46q23 -179 101.5 -279t186.5 -100q71 0 109.5 45.5t38.5 124.5q0 35 -8 60t-39.5 60.5t-68 66.5t-118.5 98q-132 104 -182.5 175.5t-50.5 158.5q0 126 80.5 203t203.5 77
q111 0 193 -69q21 -18 34.5 -14t18.5 24l13 45h47l8 -358h-45q-20 125 -86.5 205.5t-165.5 80.5q-61 0 -98 -37.5t-37 -99.5q0 -42 22 -79t56.5 -68.5t117.5 -96.5q77 -60 121.5 -101t82.5 -88.5t53.5 -94.5t15.5 -105q0 -145 -84 -222t-211 -77z" />
    <glyph glyph-name="Scedilla" unicode="&#x15e;" horiz-adv-x="1056" 
d="M985 397q0 -183 -112 -300t-289 -128l-27 -59q231 -19 231 -182q0 -89 -72.5 -146t-178.5 -74.5t-224 -1.5l13 50q148 -12 230.5 28t82.5 133q0 139 -205 142l64 112q-152 18 -271 133q-53 53 -65 -16l-19 -94h-51l4 612h54q7 -149 57.5 -274.5t139.5 -202t198 -76.5
q83 0 142.5 40.5t84.5 98.5t25 125q0 55 -17.5 106.5t-43.5 91.5t-71 85.5t-83.5 77t-98.5 76.5q-48 37 -68 52t-61.5 49t-60 52t-51 50.5t-47.5 55.5t-36 57t-30 64.5t-16 68t-7 77.5q0 179 115 285t293 106q162 0 272 -104q26 -23 46 -17.5t24 39.5l10 62h49l25 -539h-51
q-8 96 -35 180.5t-71 151t-110 105t-145 38.5q-109 0 -171 -68.5t-62 -168.5q0 -47 15 -90.5t38 -78t66.5 -77t83 -74.5t106.5 -82q75 -56 122.5 -94.5t102 -94t85 -106t51 -117t20.5 -139.5z" />
    <glyph glyph-name="scedilla" unicode="&#x15f;" horiz-adv-x="765" 
d="M434 -33l-26 -57q231 -19 231 -182q0 -89 -72.5 -146t-178.5 -74.5t-224 -1.5l12 50q148 -12 230.5 28t82.5 133q0 139 -204 142l65 114q-84 14 -155 68q-38 28 -56 -10l-16 -41h-45l-15 442h46q23 -179 101.5 -279t186.5 -100q71 0 109.5 45.5t38.5 124.5q0 35 -8 60
t-39.5 60.5t-68 66.5t-118.5 98q-132 104 -182.5 175.5t-50.5 158.5q0 126 80.5 203t203.5 77q111 0 193 -69q21 -18 34.5 -14t18.5 24l13 45h47l8 -358h-45q-20 125 -86.5 205.5t-165.5 80.5q-61 0 -98 -37.5t-37 -99.5q0 -42 22 -79t56.5 -68.5t117.5 -96.5
q77 -60 121.5 -101t82.5 -88.5t53.5 -94.5t15.5 -105q0 -140 -79 -217t-200 -82z" />
    <glyph glyph-name="Scaron" unicode="&#x160;" horiz-adv-x="1056" 
d="M432 1782l-194 375h63l229 -269l230 269h65l-194 -375h-199zM604 948q75 -56 122.5 -94.5t102 -94t85 -106t51 -117t20.5 -139.5q0 -192 -122.5 -311t-313.5 -119q-90 0 -174 37t-148 100q-53 53 -65 -16l-19 -94h-51l4 612h54q7 -149 57.5 -274.5t139.5 -202t198 -76.5
q83 0 142.5 40.5t84.5 98.5t25 125q0 55 -17.5 106.5t-43.5 91.5t-71 85.5t-83.5 77t-98.5 76.5q-48 37 -68 52t-61.5 49t-60 52t-51 50.5t-47.5 55.5t-36 57t-30 64.5t-16 68t-7 77.5q0 179 115 285t293 106q162 0 272 -104q26 -23 46 -17.5t24 39.5l10 62h49l25 -539h-51
q-8 96 -35 180.5t-71 151t-110 105t-145 38.5q-109 0 -171 -68.5t-62 -168.5q0 -47 15 -90.5t38 -78t66.5 -77t83 -74.5t106.5 -82z" />
    <glyph glyph-name="scaron" unicode="&#x161;" horiz-adv-x="765" 
d="M281 1280l-195 375h64l229 -269l229 269h66l-195 -375h-198zM440 655q77 -60 121.5 -101t82.5 -88.5t53.5 -94.5t15.5 -105q0 -145 -84 -222t-211 -77q-120 0 -223 74q-38 28 -56 -10l-16 -41h-45l-15 442h46q23 -179 101.5 -279t186.5 -100q71 0 109.5 45.5t38.5 124.5
q0 35 -8 60t-39.5 60.5t-68 66.5t-118.5 98q-132 104 -182.5 175.5t-50.5 158.5q0 126 80.5 203t203.5 77q111 0 193 -69q21 -18 34.5 -14t18.5 24l13 45h47l8 -358h-45q-20 125 -86.5 205.5t-165.5 80.5q-61 0 -98 -37.5t-37 -99.5q0 -42 22 -79t56.5 -68.5t117.5 -96.5z
" />
    <glyph glyph-name="uni0162" unicode="&#x162;" horiz-adv-x="1280" 
d="M1204 1638l4 -61l27 -354l-57 -4q-7 87 -18 143t-26 94t-41 57t-57 26t-80 7h-133q-67 0 -67 -69v-1266q0 -51 7 -79t30.5 -48.5t65.5 -27.5t114 -7v-49h-260l-43 -90q233 -19 233 -182q0 -89 -73 -146t-179.5 -74.5t-224.5 -1.5l12 50q149 -12 231.5 28t82.5 133
q0 139 -205 142l82 141h-324v49q97 0 143.5 15.5t61 47.5t14.5 99v1266q0 69 -69 69h-133q-80 0 -121 -23t-65 -92.5t-34 -211.5l-59 4l27 354l6 61h1128z" />
    <glyph glyph-name="uni0163" unicode="&#x163;" horiz-adv-x="706" 
d="M434 -33l-26 -57q231 -19 231 -182q0 -89 -72.5 -146t-178.5 -74.5t-224 -1.5l12 50q148 -12 230.5 28t82.5 133q0 139 -204 142l65 114q-93 18 -138.5 106.5t-45.5 270.5v651h-143v76q112 3 180.5 82.5t83.5 224.5h73v-299h246v-84h-241v-598q0 -74 4.5 -125t16.5 -93.5
t35 -63.5t58 -21q137 0 137 359h58q0 -240 -54.5 -361t-185.5 -131z" />
    <glyph glyph-name="Tcaron" unicode="&#x164;" horiz-adv-x="1280" 
d="M537 1782l-195 375h64l229 -269l229 269h66l-195 -375h-198zM1204 1638l4 -61l27 -354l-57 -4q-7 87 -18 143t-26 94t-41 57t-57 26t-80 7h-133q-67 0 -67 -69v-1266q0 -51 7 -79t30.5 -48.5t65.5 -27.5t114 -7v-49h-668v49q97 0 143.5 15.5t61 47.5t14.5 99v1266
q0 69 -69 69h-133q-80 0 -121 -23t-65 -92.5t-34 -211.5l-59 4l27 354l6 61h1128z" />
    <glyph glyph-name="tcaron" unicode="&#x165;" horiz-adv-x="706" 
d="M551 1221h-64l2 393h170zM616 459h58q0 -250 -59.5 -371t-204.5 -121q-125 0 -184.5 87t-59.5 296v651h-143v76q112 3 180.5 82.5t83.5 224.5h73v-299h246v-84h-241v-598q0 -74 4.5 -125t16.5 -93.5t35 -63.5t58 -21q137 0 137 359z" />
    <glyph glyph-name="Tbar" unicode="&#x166;" horiz-adv-x="1280" 
d="M1204 1638l4 -61l27 -354l-57 -4q-7 87 -18 143t-26 94t-41 57t-57 26t-80 7h-133q-67 0 -67 -69v-633h323v-68h-323v-565q0 -51 7 -79t30.5 -48.5t65.5 -27.5t114 -7v-49h-668v49q97 0 143.5 15.5t61 47.5t14.5 99v565h-325v68h325v633q0 69 -69 69h-133q-80 0 -121 -23
t-65 -92.5t-34 -211.5l-59 4l27 354l6 61h1128z" />
    <glyph glyph-name="tbar" unicode="&#x167;" horiz-adv-x="706" 
d="M616 459h58q0 -250 -59.5 -371t-204.5 -121q-125 0 -184.5 87t-59.5 296v352h-148v74h148v225h-143v76q112 3 180.5 82.5t83.5 224.5h73v-299h246v-84h-241v-225h235v-74h-235v-299q0 -74 4.5 -125t16.5 -93.5t35 -63.5t58 -21q137 0 137 359z" />
    <glyph glyph-name="Umacron" unicode="&#x16a;" horiz-adv-x="1509" 
d="M524 1876v102h572v-102h-572zM770 -33q-116 0 -208 29t-154 80t-103 124.5t-59.5 159t-18.5 187.5v880q0 51 -7 79t-30.5 48.5t-65.5 27.5t-114 7v49h668v-49q-97 0 -143.5 -15.5t-61 -47.5t-14.5 -99v-880q0 -244 91 -355.5t275 -111.5q175 0 271 117.5t96 355.5v874
q0 67 -15.5 99t-61.5 47.5t-142 15.5v49h528v-49q-96 0 -142 -15.5t-61.5 -47.5t-15.5 -99v-874q0 -95 -14.5 -177t-50.5 -159t-93 -131t-147 -86.5t-207 -32.5z" />
    <glyph glyph-name="umacron" unicode="&#x16b;" horiz-adv-x="1073" 
d="M238 1372v103h571v-103h-571zM752 -33l-41 35l-4 174l-7 2q-133 -211 -313 -211q-105 0 -164 79.5t-59 215.5v578q0 38 -1 58t-5.5 40t-12 26.5t-23 9.5t-36 -1.5t-53.5 -14.5l-15 46l316 102l28 -27v-796q0 -179 115 -179q111 0 230 158v578q0 39 -1 58.5t-5.5 39.5
t-12 26t-23 9.5t-36.5 -1t-54 -14.5l-14 46l318 102l26 -27v-835q0 -40 1 -60t5 -41t11.5 -27t23 -9t36.5 2.5t54 17.5l19 -47z" />
    <glyph glyph-name="Uring" unicode="&#x16e;" horiz-adv-x="1509" 
d="M811 1794q-91 0 -151 58.5t-60 146.5q0 86 60 143.5t151 57.5q89 0 148 -57.5t59 -143.5q0 -88 -59 -146.5t-148 -58.5zM811 1868q56 0 93.5 37t37.5 94q0 55 -37.5 92t-93.5 37q-57 0 -95 -37t-38 -92q0 -57 38 -94t95 -37zM770 -33q-116 0 -208 29t-154 80t-103 124.5
t-59.5 159t-18.5 187.5v880q0 51 -7 79t-30.5 48.5t-65.5 27.5t-114 7v49h668v-49q-97 0 -143.5 -15.5t-61 -47.5t-14.5 -99v-880q0 -244 91 -355.5t275 -111.5q175 0 271 117.5t96 355.5v874q0 67 -15.5 99t-61.5 47.5t-142 15.5v49h528v-49q-96 0 -142 -15.5t-61.5 -47.5
t-15.5 -99v-874q0 -95 -14.5 -177t-50.5 -159t-93 -131t-147 -86.5t-207 -32.5z" />
    <glyph glyph-name="uring" unicode="&#x16f;" horiz-adv-x="1073" 
d="M524 1290q-91 0 -151 58.5t-60 146.5q0 86 60 143.5t151 57.5q89 0 148 -57.5t59 -143.5q0 -88 -59 -146.5t-148 -58.5zM524 1364q56 0 93.5 37t37.5 94q0 55 -37.5 92t-93.5 37q-57 0 -95 -37t-38 -92q0 -57 38 -94t95 -37zM752 -33l-41 35l-4 174l-7 2
q-133 -211 -313 -211q-105 0 -164 79.5t-59 215.5v578q0 38 -1 58t-5.5 40t-12 26.5t-23 9.5t-36 -1.5t-53.5 -14.5l-15 46l316 102l28 -27v-796q0 -179 115 -179q111 0 230 158v578q0 39 -1 58.5t-5.5 39.5t-12 26t-23 9.5t-36.5 -1t-54 -14.5l-14 46l318 102l26 -27v-835
q0 -40 1 -60t5 -41t11.5 -27t23 -9t36.5 2.5t54 17.5l19 -47z" />
    <glyph glyph-name="Uhungarumlaut" unicode="&#x170;" horiz-adv-x="1509" 
d="M649 1780h-49l109 374h147zM862 1780h-49l125 374h145zM770 -33q-116 0 -208 29t-154 80t-103 124.5t-59.5 159t-18.5 187.5v880q0 51 -7 79t-30.5 48.5t-65.5 27.5t-114 7v49h668v-49q-97 0 -143.5 -15.5t-61 -47.5t-14.5 -99v-880q0 -244 91 -355.5t275 -111.5
q175 0 271 117.5t96 355.5v874q0 67 -15.5 99t-61.5 47.5t-142 15.5v49h528v-49q-96 0 -142 -15.5t-61.5 -47.5t-15.5 -99v-874q0 -95 -14.5 -177t-50.5 -159t-93 -131t-147 -86.5t-207 -32.5z" />
    <glyph glyph-name="uhungarumlaut" unicode="&#x171;" horiz-adv-x="1073" 
d="M362 1276h-49l109 375h147zM575 1276h-49l125 375h146zM752 -33l-41 35l-4 174l-7 2q-133 -211 -313 -211q-105 0 -164 79.5t-59 215.5v578q0 38 -1 58t-5.5 40t-12 26.5t-23 9.5t-36 -1.5t-53.5 -14.5l-15 46l316 102l28 -27v-796q0 -179 115 -179q111 0 230 158v578
q0 39 -1 58.5t-5.5 39.5t-12 26t-23 9.5t-36.5 -1t-54 -14.5l-14 46l318 102l26 -27v-835q0 -40 1 -60t5 -41t11.5 -27t23 -9t36.5 2.5t54 17.5l19 -47z" />
    <glyph glyph-name="Uogonek" unicode="&#x172;" horiz-adv-x="1509" 
d="M1501 1638v-49q-96 0 -142 -15.5t-61.5 -47.5t-15.5 -99v-874q0 -104 -18.5 -192.5t-59 -168t-115 -134.5t-178.5 -76q-14 -15 -57 -58t-60 -63t-35 -57t-18 -74q0 -60 30 -94.5t89 -34.5q66 0 168 47l12 -49q-116 -91 -241 -91q-88 0 -148.5 51.5t-60.5 143.5
q0 26 7.5 50.5t16 43t28 39.5t31.5 32.5t40 30t38.5 25t41.5 24.5t36 21q-20 -2 -59 -2q-116 0 -208 29t-154 80t-103 124.5t-59.5 159t-18.5 187.5v880q0 51 -7 79t-30.5 48.5t-65.5 27.5t-114 7v49h668v-49q-97 0 -143.5 -15.5t-61 -47.5t-14.5 -99v-880q0 -244 91 -355.5
t275 -111.5q175 0 271 117.5t96 355.5v874q0 67 -15.5 99t-61.5 47.5t-142 15.5v49h528z" />
    <glyph glyph-name="uogonek" unicode="&#x173;" horiz-adv-x="1073" 
d="M715 -401q66 0 168 47l12 -49q-116 -91 -242 -91q-88 0 -148.5 51.5t-60.5 143.5q0 47 19.5 87t54.5 70.5t68 52t75 45t60 36.5l-10 10l-4 174l-7 2q-133 -211 -313 -211q-105 0 -164 79.5t-59 215.5v578q0 38 -1 58t-5.5 40t-12 26.5t-23 9.5t-36 -1.5t-53.5 -14.5
l-15 46l316 102l28 -27v-796q0 -179 115 -179q111 0 230 158v578q0 39 -1 58.5t-5.5 39.5t-12 26t-23 9.5t-36.5 -1t-54 -14.5l-14 46l318 102l26 -27v-835q0 -40 1 -60t5 -41t11.5 -27t23 -9t36.5 2.5t54 17.5l19 -47l-299 -111q-12 -13 -53.5 -55t-57 -60.5t-32.5 -54.5
t-17 -71q0 -60 30 -94.5t89 -34.5z" />
    <glyph glyph-name="Wcircumflex" unicode="&#x174;" horiz-adv-x="2013" 
d="M1296 1794l-229 268l-229 -268h-66l195 375h198l195 -375h-64zM1989 1638v-49q-91 0 -129 -30t-64 -125l-395 -1467h-111l-264 1100l-291 -1100h-108l-408 1469q-27 94 -65.5 123.5t-130.5 29.5v49h575v-49q-122 0 -146 -32t5 -123l288 -1104h9l231 903l-47 201
q-23 95 -56.5 125t-111.5 30v49h569v-49q-91 0 -129 -13.5t-44 -48.5t10 -95l239 -1102h6l287 1104q29 91 1.5 123t-159.5 32v49h439z" />
    <glyph glyph-name="wcircumflex" unicode="&#x175;" horiz-adv-x="1478" 
d="M999 1278l-229 268l-229 -268h-66l195 375h198l195 -375h-64zM1473 1085v-49q-67 0 -99.5 -30t-58.5 -123l-260 -901h-123l-178 696l-189 -696h-129l-268 901q-28 93 -61.5 123t-100.5 30v49h430v-49q-25 0 -41 -2t-25 -10t-12.5 -16t-0.5 -29.5t8 -39.5t16 -56l174 -607
h8l150 560l-13 45q-24 94 -52 124.5t-85 30.5v49h428v-49q-80 0 -93.5 -30t11.5 -127l140 -603h8l172 607q11 37 15.5 56t6 39.5t-4 29t-19.5 16.5t-35 10t-55 2v49h336z" />
    <glyph glyph-name="Ycircumflex" unicode="&#x176;" horiz-adv-x="1376" 
d="M985 1780l-229 268l-230 -268h-65l194 374h199l195 -374h-64zM1374 1638v-49q-91 0 -137 -27.5t-86 -115.5l-330 -719v-516q0 -67 14.5 -99t61 -47.5t143.5 -15.5v-49h-667v49q72 0 114 7t65.5 27.5t30.5 48.5t7 79v510l-365 729q-42 86 -88.5 112.5t-134.5 26.5v49h629
v-49q-56 0 -91.5 -2t-57.5 -10t-31.5 -16t-7.5 -27t9 -36t23 -50l297 -608h6l279 606q16 34 22.5 51t9.5 36.5t-5 27.5t-27 16t-49.5 10t-79.5 2v49h446z" />
    <glyph glyph-name="ycircumflex" unicode="&#x177;" horiz-adv-x="987" 
d="M741 1276l-229 268l-229 -268h-66l195 375h198l195 -375h-64zM979 1085v-49q-64 0 -96.5 -30.5t-59.5 -122.5l-258 -871q-28 -95 -51.5 -160t-56 -131.5t-67 -106.5t-82 -65.5t-103.5 -27.5q-73 0 -121.5 39.5t-48.5 101.5q0 49 29 77t73 28q34 0 56.5 -16.5t44.5 -45.5
q19 -27 34 -37t39 -10q75 0 133 221q11 65 -16 195l-254 809q-30 93 -64.5 123t-103.5 30v49h479v-49q-98 0 -113.5 -29t15.5 -124l172 -602h10l170 602q30 95 14 124t-112 29v49h338z" />
    <glyph glyph-name="Ydieresis" unicode="&#x178;" horiz-adv-x="1376" 
d="M561 1808q-51 0 -86 35.5t-35 85.5t35 85.5t86 35.5q49 0 84 -35.5t35 -85.5t-35 -85.5t-84 -35.5zM950 1808q-51 0 -86 35.5t-35 85.5t35 85.5t86 35.5q49 0 84 -35.5t35 -85.5t-35 -85.5t-84 -35.5zM821 727v-516q0 -67 14.5 -99t61 -47.5t143.5 -15.5v-49h-667v49
q72 0 114 7t65.5 27.5t30.5 48.5t7 79v510l-365 729q-42 86 -88.5 112.5t-134.5 26.5v49h629v-49q-56 0 -91.5 -2t-57.5 -10t-31.5 -16t-7.5 -27t9 -36t23 -50l297 -608h6l279 606q16 34 22.5 51t9.5 36.5t-5 27.5t-27 16t-49.5 10t-79.5 2v49h446v-49q-91 0 -137 -27.5
t-86 -115.5z" />
    <glyph glyph-name="Zacute" unicode="&#x179;" horiz-adv-x="1144" 
d="M610 1780h-63l155 374h193zM139 1638h938l-747 -1546h446q60 0 96 13t66 54t48 114t34 196l57 -6l-51 -406l-8 -57h-963v49l736 1497h-402q-80 0 -120 -23.5t-61.5 -94.5t-27.5 -216l-57 2l14 363z" />
    <glyph glyph-name="zacute" unicode="&#x17a;" horiz-adv-x="829" 
d="M434 1276h-63l155 375h193zM293 84h225q46 0 74.5 6.5t50.5 23t32.5 51t15.5 83t5 125.5h54v-373h-699l4 49l477 952h-219q-59 0 -91 -8t-53.5 -35.5t-28.5 -73.5t-7 -128h-53v329h690v-49z" />
    <glyph glyph-name="Zdotaccent" unicode="&#x17b;" horiz-adv-x="1144" 
d="M618 1808q-49 0 -84.5 35.5t-35.5 85.5t35.5 85.5t84.5 35.5q50 0 85.5 -36t35.5 -85t-35.5 -85t-85.5 -36zM139 1638h938l-747 -1546h446q60 0 96 13t66 54t48 114t34 196l57 -6l-51 -406l-8 -57h-963v49l736 1497h-402q-80 0 -120 -23.5t-61.5 -94.5t-27.5 -216l-57 2
l14 363z" />
    <glyph glyph-name="zdotaccent" unicode="&#x17c;" horiz-adv-x="829" 
d="M442 1305q-50 0 -85 35.5t-35 84.5q0 50 35.5 85.5t84.5 35.5q50 0 85.5 -36t35.5 -85t-35.5 -84.5t-85.5 -35.5zM293 84h225q46 0 74.5 6.5t50.5 23t32.5 51t15.5 83t5 125.5h54v-373h-699l4 49l477 952h-219q-59 0 -91 -8t-53.5 -35.5t-28.5 -73.5t-7 -128h-53v329h690
v-49z" />
    <glyph glyph-name="Zcaron" unicode="&#x17d;" horiz-adv-x="1144" 
d="M518 1782l-194 375h63l229 -269l230 269h65l-194 -375h-199zM330 92h446q60 0 96 13t66 54t48 114t34 196l57 -6l-51 -406l-8 -57h-963v49l736 1497h-402q-80 0 -120 -23.5t-61.5 -94.5t-27.5 -216l-57 2l14 363l2 61h938z" />
    <glyph glyph-name="zcaron" unicode="&#x17e;" horiz-adv-x="829" 
d="M342 1278l-195 375h64l229 -269l230 269h65l-194 -375h-199zM80 1085h690v-49l-477 -952h225q46 0 74.5 6.5t50.5 23t32.5 51t15.5 83t5 125.5h54v-373h-699l4 49l477 952h-219q-59 0 -91 -8t-53.5 -35.5t-28.5 -73.5t-7 -128h-53v329z" />
    <glyph glyph-name="uni0218" unicode="&#x218;" horiz-adv-x="1056" 
d="M549 -33q-90 0 -174 37t-148 100q-53 53 -65 -16l-19 -94h-51l4 612h54q7 -149 57.5 -274.5t139.5 -202t198 -76.5q83 0 142.5 40.5t84.5 98.5t25 125q0 55 -17.5 106.5t-43.5 91.5t-71 85.5t-83.5 77t-98.5 76.5q-48 37 -68 52t-61.5 49t-60 52t-51 50.5t-47.5 55.5
t-36 57t-30 64.5t-16 68t-7 77.5q0 179 115 285t293 106q162 0 272 -104q26 -23 46 -17.5t24 39.5l10 62h49l25 -539h-51q-8 96 -35 180.5t-71 151t-110 105t-145 38.5q-109 0 -171 -68.5t-62 -168.5q0 -47 15 -90.5t38 -78t66.5 -77t83 -74.5t106.5 -82q75 -56 122.5 -94.5
t102 -94t85 -106t51 -117t20.5 -139.5q0 -192 -122.5 -311t-313.5 -119zM481 -334q-30 0 -50.5 25t-20.5 67q0 47 30.5 75t81.5 28q60 0 96.5 -38.5t36.5 -107.5q0 -78 -53 -139t-158 -88v49q49 13 90 47.5t41 71.5q0 31 -22 31q-8 0 -29.5 -10.5t-42.5 -10.5z" />
    <glyph glyph-name="uni0219" unicode="&#x219;" horiz-adv-x="765" 
d="M418 -33q-120 0 -223 74q-38 28 -56 -10l-16 -41h-45l-15 442h46q23 -179 101.5 -279t186.5 -100q71 0 109.5 45.5t38.5 124.5q0 35 -8 60t-39.5 60.5t-68 66.5t-118.5 98q-132 104 -182.5 175.5t-50.5 158.5q0 126 80.5 203t203.5 77q111 0 193 -69q21 -18 34.5 -14
t18.5 24l13 45h47l8 -358h-45q-20 125 -86.5 205.5t-165.5 80.5q-61 0 -98 -37.5t-37 -99.5q0 -42 22 -79t56.5 -68.5t117.5 -96.5q77 -60 121.5 -101t82.5 -88.5t53.5 -94.5t15.5 -105q0 -145 -84 -222t-211 -77zM332 -334q-30 0 -51 25t-21 67q0 47 31 75t82 28
q60 0 96.5 -38.5t36.5 -107.5q0 -78 -53 -139t-158 -88v49q49 13 90 47.5t41 71.5q0 12 -6 21.5t-17 9.5q-8 0 -29 -10.5t-42 -10.5z" />
    <glyph glyph-name="uni021A" unicode="&#x21a;" horiz-adv-x="1280" 
d="M455 1546h-133q-80 0 -121 -23t-65 -92.5t-34 -211.5l-59 4l27 354l6 61h1128l4 -61l27 -354l-57 -4q-7 87 -18 143t-26 94t-41 57t-57 26t-80 7h-133q-67 0 -67 -69v-1266q0 -51 7 -79t30.5 -48.5t65.5 -27.5t114 -7v-49h-668v49q97 0 143.5 15.5t61 47.5t14.5 99v1266
q0 69 -69 69zM600 -334q-30 0 -51 25t-21 67q0 47 31 75t82 28q60 0 96.5 -38.5t36.5 -107.5q0 -78 -53 -139t-158 -88v49q49 13 90 47.5t41 71.5q0 31 -22 31q-8 0 -29.5 -10.5t-42.5 -10.5z" />
    <glyph glyph-name="uni021B" unicode="&#x21b;" horiz-adv-x="706" 
d="M616 459h58q0 -250 -59.5 -371t-204.5 -121q-125 0 -184.5 87t-59.5 296v651h-143v76q112 3 180.5 82.5t83.5 224.5h73v-299h246v-84h-241v-598q0 -74 4.5 -125t16.5 -93.5t35 -63.5t58 -21q137 0 137 359zM354 -334q-30 0 -50.5 25t-20.5 67q0 47 31.5 75t82.5 28
q60 0 96.5 -38.5t36.5 -107.5q0 -78 -53 -139.5t-160 -87.5v49q50 13 91 47.5t41 71.5q0 31 -21 31q-10 0 -32 -10.5t-42 -10.5z" />
    <glyph glyph-name="circumflex" unicode="&#x2c6;" horiz-adv-x="751" 
d="M475 1651l195 -375h-66l-229 268l-230 -268h-63l194 375h199z" />
    <glyph glyph-name="caron" unicode="&#x2c7;" horiz-adv-x="751" 
d="M375 1384l229 269h66l-195 -375h-199l-194 375h63z" />
    <glyph glyph-name="breve" unicode="&#x2d8;" horiz-adv-x="768" 
d="M616 1620h50q-9 -142 -84 -217.5t-197 -75.5q-124 0 -199 75.5t-84 217.5h50q10 -74 72.5 -115t160.5 -41t159.5 41t71.5 115z" />
    <glyph glyph-name="dotaccent" unicode="&#x2d9;" horiz-adv-x="446" 
d="M223 1305q-50 0 -85.5 35.5t-35.5 84.5t36 85t85 36t85 -36t36 -85t-35.5 -84.5t-85.5 -35.5z" />
    <glyph glyph-name="ring" unicode="&#x2da;" horiz-adv-x="622" 
d="M313 1290q-91 0 -151 58.5t-60 146.5q0 86 60 143.5t151 57.5q89 0 148 -57.5t59 -143.5q0 -88 -59 -146.5t-148 -58.5zM313 1364q56 0 93.5 37t37.5 94q0 55 -37.5 92t-93.5 37q-57 0 -95 -37t-38 -92q0 -57 38 -94t95 -37z" />
    <glyph glyph-name="ogonek" unicode="&#x2db;" horiz-adv-x="673" 
d="M420 -20h53q-21 -25 -61.5 -65t-64 -65.5t-43 -64t-19.5 -78.5q0 -60 30 -94.5t88 -34.5q66 0 168 47l13 -49q-115 -90 -242 -90q-88 0 -148.5 51.5t-60.5 143.5q0 49 21.5 90t58 71t72 52.5t76 46t59.5 39.5z" />
    <glyph glyph-name="tilde" unicode="&#x2dc;" horiz-adv-x="849" 
d="M573 1290q-37 0 -72 14.5t-63 35.5t-55 42t-58.5 35.5t-62.5 14.5q-53 0 -76.5 -36.5t-33.5 -109.5h-50q25 281 174 281q37 0 72 -14.5t63.5 -35.5t56 -42t59 -35.5t63.5 -14.5q53 0 76.5 37t31.5 109h50q-25 -281 -175 -281z" />
    <glyph glyph-name="hungarumlaut" unicode="&#x2dd;" horiz-adv-x="688" 
d="M152 1276h-50l109 375h147zM365 1276h-50l125 375h146z" />
    <glyph glyph-name="gravecomb" unicode="&#x300;" horiz-adv-x="0" 
d="M-268 1651l155 -375h-63l-285 375h193z" />
    <glyph glyph-name="acutecomb" unicode="&#x301;" horiz-adv-x="0" 
d="M-340 1276h-63l155 375h193z" />
    <glyph glyph-name="uni0302" unicode="&#x302;" horiz-adv-x="0" 
d="M-289 1651l195 -375h-64l-229 268l-229 -268h-66l195 375h198z" />
    <glyph glyph-name="tildecomb" unicode="&#x303;" horiz-adv-x="0" 
d="M-276 1290q-45 0 -89 22t-74.5 49t-71 49t-77.5 22q-53 0 -76.5 -36.5t-33.5 -109.5h-50q25 281 175 281q37 0 72 -14.5t63 -35.5t55.5 -42t59 -35.5t63.5 -14.5q53 0 76.5 37t31.5 109h50q-25 -281 -174 -281z" />
    <glyph glyph-name="uni0304" unicode="&#x304;" horiz-adv-x="0" 
d="M-690 1372v103h571v-103h-571z" />
    <glyph glyph-name="uni0306" unicode="&#x306;" horiz-adv-x="0" 
d="M-152 1620h50q-9 -142 -84 -217.5t-197 -75.5q-124 0 -199 75.5t-84 217.5h50q10 -74 72.5 -115t160.5 -41t159.5 41t71.5 115z" />
    <glyph glyph-name="uni0307" unicode="&#x307;" horiz-adv-x="0" 
d="M-223 1305q-50 0 -85.5 35.5t-35.5 84.5t36 85t85 36t85 -36t36 -85t-35.5 -84.5t-85.5 -35.5z" />
    <glyph glyph-name="uni0308" unicode="&#x308;" horiz-adv-x="0" 
d="M-618 1305q-51 0 -86 35t-35 85t35 85.5t86 35.5q49 0 83.5 -35.5t34.5 -85.5t-34.5 -85t-83.5 -35zM-229 1305q-51 0 -86 35t-35 85t35 85.5t86 35.5q49 0 83.5 -35.5t34.5 -85.5t-34.5 -85t-83.5 -35z" />
    <glyph glyph-name="uni030A" unicode="&#x30a;" horiz-adv-x="0" 
d="M-309 1290q-91 0 -151 58.5t-60 146.5q0 86 60 143.5t151 57.5q89 0 148 -57.5t59 -143.5q0 -88 -59 -146.5t-148 -58.5zM-309 1364q56 0 93.5 37t37.5 94q0 55 -37.5 92t-93.5 37q-57 0 -95 -37t-38 -92q0 -57 38 -94t95 -37z" />
    <glyph glyph-name="uni030B" unicode="&#x30b;" horiz-adv-x="0" 
d="M-498 1276h-49l109 375h147zM-285 1276h-49l125 375h146z" />
    <glyph glyph-name="uni030C" unicode="&#x30c;" horiz-adv-x="0" 
d="M-377 1384l230 269h65l-194 -375h-199l-195 375h64z" />
    <glyph glyph-name="uni0312" unicode="&#x312;" horiz-adv-x="0" 
d="M-162 1540q30 0 51 -25t21 -67q0 -47 -31 -74.5t-82 -27.5q-60 0 -96.5 38t-36.5 107q0 78 53 139t158 88v-49q-49 -13 -90 -47.5t-41 -71.5q0 -30 23 -30q8 0 29 10t42 10z" />
    <glyph glyph-name="uni0326" unicode="&#x326;" horiz-adv-x="0" 
d="M-276 -334q-30 0 -51 25t-21 67q0 47 30.5 75t81.5 28q60 0 97 -38.5t37 -107.5q0 -78 -53 -139t-158 -88v49q49 13 90 47.5t41 71.5q0 12 -6 21.5t-17 9.5q-8 0 -29 -10.5t-42 -10.5z" />
    <glyph glyph-name="uni0327" unicode="&#x327;" horiz-adv-x="0" 
d="M-481 -141l102 178h80l-59 -127q231 -19 231 -182q0 -89 -72.5 -146t-178.5 -74.5t-224 -1.5l12 50q149 -12 231.5 28t82.5 133q0 139 -205 142z" />
    <glyph glyph-name="uni0328" unicode="&#x328;" horiz-adv-x="0" 
d="M-254 -20h53q-21 -25 -61.5 -65t-64 -65.5t-43 -64t-19.5 -78.5q0 -60 30 -94.5t89 -34.5q66 0 168 47l12 -49q-115 -90 -242 -90q-88 0 -148.5 51.5t-60.5 143.5q0 49 21.5 90t58 71t72 52.5t76 46t59.5 39.5z" />
    <glyph glyph-name="Wgrave" unicode="&#x1e80;" horiz-adv-x="2013" 
d="M991 2169l156 -375h-64l-284 375h192zM1989 1638v-49q-91 0 -129 -30t-64 -125l-395 -1467h-111l-264 1100l-291 -1100h-108l-408 1469q-27 94 -65.5 123.5t-130.5 29.5v49h575v-49q-122 0 -146 -32t5 -123l288 -1104h9l231 903l-47 201q-23 95 -56.5 125t-111.5 30v49
h569v-49q-91 0 -129 -13.5t-44 -48.5t10 -95l239 -1102h6l287 1104q29 91 1.5 123t-159.5 32v49h439z" />
    <glyph glyph-name="wgrave" unicode="&#x1e81;" horiz-adv-x="1478" 
d="M694 1653l156 -375h-64l-284 375h192zM1473 1085v-49q-67 0 -99.5 -30t-58.5 -123l-260 -901h-123l-178 696l-189 -696h-129l-268 901q-28 93 -61.5 123t-100.5 30v49h430v-49q-25 0 -41 -2t-25 -10t-12.5 -16t-0.5 -29.5t8 -39.5t16 -56l174 -607h8l150 560l-13 45
q-24 94 -52 124.5t-85 30.5v49h428v-49q-80 0 -93.5 -30t11.5 -127l140 -603h8l172 607q11 37 15.5 56t6 39.5t-4 29t-19.5 16.5t-35 10t-55 2v49h336z" />
    <glyph glyph-name="Wacute" unicode="&#x1e82;" horiz-adv-x="2013" 
d="M1151 2169h192l-284 -375h-64zM1989 1638v-49q-91 0 -129 -30t-64 -125l-395 -1467h-111l-264 1100l-291 -1100h-108l-408 1469q-27 94 -65.5 123.5t-130.5 29.5v49h575v-49q-122 0 -146 -32t5 -123l288 -1104h9l231 903l-47 201q-23 95 -56.5 125t-111.5 30v49h569v-49
q-91 0 -129 -13.5t-44 -48.5t10 -95l239 -1102h6l287 1104q29 91 1.5 123t-159.5 32v49h439z" />
    <glyph glyph-name="wacute" unicode="&#x1e83;" horiz-adv-x="1478" 
d="M854 1653h193l-285 -375h-64zM1473 1085v-49q-67 0 -99.5 -30t-58.5 -123l-260 -901h-123l-178 696l-189 -696h-129l-268 901q-28 93 -61.5 123t-100.5 30v49h430v-49q-25 0 -41 -2t-25 -10t-12.5 -16t-0.5 -29.5t8 -39.5t16 -56l174 -607h8l150 560l-13 45
q-24 94 -52 124.5t-85 30.5v49h428v-49q-80 0 -93.5 -30t11.5 -127l140 -603h8l172 607q11 37 15.5 56t6 39.5t-4 29t-19.5 16.5t-35 10t-55 2v49h336z" />
    <glyph glyph-name="Wdieresis" unicode="&#x1e84;" horiz-adv-x="2013" 
d="M872 1823q-51 0 -85.5 35.5t-34.5 85.5t34.5 85t85.5 35q49 0 84 -35t35 -85t-35 -85.5t-84 -35.5zM1262 1823q-51 0 -86 35.5t-35 85.5t35 85t86 35q49 0 83.5 -35t34.5 -85t-34.5 -85.5t-83.5 -35.5zM1989 1638v-49q-91 0 -129 -30t-64 -125l-395 -1467h-111l-264 1100
l-291 -1100h-108l-408 1469q-27 94 -65.5 123.5t-130.5 29.5v49h575v-49q-122 0 -146 -32t5 -123l288 -1104h9l231 903l-47 201q-23 95 -56.5 125t-111.5 30v49h569v-49q-91 0 -129 -13.5t-44 -48.5t10 -95l239 -1102h6l287 1104q29 91 1.5 123t-159.5 32v49h439z" />
    <glyph glyph-name="wdieresis" unicode="&#x1e85;" horiz-adv-x="1478" 
d="M575 1307q-51 0 -85.5 35t-34.5 85t34.5 85.5t85.5 35.5q49 0 84 -35.5t35 -85.5t-35 -85t-84 -35zM965 1307q-51 0 -86 35t-35 85t35 85.5t86 35.5q49 0 83.5 -35.5t34.5 -85.5t-34.5 -85t-83.5 -35zM1473 1085v-49q-67 0 -99.5 -30t-58.5 -123l-260 -901h-123l-178 696
l-189 -696h-129l-268 901q-28 93 -61.5 123t-100.5 30v49h430v-49q-25 0 -41 -2t-25 -10t-12.5 -16t-0.5 -29.5t8 -39.5t16 -56l174 -607h8l150 560l-13 45q-24 94 -52 124.5t-85 30.5v49h428v-49q-80 0 -93.5 -30t11.5 -127l140 -603h8l172 607q11 37 15.5 56t6 39.5t-4 29
t-19.5 16.5t-35 10t-55 2v49h336z" />
    <glyph glyph-name="Ygrave" unicode="&#x1ef2;" horiz-adv-x="1376" 
d="M680 2154l156 -374h-64l-285 374h193zM821 727v-516q0 -67 14.5 -99t61 -47.5t143.5 -15.5v-49h-667v49q72 0 114 7t65.5 27.5t30.5 48.5t7 79v510l-365 729q-42 86 -88.5 112.5t-134.5 26.5v49h629v-49q-56 0 -91.5 -2t-57.5 -10t-31.5 -16t-7.5 -27t9 -36t23 -50
l297 -608h6l279 606q16 34 22.5 51t9.5 36.5t-5 27.5t-27 16t-49.5 10t-79.5 2v49h446v-49q-91 0 -137 -27.5t-86 -115.5z" />
    <glyph glyph-name="ygrave" unicode="&#x1ef3;" horiz-adv-x="987" 
d="M436 1651l156 -375h-64l-284 375h192zM205 -479q-73 0 -121.5 39.5t-48.5 101.5q0 49 29 77t73 28q34 0 56.5 -16.5t44.5 -45.5q19 -27 34 -37t39 -10q75 0 133 221q11 65 -16 195l-254 809q-30 93 -64.5 123t-103.5 30v49h479v-49q-98 0 -113.5 -29t15.5 -124l172 -602
h10l170 602q30 95 14 124t-112 29v49h338v-49q-64 0 -96.5 -30.5t-59.5 -122.5l-258 -871q-28 -95 -51.5 -160t-56 -131.5t-67 -106.5t-82 -65.5t-103.5 -27.5z" />
    <glyph glyph-name="endash" unicode="&#x2013;" horiz-adv-x="1228" 
d="M1229 479h-1229v148h1229v-148z" />
    <glyph glyph-name="emdash" unicode="&#x2014;" horiz-adv-x="2457" 
d="M2458 479h-2458v148h2458v-148z" />
    <glyph glyph-name="quoteleft" unicode="&#x2018;" horiz-adv-x="485" 
d="M287 1397q46 0 75 -32.5t29 -80.5q0 -54 -37.5 -90.5t-101.5 -36.5q-68 0 -113 50t-45 132q0 92 63 168t193 115v-53q-83 -22 -130.5 -69t-47.5 -99q0 -39 25 -39q7 0 33 17.5t57 17.5z" />
    <glyph glyph-name="quoteright" unicode="&#x2019;" horiz-adv-x="485" 
d="M199 1450q-46 0 -75.5 33t-29.5 80q0 54 37.5 90.5t101.5 36.5q67 0 112.5 -50.5t45.5 -132.5q0 -92 -63 -167.5t-193 -114.5v53q83 22 130.5 69t47.5 99q0 39 -24 39q-7 0 -33 -17.5t-57 -17.5z" />
    <glyph glyph-name="quotesinglbase" unicode="&#x201a;" horiz-adv-x="485" 
d="M199 -29q-46 0 -75.5 32t-29.5 79q0 56 37.5 92.5t101.5 36.5q68 0 113 -50t45 -132q0 -94 -63 -170t-193 -115v53q83 24 130.5 71t47.5 97q0 39 -24 39q-7 0 -33 -16.5t-57 -16.5z" />
    <glyph glyph-name="quotedblleft" unicode="&#x201c;" horiz-adv-x="878" 
d="M287 1397q46 0 75 -32.5t29 -80.5q0 -54 -37.5 -90.5t-101.5 -36.5q-68 0 -113 50t-45 132q0 92 63 168t193 115v-53q-83 -22 -130.5 -69t-47.5 -99q0 -39 25 -39q7 0 33 17.5t57 17.5zM680 1397q46 0 75 -32.5t29 -80.5q0 -54 -37.5 -90.5t-101.5 -36.5q-68 0 -113 50
t-45 132q0 92 63 168t193 115v-53q-83 -22 -130.5 -69t-47.5 -99q0 -39 25 -39q9 0 34 17.5t56 17.5z" />
    <glyph glyph-name="quotedblright" unicode="&#x201d;" horiz-adv-x="878" 
d="M199 1450q-46 0 -75.5 33t-29.5 80q0 54 37.5 90.5t101.5 36.5q67 0 112.5 -50.5t45.5 -132.5q0 -92 -63 -167.5t-193 -114.5v53q83 22 130.5 69t47.5 99q0 39 -24 39q-7 0 -33 -17.5t-57 -17.5zM592 1450q-46 0 -75.5 33t-29.5 80q0 54 38 90.5t102 36.5q67 0 112 -50.5
t45 -132.5q0 -93 -62.5 -168t-193.5 -114v53q84 22 131.5 69t47.5 99q0 39 -25 39q-8 0 -33 -17.5t-57 -17.5z" />
    <glyph glyph-name="quotedblbase" unicode="&#x201e;" horiz-adv-x="878" 
d="M199 -29q-46 0 -75.5 32t-29.5 79q0 56 37.5 92.5t101.5 36.5q68 0 113 -50t45 -132q0 -94 -63 -170t-193 -115v53q83 24 130.5 71t47.5 97q0 39 -24 39q-7 0 -33 -16.5t-57 -16.5zM592 -29q-46 0 -75.5 32t-29.5 79q0 56 38 92.5t102 36.5q67 0 112 -50t45 -132
q0 -94 -62.5 -170t-193.5 -115v53q84 24 131.5 71t47.5 97q0 39 -25 39q-8 0 -33 -16.5t-57 -16.5z" />
    <glyph glyph-name="dagger" unicode="&#x2020;" horiz-adv-x="989" 
d="M784 1352q45 0 74 -28t29 -77t-29 -76.5t-74 -27.5q-32 0 -70.5 20t-89.5 41.5t-110 24.5q3 -91 25.5 -147.5t72.5 -120.5q-50 -104 -70.5 -256t-23.5 -453v-703h-47v703q-1 298 -22 451t-72 258q52 66 75.5 122t26.5 146q-61 -3 -112.5 -24.5t-90 -41.5t-71.5 -20
q-45 0 -74 27.5t-29 76.5t29 77t74 28q33 0 71.5 -21t90 -43.5t112.5 -25.5q-2 52 -16 98.5t-30 74.5t-29 65.5t-13 74.5q0 52 29.5 82.5t75.5 30.5q45 0 74.5 -31t29.5 -82q0 -46 -20.5 -92t-42 -100.5t-23.5 -120.5q59 3 110 26t89.5 43.5t70.5 20.5z" />
    <glyph glyph-name="daggerdbl" unicode="&#x2021;" horiz-adv-x="989" 
d="M102 -47q0 49 29 76.5t74 27.5q33 0 71.5 -19.5t90 -40.5t112.5 -24q-4 88 -23.5 143.5t-64.5 123.5q28 68 41.5 106.5t28 109.5t14.5 144q0 72 -14 143t-28.5 111.5t-41.5 106.5q46 67 65 122.5t23 143.5q-61 -3 -112.5 -24t-90 -40.5t-71.5 -19.5q-45 0 -74 27.5
t-29 76.5t29 77t74 28q33 0 71.5 -20.5t90 -42.5t112.5 -25q-4 68 -26.5 122.5t-42 98.5t-19.5 90q0 52 29.5 82.5t75.5 30.5q45 0 74.5 -31t29.5 -82q0 -46 -20 -91.5t-41.5 -100t-24.5 -119.5q59 3 110 25t89.5 42.5t70.5 20.5q45 0 74 -28t29 -77t-29 -76.5t-74 -27.5
q-32 0 -70.5 19.5t-89.5 40.5t-110 24q2 -60 15 -110t27.5 -79t43.5 -77q-27 -63 -42.5 -106t-29.5 -113t-14 -142q0 -73 14 -143t29 -111t43 -106q-43 -69 -63 -124t-23 -143q59 3 110 24t89.5 40.5t70.5 19.5q45 0 74 -27.5t29 -76.5t-29 -77t-74 -28q-26 0 -56.5 13
t-56 29.5t-68 31t-89.5 17.5q3 -66 24.5 -121t41.5 -101t20 -92q0 -51 -29.5 -81.5t-74.5 -30.5q-47 0 -76 30t-29 82q0 46 19.5 90.5t42 100t26.5 123.5q-48 -3 -91.5 -17.5t-69 -31t-56 -29.5t-57.5 -13q-45 0 -74 28t-29 77z" />
    <glyph glyph-name="bullet" unicode="&#x2022;" horiz-adv-x="681" 
d="M362 485q-108 0 -184 76t-76 184q0 107 76.5 184t183.5 77t184 -77t77 -184q0 -108 -76.5 -184t-184.5 -76z" />
    <glyph glyph-name="ellipsis" unicode="&#x2026;" horiz-adv-x="1413" 
d="M223 -33q-51 0 -86 35t-35 86q0 50 35 85.5t86 35.5q49 0 85 -35.5t36 -85.5q0 -51 -35.5 -86t-85.5 -35zM707 -33q-50 0 -84.5 35t-34.5 86q0 50 35 85.5t84 35.5q51 0 85.5 -35.5t34.5 -85.5q0 -51 -34.5 -86t-85.5 -35zM1192 -33q-51 0 -86 35t-35 86q0 50 35 85.5
t86 35.5q49 0 84 -35.5t35 -85.5q0 -51 -34.5 -86t-84.5 -35z" />
    <glyph glyph-name="perthousand" unicode="&#x2030;" horiz-adv-x="2172" 
d="M387 840q-120 0 -202.5 121t-82.5 296q0 178 82.5 300t202.5 122q117 0 199 -122t82 -300q0 -174 -82 -295.5t-199 -121.5zM190 0l1018 1638h88l-1017 -1638h-89zM387 893q70 0 101.5 101t31.5 263q0 165 -31.5 266t-101.5 101q-137 0 -137 -367q0 -104 12 -182
t43.5 -130t81.5 -52zM1108 -33q-120 0 -202.5 121.5t-82.5 298.5q0 178 82.5 300t202.5 122q118 0 200.5 -122t82.5 -300q0 -176 -82.5 -298t-200.5 -122zM1788 -33q-119 0 -201 121.5t-82 298.5q0 178 82 300t201 122t201 -122t82 -300q0 -177 -82 -298.5t-201 -121.5z
M1108 23q70 0 102.5 101t32.5 263q0 164 -32.5 265.5t-102.5 101.5q-137 0 -137 -367q0 -364 137 -364zM1788 23q49 0 80 51.5t43 129.5t12 183q0 78 -7 142t-22 116t-42 80.5t-64 28.5t-64 -28.5t-42 -80.5t-22 -116t-7 -142q0 -105 12 -183t43 -129.5t80 -51.5z" />
    <glyph glyph-name="guilsinglleft" unicode="&#x2039;" horiz-adv-x="585" 
d="M492 1094l-216 -494l216 -500h-50l-348 500l348 494h50z" />
    <glyph glyph-name="guilsinglright" unicode="&#x203a;" horiz-adv-x="585" 
d="M94 100l215 500l-215 494h49l349 -494l-349 -500h-49z" />
    <glyph glyph-name="fraction" unicode="&#x2044;" horiz-adv-x="901" 
d="M-102 0l1017 1638h89l-1018 -1638h-88z" />
    <glyph glyph-name="Euro" unicode="&#x20ac;" horiz-adv-x="1320" 
d="M1169 614h50q-14 -122 -35 -216t-57.5 -178.5t-88 -139t-127 -86t-172.5 -31.5q-162 0 -284 95t-189 258.5t-80 377.5h-145l25 70h118v24q0 37 4 107h-147l25 70h129q23 209 95.5 369t193.5 252.5t274 92.5q223 0 395 -149v-381h-49q-15 446 -303 446
q-107 0 -185.5 -82.5t-120.5 -221t-55 -326.5h498l-25 -70h-475q-2 -25 -2 -76v-55h436l-22 -70h-410q10 -189 51.5 -328t119.5 -221t186 -82q150 0 247 144t125 407z" />
    <glyph glyph-name="trademark" unicode="&#x2122;" horiz-adv-x="2359" 
d="M420 1556h-98q-66 0 -101 -17t-56.5 -64t-35.5 -142l-49 6l33 238l10 61h819l8 -61l33 -238l-47 -6q-14 95 -36 142t-57.5 64t-101.5 17h-102q-35 0 -35 -34v-574q0 -97 28.5 -129.5t125.5 -32.5v-49h-457v49q98 0 126 32t28 130v574q0 34 -35 34zM1384 1638l263 -673h4
l282 673h344v-49q-98 0 -125.5 -32t-27.5 -130v-479q0 -98 27.5 -130t125.5 -32v-49h-458v49q97 0 125 32.5t28 129.5v551h-6l-340 -803h-33l-317 803h-6v-551q0 -97 28 -129.5t125 -32.5v-49h-389v49q97 0 125.5 32.5t28.5 129.5v479q0 97 -28.5 129.5t-125.5 32.5v49h350z
" />
    <glyph glyph-name="oneeighth" unicode="&#x215b;" horiz-adv-x="1732" 
d="M432 1653v-854q0 -61 22 -80t99 -19v-28h-403v28q83 0 107 19t24 80v671q0 30 -2.5 44t-9 25t-23 9t-41 -10t-66.5 -27l-12 29l287 131zM244 0l1018 1638h88l-1018 -1638h-88zM1036 219q0 80 50 144.5t145 134.5q-88 76 -128 138t-40 132q0 102 77.5 165.5t198.5 63.5
q116 0 186 -58.5t70 -150.5q0 -69 -43.5 -122t-146.5 -127q123 -97 172 -160t49 -141q0 -114 -86 -185t-217 -71q-125 0 -206 68t-81 169zM1200 805q0 -47 32 -94t116 -119q70 57 98.5 106t28.5 101q0 65 -36.5 104t-99.5 39q-61 0 -100 -37.5t-39 -99.5zM1155 215
q0 -74 43 -125t129 -51q70 0 112 42.5t42 113.5q0 67 -36.5 112t-132.5 123q-16 12 -24 19q-133 -118 -133 -234z" />
    <glyph glyph-name="threeeighths" unicode="&#x215c;" horiz-adv-x="1898" 
d="M168 754q0 25 16 40t41 15q18 0 33 -8.5t20.5 -14.5t22.5 -28q18 -25 40 -36t58 -11q34 0 64.5 11.5t57.5 35t43 67.5t16 103q0 65 -21 113t-57.5 74.5t-79 39t-92.5 12.5v31q223 57 223 227q0 65 -37.5 108.5t-109.5 43.5q-145 0 -181 -145h-35q17 114 89 176.5
t182 62.5q100 0 167.5 -60t67.5 -161q0 -84 -59 -149t-166 -101v-4q116 -11 189 -75t73 -177q0 -136 -101 -213.5t-249 -77.5q-86 0 -150.5 28t-64.5 73zM410 0l1017 1638h89l-1018 -1638h-88zM1202 219q0 80 50.5 144.5t146.5 134.5q-89 76 -129.5 138t-40.5 132
q0 102 78.5 165.5t199.5 63.5q114 0 184 -58.5t70 -150.5q0 -69 -43 -122.5t-145 -126.5q121 -98 170 -160.5t49 -140.5q0 -114 -86 -185t-217 -71q-125 0 -206 68t-81 169zM1368 805q0 -47 31 -94t114 -119q71 58 100 106.5t29 100.5q0 65 -37 104t-98 39
q-62 0 -100.5 -37.5t-38.5 -99.5zM1323 215q0 -74 43 -125t129 -51q70 0 112 42.5t42 113.5q0 46 -23 86t-49.5 65t-94.5 80q-18 15 -28 23q-131 -116 -131 -234z" />
    <glyph glyph-name="fiveeighths" unicode="&#x215d;" horiz-adv-x="1835" 
d="M360 653q-89 0 -154 29t-65 74q0 26 16 41.5t42 15.5q27 0 43 -12.5t34 -38.5q36 -51 97 -51q73 0 122.5 69t49.5 209q0 127 -45.5 189.5t-124.5 62.5t-139 -63l-48 28l105 432h393l-31 -116h-317l-59 -254l6 -4q71 53 155 53q113 0 187.5 -82.5t74.5 -220.5
q0 -175 -98 -268t-244 -93zM346 0l1018 1638h88l-1018 -1638h-88zM1139 219q0 80 49.5 144.5t144.5 134.5q-88 76 -128 138t-40 132q0 102 79 165.5t200 63.5q114 0 184 -58.5t70 -150.5q0 -69 -43.5 -122.5t-147.5 -126.5q62 -49 99 -82.5t67.5 -70.5t43 -72t12.5 -76
q0 -114 -86.5 -185t-217.5 -71q-125 0 -205.5 68t-80.5 169zM1305 805q0 -48 31 -95t114 -118q70 57 98.5 106t28.5 101q0 65 -36 104t-97 39q-62 0 -100.5 -37.5t-38.5 -99.5zM1260 215q0 -74 43 -125t129 -51q69 0 111 43t42 113q0 35 -9.5 63.5t-35 57.5t-50 50.5
t-73.5 61.5l-9 7.5t-8 6.5t-9 7q-131 -116 -131 -234z" />
    <glyph glyph-name="seveneighths" unicode="&#x215e;" horiz-adv-x="1728" 
d="M756 1638l-363 -985l-108 39l323 826v4h-307q-58 0 -83.5 -28.5t-45.5 -119.5l-29 6l33 154l23 104h557zM240 0l1017 1638h89l-1018 -1638h-88zM1032 219q0 80 50 144.5t145 134.5q-88 76 -128 138t-40 132q0 102 77.5 165.5t198.5 63.5q116 0 186 -58.5t70 -150.5
q0 -69 -43.5 -122t-146.5 -127q123 -97 172 -160t49 -141q0 -114 -86 -185t-217 -71q-125 0 -206 68t-81 169zM1196 805q0 -47 31.5 -94.5t115.5 -118.5q70 57 98.5 106t28.5 101q0 65 -36.5 104t-98.5 39q-61 0 -100 -37.5t-39 -99.5zM1151 215q0 -74 43 -125t129 -51
q70 0 112 42.5t42 113.5q0 67 -36.5 112t-132.5 123q-16 12 -24 19q-133 -118 -133 -234z" />
    <glyph glyph-name="arrowleft" unicode="&#x2190;" horiz-adv-x="1748" 
d="M1647 612v-118h-1039q-72 0 -174 19t-160 19v-6q85 -38 150.5 -80t113.5 -89.5t76.5 -84.5t65.5 -92l-117 -100q-89 164 -193.5 264t-267.5 174v72q164 74 268 173.5t193 262.5l117 -98q-36 -56 -65.5 -93.5t-77 -85t-113 -89.5t-150.5 -80v-7q58 0 160 19.5t174 19.5
h1039z" />
    <glyph glyph-name="arrowup" unicode="&#x2191;" horiz-adv-x="1167" 
d="M643 909v-1038h-119v1038q0 72 19.5 175t19.5 161h-6q-38 -86 -80 -152t-89.5 -113t-84.5 -75.5t-92 -64.5l-100 114q164 89 264 193.5t174 267.5h72q74 -164 173.5 -268t262.5 -193l-99 -114q-56 35 -93.5 64t-85 76t-89.5 113t-80 152h-6q0 -58 19.5 -161t19.5 -175z
" />
    <glyph glyph-name="arrowright" unicode="&#x2192;" horiz-adv-x="1748" 
d="M1141 494h-1039v118h1039q72 0 174 -19.5t160 -19.5v7q-85 38 -150.5 80t-113 89.5t-77 85t-65.5 93.5l117 98q89 -163 193 -262.5t268 -173.5v-72q-163 -74 -267.5 -174t-193.5 -264l-117 100q37 55 65.5 92t76.5 84.5t113.5 89.5t150.5 80v6q-59 0 -161 -19t-173 -19z
" />
    <glyph glyph-name="arrowdown" unicode="&#x2193;" horiz-adv-x="1167" 
d="M524 1286h119v-1038q0 -72 -19.5 -175t-19.5 -161h6q38 86 80 152t89.5 113t85 76t93.5 64l99 -114q-163 -89 -262.5 -193t-173.5 -268h-72q-74 163 -174 267.5t-264 193.5l100 114q55 -36 92 -64.5t84.5 -75.5t89.5 -113t80 -152h6q0 58 -19.5 161t-19.5 175v1038z" />
    <glyph glyph-name="arrowboth" unicode="&#x2194;" horiz-adv-x="2363" 
d="M1683 928l117 98q89 -163 193 -262.5t268 -173.5v-72q-163 -74 -267.5 -174t-193.5 -264l-117 100q37 55 65.5 92t76.5 84.5t113.5 89.5t150.5 80v6q-59 0 -161 -19t-173 -19h-1147q-72 0 -174 19t-160 19v-6q85 -38 150.5 -80t113.5 -89.5t76.5 -84.5t65.5 -92
l-117 -100q-89 164 -193.5 264t-267.5 174v72q164 74 268 173.5t193 262.5l117 -98q-36 -56 -65.5 -93.5t-77 -85t-113 -89.5t-150.5 -80v-7q58 0 160 19.5t174 19.5h1147q72 0 174 -19.5t160 -19.5v7q-85 38 -150.5 80t-113 89.5t-77 85t-65.5 93.5z" />
    <glyph glyph-name="arrowupdn" unicode="&#x2195;" horiz-adv-x="1153" 
d="M596 -360h6q38 85 80 150.5t90 113t85 76t93 65.5l101 -117q-165 -89 -265 -192.5t-174 -267.5h-71q-74 163 -174.5 267t-264.5 193l101 117q56 -37 92.5 -65.5t84.5 -76t89.5 -113t79.5 -150.5h6q0 58 -19.5 159.5t-19.5 173.5v1147q0 70 19.5 173t19.5 161h-6
q-38 -85 -79.5 -150.5t-89.5 -113t-84.5 -76t-92.5 -65.5l-101 116q164 89 264.5 193.5t174.5 267.5h71q74 -164 174 -268t265 -193l-101 -116q-56 37 -93 65.5t-85 76t-90 113t-80 150.5h-6q0 -58 20.5 -160t20.5 -174v-1147q0 -72 -20.5 -173.5t-20.5 -159.5z" />
    <glyph glyph-name="uni2196" unicode="&#x2196;" horiz-adv-x="1374" 
d="M1260 70l-86 -86l-734 733q-50 51 -109 138t-100 128l-4 -4q34 -88 50.5 -164t16.5 -143.5t-6 -115t-20 -110.5l-151 11q53 175 50 321t-67 316l52 49q168 -64 313.5 -67t320.5 50l11 -151q-85 -19 -148.5 -25t-165.5 8.5t-217 57.5l-6 -4q42 -42 129 -100t137 -109z" />
    <glyph glyph-name="uni2197" unicode="&#x2197;" horiz-adv-x="1374" 
d="M932 717l-733 -733l-84 86l733 733q50 50 136 108.5t128 100.5l-4 4q-88 -33 -164 -49.5t-142.5 -17t-114.5 5.5t-112 20l13 151q175 -53 321 -50t314 67l51 -49q-64 -170 -67 -316t50 -321l-153 -11q-18 87 -24 149t8 166t57 218l-4 4q-40 -41 -99 -128t-110 -138z" />
    <glyph glyph-name="uni2198" unicode="&#x2198;" horiz-adv-x="1374" 
d="M115 1036l84 86l733 -733q51 -51 110 -138t99 -128l4 4q-43 114 -57 217.5t-8 165.5t24 149l153 -10q-53 -175 -50 -321t67 -316l-51 -49q-168 64 -314 67t-321 -50l-13 151q64 14 112 20t114.5 5.5t142.5 -17t164 -49.5l4 4q-42 42 -128 100.5t-136 108.5z" />
    <glyph glyph-name="uni2199" unicode="&#x2199;" horiz-adv-x="1374" 
d="M440 389l734 733l86 -86l-734 -733q-41 -41 -89.5 -75.5t-94.5 -66t-82 -67.5l6 -4q115 43 217 57.5t165.5 8.5t148.5 -25l-11 -151q-175 53 -320.5 50t-313.5 -67l-52 49q64 170 67 316t-50 321l151 10q14 -64 20 -111t6 -114t-16.5 -143t-50.5 -164l4 -4
q41 42 100 128.5t109 137.5z" />
    <glyph glyph-name="partialdiff" unicode="&#x2202;" horiz-adv-x="1175" 
d="M662 1659q213 0 319 -212t86 -609q-19 -401 -160.5 -629.5t-382.5 -228.5q-187 0 -304.5 140.5t-117.5 375.5q0 113 34 215t95.5 181.5t156.5 126t210 46.5q79 0 146 -22.5t114 -60.5t79 -77.5t56 -85.5q4 151 -14 268.5t-51.5 192t-82.5 122.5t-102 67.5t-114 19.5
q-211 0 -332 -197h-43q134 367 408 367zM549 70q175 0 295 186t145 479q-106 240 -303 240q-70 0 -131 -33.5t-104.5 -88.5t-74.5 -126t-46 -146.5t-15 -148.5q0 -168 61 -265t173 -97z" />
    <glyph glyph-name="emptyset" unicode="&#x2205;" horiz-adv-x="1333" 
d="M1171 1194l60 -59l-168 -168q123 -146 123 -336q0 -106 -41 -202t-111 -166t-166 -111t-202 -41q-192 0 -336 125l-168 -168l-60 59l168 168q-123 146 -123 336q0 141 69.5 261t189 189.5t260.5 69.5q191 0 338 -125zM231 631q0 -154 99 -277l612 613q-122 98 -276 98
q-180 0 -307.5 -127t-127.5 -307zM1102 631q0 154 -101 276l-612 -612q122 -98 277 -98q180 0 308 127t128 307z" />
    <glyph glyph-name="product" unicode="&#x220f;" horiz-adv-x="1726" 
d="M1624 1638v-49q-72 0 -114 -7t-65.5 -27.5t-30.5 -48.5t-7 -79v-1585q0 -51 7 -78.5t30.5 -48t65.5 -27.5t114 -7v-50h-649v50q96 0 142 15t61.5 47t15.5 99v1712h-659v-1712q0 -51 7 -78.5t30.5 -48t65.5 -27.5t114 -7v-50h-650v50q96 0 142.5 15t62 47t15.5 99v1585
q0 67 -15.5 99t-62 47.5t-142.5 15.5v49h1522z" />
    <glyph glyph-name="summation" unicode="&#x2211;" horiz-adv-x="1476" 
d="M102 1638h1182l6 -57l33 -321l-49 -5q-8 78 -18.5 129.5t-24.5 86t-36 52t-48 24.5t-66 7h-708l553 -776l-625 -950h799q66 0 102.5 27t63 104t49.5 234l47 -7l-55 -391l-25 -164h-1180v50l654 991v6l-654 911v49z" />
    <glyph glyph-name="minus" unicode="&#x2212;" horiz-adv-x="978" 
d="M877 539h-775v151h775v-151z" />
    <glyph glyph-name="radical" unicode="&#x221a;" horiz-adv-x="1445" 
d="M1260 1817h83l-344 -1944h-71l-541 1063l-244 -121l-41 74l422 211l447 -901h6z" />
    <glyph glyph-name="infinity" unicode="&#x221e;" horiz-adv-x="1880" 
d="M1403 1212q164 0 269.5 -99.5t105.5 -274.5q0 -179 -107 -285.5t-270 -106.5q-57 0 -110.5 15.5t-94.5 37t-90.5 63.5t-83 75.5t-88.5 93.5q-148 -131 -264.5 -187.5t-227.5 -56.5q-160 0 -250 93.5t-90 238.5q0 157 97.5 254.5t246.5 97.5q53 0 104.5 -14.5t92 -36.5
t86 -58.5t77.5 -68t75 -78.5q90 83 142 127t119.5 89t129 63t131.5 18zM1401 545q125 0 208 83.5t83 211.5q0 117 -70.5 188.5t-181.5 71.5q-38 0 -74.5 -11t-62.5 -23.5t-66.5 -46.5t-61.5 -54t-74.5 -74t-80.5 -80q-11 -11 -23 -20q118 -125 208 -185.5t196 -60.5z
M406 600q87 0 169 53.5t240 200.5q-118 119 -200 170t-169 51q-115 0 -187.5 -74t-72.5 -182q0 -94 58.5 -156.5t161.5 -62.5z" />
    <glyph glyph-name="integral" unicode="&#x222b;" horiz-adv-x="1001" 
d="M686 51q0 -420 -319 -420q-117 0 -191 62t-74 153q0 42 22 69.5t64 27.5q84 0 91 -93l3 -42t6.5 -35t14 -31.5t25 -18.5t39.5 -8q40 0 67.5 22.5t42 64.5t21 93t6.5 117q0 141 -29.5 321.5t-65 325.5t-65 323t-29.5 316q0 203 81 312.5t243 109.5q114 0 187 -62t73 -153
q0 -42 -22 -69t-64 -27q-43 0 -65.5 24.5t-24.5 67.5l-3 42t-6.5 35t-14 31.5t-25 18.5t-39.5 8q-137 0 -137 -303q0 -144 29.5 -323t64.5 -321t64.5 -319.5t29.5 -318.5z" />
    <glyph glyph-name="approxequal" unicode="&#x2248;" horiz-adv-x="1265" 
d="M1114 987h49q-6 -149 -76.5 -234t-189.5 -85q-68 0 -142.5 26t-131 58t-131 58t-142.5 26q-166 0 -198 -166h-50q6 148 76.5 233.5t188.5 85.5q56 0 115 -17.5t109.5 -42.5t100.5 -50t108 -42.5t113 -17.5q169 0 201 168zM1114 598h49q-6 -149 -76.5 -234t-189.5 -85
q-68 0 -142.5 26t-131 57.5t-131 57.5t-142.5 26q-166 0 -198 -165h-50q6 148 76.5 233.5t188.5 85.5q56 0 115 -17.5t109.5 -42.5t100.5 -50t108 -42.5t113 -17.5q169 0 201 168z" />
    <glyph glyph-name="notequal" unicode="&#x2260;" horiz-adv-x="978" 
d="M877 877v-152h-312l-86 -221h398v-152h-459l-111 -282h-74l111 282h-242v152h301l89 221h-390v152h449l121 309h76l-123 -309h252z" />
    <glyph glyph-name="lessequal" unicode="&#x2264;" horiz-adv-x="958" 
d="M856 584v-162l-754 237v224l754 237v-159l-627 -187v-6zM856 371v-158h-754v158h754z" />
    <glyph glyph-name="greaterequal" unicode="&#x2265;" horiz-adv-x="958" 
d="M856 659l-754 -237v162l625 184v6l-625 187v159l754 -237v-224zM856 213h-754v158h754v-158z" />
    <glyph glyph-name="uni2460" unicode="&#x2460;" 
d="M965 1679q140 0 271 -42.5t236.5 -121.5t185 -184.5t122.5 -238t43 -275.5q0 -174 -68 -333t-182.5 -274t-273.5 -183t-334 -68q-177 0 -337 68t-275 183t-183 274t-68 333q0 179 67.5 339t183 274.5t275 181.5t337.5 67zM965 1618q-221 0 -405.5 -107.5t-290 -291.5
t-105.5 -402q0 -164 62 -311.5t168.5 -254t255.5 -169t315 -62.5q216 0 399 106t290 289.5t107 401.5q0 163 -63.5 311t-170 255.5t-254 171t-308.5 63.5zM1063 1311v-854q0 -61 22 -80t99 -19v-28h-402v28q82 0 105.5 19t23.5 80v671q0 30 -2 44t-8.5 25t-23 9t-40.5 -10
t-65 -27l-14 29l286 131z" />
    <glyph glyph-name="uni2461" unicode="&#x2461;" 
d="M965 1679q140 0 271 -42.5t236.5 -121.5t185 -184.5t122.5 -238t43 -275.5q0 -174 -68 -333t-182.5 -274t-273.5 -183t-334 -68q-177 0 -337 68t-275 183t-183 274t-68 333q0 179 67.5 339t183 274.5t275 181.5t337.5 67zM965 1618q-221 0 -405.5 -107.5t-290 -291.5
t-105.5 -402q0 -164 62 -311.5t168.5 -254t255.5 -169t315 -62.5q216 0 399 106t290 289.5t107 401.5q0 163 -63.5 311t-170 255.5t-254 171t-308.5 63.5zM819 449h301q60 0 88 24.5t54 101.5l28 -10l-49 -133l-35 -102h-542v28q86 90 138.5 148t112.5 134t93 133.5t55 124
t22 128.5q0 87 -40 135.5t-121 48.5q-92 0 -144.5 -69.5t-58.5 -186.5h-33q0 168 83 271.5t226 103.5q115 0 177.5 -63.5t62.5 -167.5q0 -76 -33 -158t-96.5 -166.5t-130 -156.5t-158.5 -160v-8z" />
    <glyph glyph-name="uni2462" unicode="&#x2462;" 
d="M965 1679q140 0 271 -42.5t236.5 -121.5t185 -184.5t122.5 -238t43 -275.5q0 -174 -68 -333t-182.5 -274t-273.5 -183t-334 -68q-177 0 -337 68t-275 183t-183 274t-68 333q0 179 67.5 339t183 274.5t275 181.5t337.5 67zM965 1618q-221 0 -405.5 -107.5t-290 -291.5
t-105.5 -402q0 -164 62 -311.5t168.5 -254t255.5 -169t315 -62.5q216 0 399 106t290 289.5t107 401.5q0 163 -63.5 311t-170 255.5t-254 171t-308.5 63.5zM696 410q0 24 17.5 39.5t42.5 15.5q27 0 41 -11.5t32 -39.5q19 -25 41 -36t58 -11q75 0 128.5 52t53.5 165
q0 66 -21 114t-57.5 75t-79 39.5t-92.5 12.5v29q221 57 221 227q0 66 -37 109t-108 43q-141 0 -182 -146h-33q17 115 88 177.5t180 62.5q102 0 170 -59t68 -160q0 -85 -59.5 -150t-166.5 -102v-4q116 -10 189.5 -74.5t73.5 -177.5q0 -134 -102.5 -212.5t-250.5 -78.5
q-84 0 -149.5 28.5t-65.5 72.5z" />
    <glyph glyph-name="uni2463" unicode="&#x2463;" 
d="M965 1679q140 0 271 -42.5t236.5 -121.5t185 -184.5t122.5 -238t43 -275.5q0 -174 -68 -333t-182.5 -274t-273.5 -183t-334 -68q-177 0 -337 68t-275 183t-183 274t-68 333q0 179 67.5 339t183 274.5t275 181.5t337.5 67zM965 1618q-221 0 -405.5 -107.5t-290 -291.5
t-105.5 -402q0 -164 62 -311.5t168.5 -254t255.5 -169t315 -62.5q216 0 399 106t290 289.5t107 401.5q0 163 -63.5 311t-170 255.5t-254 171t-308.5 63.5zM983 590h-383v112l412 623h106v-623h121v-112h-121v-135q0 -61 21.5 -80t93.5 -19v-28h-369v28q75 0 97 19t22 80v135
zM666 707v-5h317v490z" />
    <glyph glyph-name="uni2464" unicode="&#x2464;" 
d="M965 1679q140 0 271 -42.5t236.5 -121.5t185 -184.5t122.5 -238t43 -275.5q0 -174 -68 -333t-182.5 -274t-273.5 -183t-334 -68q-177 0 -337 68t-275 183t-183 274t-68 333q0 179 67.5 339t183 274.5t275 181.5t337.5 67zM965 1618q-221 0 -405.5 -107.5t-290 -291.5
t-105.5 -402q0 -164 62 -311.5t168.5 -254t255.5 -169t315 -62.5q216 0 399 106t290 289.5t107 401.5q0 163 -63.5 311t-170 255.5t-254 171t-308.5 63.5zM893 309q-89 0 -154 29t-65 74q0 26 15.5 42.5t41.5 16.5t43 -13t35 -40q36 -51 96 -51q73 0 122.5 69t49.5 209
q0 128 -45.5 190t-124.5 62t-139 -63l-47 30l104 430h394l-31 -116h-318l-59 -254l6 -4q71 53 156 53q113 0 187.5 -82.5t74.5 -220.5q0 -175 -98 -268t-244 -93z" />
    <glyph glyph-name="uni2465" unicode="&#x2465;" 
d="M965 1679q140 0 271 -42.5t236.5 -121.5t185 -184.5t122.5 -238t43 -275.5q0 -174 -68 -333t-182.5 -274t-273.5 -183t-334 -68q-177 0 -337 68t-275 183t-183 274t-68 333q0 179 67.5 339t183 274.5t275 181.5t337.5 67zM965 1618q-221 0 -405.5 -107.5t-290 -291.5
t-105.5 -402q0 -164 62 -311.5t168.5 -254t255.5 -169t315 -62.5q216 0 399 106t290 289.5t107 401.5q0 163 -63.5 311t-170 255.5t-254 171t-308.5 63.5zM631 727q0 240 141 399t408 201v-29q-287 -69 -367 -380q82 86 195 86q117 0 180 -90.5t63 -227.5q0 -57 -11 -110
t-35 -102t-59 -85.5t-86 -58t-112 -21.5q-151 0 -234 113t-83 305zM788 688q0 -152 40.5 -240t119.5 -88q77 0 113.5 74t36.5 223q0 293 -148 293q-81 0 -147 -78q-15 -83 -15 -184z" />
    <glyph glyph-name="uni2466" unicode="&#x2466;" 
d="M965 1679q140 0 271 -42.5t236.5 -121.5t185 -184.5t122.5 -238t43 -275.5q0 -174 -68 -333t-182.5 -274t-273.5 -183t-334 -68q-177 0 -337 68t-275 183t-183 274t-68 333q0 179 67.5 339t183 274.5t275 181.5t337.5 67zM965 1618q-221 0 -405.5 -107.5t-290 -291.5
t-105.5 -402q0 -164 62 -311.5t168.5 -254t255.5 -169t315 -62.5q216 0 399 106t290 289.5t107 401.5q0 163 -63.5 311t-170 255.5t-254 171t-308.5 63.5zM1276 1290l-363 -985l-110 39l325 825v5h-309q-57 0 -83 -28.5t-46 -119.5l-28 6l34 156l23 102h557z" />
    <glyph glyph-name="uni2467" unicode="&#x2467;" 
d="M965 1679q140 0 271 -42.5t236.5 -121.5t185 -184.5t122.5 -238t43 -275.5q0 -174 -68 -333t-182.5 -274t-273.5 -183t-334 -68q-177 0 -337 68t-275 183t-183 274t-68 333q0 179 67.5 339t183 274.5t275 181.5t337.5 67zM965 1618q-221 0 -405.5 -107.5t-290 -291.5
t-105.5 -402q0 -164 62 -311.5t168.5 -254t255.5 -169t315 -62.5q216 0 399 106t290 289.5t107 401.5q0 163 -63.5 311t-170 255.5t-254 171t-308.5 63.5zM670 547q0 80 50 145t144 133q-87 76 -127.5 139.5t-40.5 133.5q0 100 78.5 163.5t198.5 63.5q116 0 186 -57.5
t70 -149.5q0 -71 -43.5 -123.5t-147.5 -126.5q62 -49 99 -82.5t67.5 -70.5t43 -72t12.5 -76q0 -114 -86.5 -186t-217.5 -72q-125 0 -205.5 68.5t-80.5 169.5zM836 1135q0 -48 31 -96t114 -119q70 57 98.5 106.5t28.5 101.5q0 65 -36 103.5t-99 38.5q-61 0 -99 -37t-38 -98z
M791 545q0 -76 42 -127t130 -51q69 0 110 43t41 114q0 35 -9 62.5t-36.5 58.5t-49.5 50.5t-75 62.5l-7.5 6t-7 5.5t-7.5 6.5q-68 -60 -99.5 -114.5t-31.5 -116.5z" />
    <glyph glyph-name="uni2468" unicode="&#x2468;" 
d="M961 -41q-175 0 -334 67t-274 181.5t-183 274.5t-68 339q0 174 68 333t183 274t274 183t334 68q177 0 337 -68t275 -183t182.5 -274t67.5 -333q0 -179 -67.5 -339t-182.5 -274.5t-274.5 -181.5t-337.5 -67zM961 20q166 0 315 63.5t255 171t168 255.5t62 311
q0 164 -62 311.5t-168.5 254t-255 169t-314.5 62.5q-162 0 -309 -62.5t-254 -169t-170.5 -254.5t-63.5 -311t63.5 -311.5t170.5 -255.5t254.5 -170.5t308.5 -63.5zM1294 911q0 -240 -141 -399t-408 -201v29q287 69 367 381q-80 -84 -194 -84q-118 0 -181 89.5t-63 225.5
q0 56 11 109.5t35.5 102.5t59.5 85.5t85.5 58t111.5 21.5q151 0 234 -113t83 -305zM1139 950q0 151 -41.5 239.5t-120.5 88.5q-77 0 -112.5 -73.5t-35.5 -223.5q0 -293 146 -293q81 0 147 78q17 93 17 184z" />
    <glyph glyph-name="uni2469" unicode="&#x2469;" 
d="M965 1679q140 0 271 -42.5t236.5 -121.5t185 -184.5t122.5 -238t43 -275.5q0 -174 -68 -333t-182.5 -274t-273.5 -183t-334 -68q-177 0 -337 68t-275 183t-183 274t-68 333q0 179 67.5 339t183 274.5t275 181.5t337.5 67zM965 1618q-221 0 -405.5 -107.5t-290 -291.5
t-105.5 -402q0 -164 62 -311.5t168.5 -254t255.5 -169t315 -62.5q159 0 305.5 63t254 169t172 254.5t64.5 310.5q0 163 -63.5 311t-170 255.5t-254 171t-308.5 63.5zM1206 317q-104 0 -179 70t-110.5 183.5t-35.5 256.5q0 141 35.5 254t110.5 183.5t179 70.5
q103 0 178 -69.5t111.5 -183t36.5 -255.5q0 -143 -36.5 -257t-111.5 -183.5t-178 -69.5zM754 1311v-854q0 -61 21.5 -80t98.5 -19v-28h-403v28q83 0 107 19t24 80v671q0 30 -2 44t-8.5 25t-23 9t-40.5 -10t-65 -27l-14 29l286 131zM1206 371q168 0 168 456q0 102 -9 182.5
t-28.5 143.5t-52.5 97t-78 34q-168 0 -168 -457q0 -456 168 -456z" />
    <glyph glyph-name="uni246A" unicode="&#x246a;" 
d="M965 1679q140 0 271 -42.5t236.5 -121.5t185 -184.5t122.5 -238t43 -275.5q0 -174 -68 -333t-182.5 -274t-273.5 -183t-334 -68q-177 0 -337 68t-275 183t-183 274t-68 333q0 179 67.5 339t183 274.5t275 181.5t337.5 67zM965 1618q-221 0 -405.5 -107.5t-290 -291.5
t-105.5 -402q0 -164 62 -311.5t168.5 -254t255.5 -169t315 -62.5q216 0 399 106t290 289.5t107 401.5q0 163 -63.5 311t-170 255.5t-254 171t-308.5 63.5zM829 1311v-854q0 -61 22 -80t99 -19v-28h-403v28q83 0 107 19t24 80v671q0 30 -2 44t-9 25t-23.5 8.5t-40.5 -10
t-66 -26.5l-13 29l287 131zM1311 1311v-854q0 -61 22 -80t99 -19v-28h-404v28q83 0 107 19t24 80v671q0 30 -2 44t-9 25t-23.5 8.5t-40.5 -10t-66 -26.5l-12 29l286 131z" />
    <glyph glyph-name="uni246B" unicode="&#x246b;" 
d="M965 1679q140 0 271 -42.5t236.5 -121.5t185 -184.5t122.5 -238t43 -275.5q0 -174 -68 -333t-182.5 -274t-273.5 -183t-334 -68q-177 0 -337 68t-275 183t-183 274t-68 333q0 179 67.5 339t183 274.5t275 181.5t337.5 67zM965 1618q-221 0 -405.5 -107.5t-290 -291.5
t-105.5 -402q0 -164 62 -311.5t168.5 -254t255.5 -169t315 -62.5q216 0 399 106t290 289.5t107 401.5q0 163 -63.5 311t-170 255.5t-254 171t-308.5 63.5zM735 1311v-854q0 -61 22 -80t99 -19v-28h-403v28q83 0 107 19t24 80v671q0 30 -2.5 44t-9 25t-23 9t-41 -10
t-66.5 -27l-12 29l287 131zM1065 449h303q59 0 86 24.5t55 101.5l27 -10l-47 -133l-37 -102h-543v28q87 91 138.5 148t113.5 134t94.5 134t55 123.5t22.5 128.5q0 87 -40.5 135.5t-123.5 48.5q-90 0 -142.5 -69.5t-57.5 -186.5h-35q0 168 84 271.5t227 103.5
q115 0 176.5 -63t61.5 -168q0 -76 -33 -158t-96.5 -166.5t-130 -156.5t-158.5 -160v-8z" />
    <glyph glyph-name="uni246C" unicode="&#x246c;" 
d="M965 1679q140 0 271 -42.5t236.5 -121.5t185 -184.5t122.5 -238t43 -275.5q0 -174 -68 -333t-182.5 -274t-273.5 -183t-334 -68q-177 0 -337 68t-275 183t-183 274t-68 333q0 179 67.5 339t183 274.5t275 181.5t337.5 67zM965 1618q-221 0 -405.5 -107.5t-290 -291.5
t-105.5 -402q0 -164 62 -311.5t168.5 -254t255.5 -169t315 -62.5q216 0 399 106t290 289.5t107 401.5q0 163 -63.5 311t-170 255.5t-254 171t-308.5 63.5zM909 412q0 24 17 38.5t43 14.5t40.5 -11t32.5 -38q19 -25 41 -36t58 -11q75 0 128.5 52t53.5 165q0 65 -21 113
t-57.5 74.5t-79 39t-92.5 12.5v29q221 60 221 227q0 66 -37 110t-108 44q-140 0 -182 -145h-33q17 114 88 176.5t180 62.5q102 0 170 -60t68 -161q0 -84 -59.5 -149t-166.5 -101v-4q116 -11 189.5 -75.5t73.5 -176.5q0 -135 -102.5 -213t-250.5 -78q-85 0 -150 28t-65 73z
M764 1309v-856q0 -59 22.5 -78t98.5 -19v-28h-402v28q83 0 107 18.5t24 78.5v673q0 29 -2 43t-9 25t-23 9t-41 -10.5t-66 -27.5l-12 31l287 131z" />
    <glyph glyph-name="uni246D" unicode="&#x246d;" 
d="M965 1679q140 0 271 -42.5t236.5 -121.5t185 -184.5t122.5 -238t43 -275.5q0 -174 -68 -333t-182.5 -274t-273.5 -183t-334 -68q-177 0 -337 68t-275 183t-183 274t-68 333q0 179 67.5 339t183 274.5t275 181.5t337.5 67zM965 1618q-221 0 -405.5 -107.5t-290 -291.5
t-105.5 -402q0 -164 62 -311.5t168.5 -254t255.5 -169t315 -62.5q216 0 399 106t290 289.5t107 401.5q0 163 -63.5 311t-170 255.5t-254 171t-308.5 63.5zM735 1311v-854q0 -61 22 -80t99 -19v-28h-403v28q83 0 107 19t24 80v671q0 30 -2.5 44t-9 25t-23 9t-41 -10
t-66.5 -27l-12 29l287 131zM1202 592h-383v113l414 622h104v-622h121v-113h-121v-135q0 -61 21.5 -80t93.5 -19v-28h-369v28q75 0 97 19t22 80v135zM885 709v-4h317v489z" />
    <glyph glyph-name="uni246E" unicode="&#x246e;" 
d="M965 1679q140 0 271 -42.5t236.5 -121.5t185 -184.5t122.5 -238t43 -275.5q0 -174 -68 -333t-182.5 -274t-273.5 -183t-334 -68q-177 0 -337 68t-275 183t-183 274t-68 333q0 179 67.5 339t183 274.5t275 181.5t337.5 67zM965 1618q-221 0 -405.5 -107.5t-290 -291.5
t-105.5 -402q0 -164 62 -311.5t168.5 -254t255.5 -169t315 -62.5q216 0 399 106t290 289.5t107 401.5q0 163 -63.5 311t-170 255.5t-254 171t-308.5 63.5zM766 1311v-854q0 -61 22 -80t99 -19v-28h-404v28q83 0 107 19t24 80v671q0 30 -2 44t-9 25t-23.5 8.5t-40.5 -10
t-66 -26.5l-12 29l287 131zM1126 315q-88 0 -153.5 29.5t-65.5 75.5q0 26 16.5 41.5t43.5 15.5q43 0 77 -53q36 -51 97 -51q73 0 122.5 69.5t49.5 210.5q0 127 -46 188.5t-126 61.5t-137 -63l-48 30l103 430h395l-31 -116h-319l-57 -254l4 -4q70 53 157 53q113 0 187.5 -82
t74.5 -219q0 -90 -27.5 -161t-75.5 -114t-109.5 -65.5t-131.5 -22.5z" />
    <glyph glyph-name="uni246F" unicode="&#x246f;" 
d="M965 1679q140 0 271 -42.5t236.5 -121.5t185 -184.5t122.5 -238t43 -275.5q0 -174 -68 -333t-182.5 -274t-273.5 -183t-334 -68q-177 0 -337 68t-275 183t-183 274t-68 333q0 179 67.5 339t183 274.5t275 181.5t337.5 67zM965 1618q-221 0 -405.5 -107.5t-290 -291.5
t-105.5 -402q0 -164 62 -311.5t168.5 -254t255.5 -169t315 -62.5q216 0 399 106t290 289.5t107 401.5q0 163 -63.5 311t-170 255.5t-254 171t-308.5 63.5zM739 1311v-854q0 -61 22 -80t99 -19v-28h-403v28q83 0 107 19t24 80v671q0 30 -2.5 44t-9 25t-23 9t-41 -10
t-66.5 -27l-12 29l287 131zM877 727q0 240 141 399t407 201v-29q-286 -69 -366 -380q82 86 194 86q79 0 135.5 -44.5t82.5 -115t26 -158.5q0 -57 -11 -110t-35 -102t-59 -85.5t-86 -58t-112 -21.5q-151 0 -234 113t-83 305zM1034 688q0 -152 40.5 -240t119.5 -88
q77 0 113 73.5t36 223.5q0 293 -147 293q-81 0 -147 -78q-15 -83 -15 -184z" />
    <glyph glyph-name="uni2470" unicode="&#x2470;" 
d="M965 1679q140 0 271 -42.5t236.5 -121.5t185 -184.5t122.5 -238t43 -275.5q0 -174 -68 -333t-182.5 -274t-273.5 -183t-334 -68q-177 0 -337 68t-275 183t-183 274t-68 333q0 179 67.5 339t183 274.5t275 181.5t337.5 67zM965 1618q-221 0 -405.5 -107.5t-290 -291.5
t-105.5 -402q0 -164 62 -311.5t168.5 -254t255.5 -169t315 -62.5q216 0 399 106t290 289.5t107 401.5q0 163 -63.5 311t-170 255.5t-254 171t-308.5 63.5zM748 1311v-854q0 -61 21.5 -80t98.5 -19v-28h-401v28q82 0 105.5 19t23.5 80v671q0 30 -2 44t-8.5 25t-23 9
t-40.5 -10t-65 -27l-15 29l287 131zM1485 1307l-363 -985l-110 38l325 826v4h-309q-58 0 -83.5 -28.5t-45.5 -119.5l-29 7l33 155l23 103h559z" />
    <glyph glyph-name="uni2471" unicode="&#x2471;" 
d="M965 1679q140 0 271 -42.5t236.5 -121.5t185 -184.5t122.5 -238t43 -275.5q0 -174 -68 -333t-182.5 -274t-273.5 -183t-334 -68q-177 0 -337 68t-275 183t-183 274t-68 333q0 179 67.5 339t183 274.5t275 181.5t337.5 67zM965 1618q-221 0 -405.5 -107.5t-290 -291.5
t-105.5 -402q0 -164 62 -311.5t168.5 -254t255.5 -169t315 -62.5q216 0 399 106t290 289.5t107 401.5q0 163 -63.5 311t-170 255.5t-254 171t-308.5 63.5zM745 1311v-854q0 -61 22 -80t99 -19v-28h-403v28q83 0 107 19t24 80v671q0 30 -2 44t-8.5 25t-23 9t-40.5 -10
t-65 -27l-15 29l287 131zM897 551q0 80 50 145.5t145 132.5q-89 75 -129.5 138.5t-40.5 132.5q0 102 78.5 165.5t199.5 63.5q115 0 184.5 -57.5t69.5 -149.5q0 -71 -43 -123.5t-145 -126.5q122 -96 170.5 -159t48.5 -142q0 -114 -86 -186t-217 -72q-124 0 -204.5 68.5
t-80.5 169.5zM1061 1139q0 -48 31.5 -96t113.5 -119q71 58 100 107t29 102q0 64 -36.5 102.5t-98.5 38.5t-100.5 -37t-38.5 -98zM1016 549q0 -76 42.5 -127t129.5 -51q70 0 111.5 42.5t41.5 112.5q0 36 -9.5 64t-35.5 58.5t-50.5 51.5t-75.5 63q-14 11 -21 17
q-133 -115 -133 -231z" />
    <glyph glyph-name="uni2472" unicode="&#x2472;" 
d="M965 1679q140 0 271 -42.5t236.5 -121.5t185 -184.5t122.5 -238t43 -275.5q0 -174 -68 -333t-182.5 -274t-273.5 -183t-334 -68q-177 0 -337 68t-275 183t-183 274t-68 333q0 179 67.5 339t183 274.5t275 181.5t337.5 67zM965 1618q-221 0 -405.5 -107.5t-290 -291.5
t-105.5 -402q0 -164 62 -311.5t168.5 -254t255.5 -169t315 -62.5q216 0 399 106t290 289.5t107 401.5q0 163 -63.5 311t-170 255.5t-254 171t-308.5 63.5zM1505 940q0 -240 -141 -399t-408 -201v29q287 69 367 381q-80 -84 -195 -84q-118 0 -180.5 89t-62.5 226
q0 56 11 109.5t35.5 102.5t59.5 85.5t85.5 58t111.5 21.5q151 0 234 -113t83 -305zM754 1311v-856q0 -61 21.5 -79t98.5 -18v-30h-403v30q84 0 107.5 18t23.5 79v673q0 29 -2 43t-9 25t-23 9t-41 -10.5t-66 -27.5l-12 31l174 80l112 49zM1350 979q0 151 -41.5 239.5
t-120.5 88.5q-77 0 -112.5 -73.5t-35.5 -223.5q0 -293 146 -293q81 0 147 78q17 93 17 184z" />
    <glyph glyph-name="uni2473" unicode="&#x2473;" 
d="M965 1679q140 0 271 -42.5t236.5 -121.5t185 -184.5t122.5 -238t43 -275.5q0 -174 -68 -333t-182.5 -274t-273.5 -183t-334 -68q-177 0 -337 68t-275 183t-183 274t-68 333q0 179 67.5 339t183 274.5t275 181.5t337.5 67zM965 1618q-221 0 -405.5 -107.5t-290 -291.5
t-105.5 -402q0 -164 62 -311.5t168.5 -254t255.5 -169t315 -62.5q216 0 399 106t290 289.5t107 401.5q0 163 -63.5 311t-170 255.5t-254 171t-308.5 63.5zM1292 309q-99 0 -171 70t-106 184t-34 256q0 140 34 253.5t106 184t171 70.5t171.5 -70t107.5 -183.5t35 -254.5
q0 -143 -35 -257t-107.5 -183.5t-171.5 -69.5zM508 434h289q59 0 85.5 24t51.5 99l29 -10l-45 -129l-35 -103h-527v29q85 93 134 148.5t109 133t91.5 134.5t53.5 123.5t22 128.5q0 87 -39 135.5t-119 48.5q-89 0 -139 -69.5t-55 -186.5h-35q0 167 82 271t219 104
q112 0 171.5 -63.5t59.5 -168.5q0 -76 -32 -158t-93 -166.5t-125 -156.5t-153 -160v-8zM1292 360q162 0 162 459q0 455 -162 455q-159 0 -159 -455q0 -459 159 -459z" />
    <glyph glyph-name="uni24EA" unicode="&#x24ea;" 
d="M965 1679q140 0 271 -42.5t236.5 -121.5t185 -184.5t122.5 -238t43 -275.5q0 -174 -68 -333t-182.5 -274t-273.5 -183t-334 -68q-177 0 -337 68t-275 183t-183 274t-68 333q0 179 67.5 339t183 274.5t275 181.5t337.5 67zM965 1618q-221 0 -405.5 -107.5t-290 -291.5
t-105.5 -402q0 -164 62 -311.5t168.5 -254t255.5 -169t315 -62.5q216 0 399 106t290 289.5t107 401.5q0 163 -63.5 311t-170 255.5t-254 171t-308.5 63.5zM971 309q-104 0 -179 70t-111 184t-36 256q0 140 36 253.5t111 184t179 70.5q103 0 178 -70t111 -183.5t36 -254.5
q0 -143 -36 -257t-111 -183.5t-178 -69.5zM971 360q45 0 78 34t52.5 97t28.5 144.5t9 183.5q0 455 -168 455t-168 -455q0 -459 168 -459z" />
    <glyph glyph-name="uni24EB" unicode="&#x24eb;" 
d="M965 1679q-178 0 -337.5 -67t-275 -181.5t-183 -274.5t-67.5 -339q0 -174 68 -333t183 -274t275 -183t337 -68q175 0 334 68t273.5 183t182.5 274t68 333q0 143 -43 275.5t-122.5 238t-185 184.5t-236.5 121.5t-271 42.5zM829 1311v-854q0 -61 22 -80t99 -19v-28h-403v28
q83 0 107 19t24 80v671q0 30 -2 44t-9 25t-23.5 8.5t-40.5 -10t-66 -26.5l-13 29l287 131zM1309 1311v-854q0 -61 22 -80t99 -19v-28h-404v28q83 0 107 19t24 80v671q0 30 -2 44t-8.5 25t-23 9t-40.5 -10t-65 -27l-14 29l286 131z" />
    <glyph glyph-name="uni24EC" unicode="&#x24ec;" 
d="M965 1679q-178 0 -337.5 -67t-275 -181.5t-183 -274.5t-67.5 -339q0 -174 68 -333t183 -274t275 -183t337 -68q175 0 334 68t273.5 183t182.5 274t68 333q0 143 -43 275.5t-122.5 238t-185 184.5t-236.5 121.5t-271 42.5zM733 1311v-854q0 -61 22 -80t99 -19v-28h-401v28
q82 0 105.5 19t23.5 80v671q0 30 -2.5 44t-9 25t-23 9t-40.5 -10t-65 -27l-14 29l287 131zM1077 449h301q60 0 88 24.5t54 101.5l28 -10l-49 -133l-35 -102h-542v28q87 91 138.5 148t113.5 134t94.5 134t55 123.5t22.5 128.5q0 87 -40.5 135.5t-123.5 48.5q-92 0 -144 -69.5
t-57 -186.5h-35q0 167 84 271t225 104q115 0 177.5 -63.5t62.5 -167.5q0 -76 -33 -158t-96.5 -166.5t-130 -156.5t-158.5 -160v-8z" />
    <glyph glyph-name="uni24ED" unicode="&#x24ed;" 
d="M965 1679q-178 0 -337.5 -67t-275 -181.5t-183 -274.5t-67.5 -339q0 -174 68 -333t183 -274t275 -183t337 -68q175 0 334 68t273.5 183t182.5 274t68 333q0 143 -43 275.5t-122.5 238t-185 184.5t-236.5 121.5t-271 42.5zM737 1311v-854q0 -61 22 -80t99 -19v-28h-403v28
q83 0 107 19t24 80v671q0 30 -2.5 44t-9 25t-23 9t-40.5 -10t-65 -27l-14 29l287 131zM907 410q0 24 16.5 39.5t41.5 15.5q7 0 13.5 -1t11 -2.5t10.5 -5.5t8.5 -5.5t8 -8t7 -8t8 -10t8.5 -10.5q33 -47 99 -47q73 0 126.5 52t53.5 165q0 65 -21 113t-57 74.5t-79 39t-93 12.5
v31q223 56 223 227q0 65 -37.5 108.5t-109.5 43.5q-143 0 -180 -146h-35q19 115 90 177.5t180 62.5q100 0 168 -60t68 -161q0 -84 -59.5 -149t-166.5 -101v-4q116 -11 190.5 -75t74.5 -177q0 -135 -102.5 -213t-250.5 -78q-86 0 -150.5 28t-64.5 73z" />
    <glyph glyph-name="uni24EE" unicode="&#x24ee;" 
d="M965 1679q-178 0 -337.5 -67t-275 -181.5t-183 -274.5t-67.5 -339q0 -174 68 -333t183 -274t275 -183t337 -68q175 0 334 68t273.5 183t182.5 274t68 333q0 143 -43 275.5t-122.5 238t-185 184.5t-236.5 121.5t-271 42.5zM731 1311v-854q0 -61 22 -80t99 -19v-28h-403v28
q83 0 107 19t24 80v671q0 30 -2.5 44t-9 25t-23 9t-40.5 -10t-65 -27l-14 29l287 131zM1204 592h-383v113l412 622h106v-622h121v-113h-121v-135q0 -61 21.5 -80t93.5 -19v-28h-369v28q75 0 97 19t22 80v135zM887 709v-4h317v489z" />
    <glyph glyph-name="uni24EF" unicode="&#x24ef;" 
d="M965 1679q-178 0 -337.5 -67t-275 -181.5t-183 -274.5t-67.5 -339q0 -174 68 -333t183 -274t275 -183t337 -68q175 0 334 68t273.5 183t182.5 274t68 333q0 143 -43 275.5t-122.5 238t-185 184.5t-236.5 121.5t-271 42.5zM754 1311v-854q0 -61 21.5 -80t98.5 -19v-28
h-401v28q83 0 106 19t23 80v671q0 30 -2 44t-8.5 25t-22.5 8.5t-40 -10t-66 -26.5l-14 29l286 131zM1102 322q-88 0 -153.5 29t-65.5 73q0 26 16 41.5t41 15.5q27 0 44 -13t34 -40q36 -51 96 -51q73 0 122.5 69.5t49.5 210.5q0 127 -45.5 189.5t-124.5 62.5q-77 0 -139 -65
l-47 30l104 433h393l-28 -119h-320l-59 -254l6 -4q73 55 156 55q113 0 187.5 -83t74.5 -220q0 -175 -98 -267.5t-244 -92.5z" />
    <glyph glyph-name="uni24F0" unicode="&#x24f0;" 
d="M965 1679q-178 0 -337.5 -67t-275 -181.5t-183 -274.5t-67.5 -339q0 -174 68 -333t183 -274t275 -183t337 -68q175 0 334 68t273.5 183t182.5 274t68 333q0 143 -43 275.5t-122.5 238t-185 184.5t-236.5 121.5t-271 42.5zM874 731q0 240 141 399t408 201v-28
q-286 -69 -366 -381q80 84 194 84q118 0 181 -89.5t63 -226.5q0 -57 -11 -110t-35 -102t-59 -85.5t-86 -58t-112 -21.5q-151 0 -234.5 113t-83.5 305zM756 1311v-856q0 -61 22 -79t99 -18v-30h-404v30q84 0 107.5 18t23.5 79v673q0 29 -2 43t-9 25t-23 9t-41 -10.5
t-66 -27.5l-12 31l174 80l112 49zM1032 692q0 -152 40.5 -239.5t119.5 -87.5q77 0 113 73.5t36 223.5q0 292 -147 292q-82 0 -147 -77q-15 -82 -15 -185z" />
    <glyph glyph-name="uni24F1" unicode="&#x24f1;" 
d="M965 1679q-178 0 -337.5 -67t-275 -181.5t-183 -274.5t-67.5 -339q0 -174 68 -333t183 -274t275 -183t337 -68q175 0 334 68t273.5 183t182.5 274t68 333q0 143 -43 275.5t-122.5 238t-185 184.5t-236.5 121.5t-271 42.5zM752 1311v-854q0 -61 22.5 -80t97.5 -19v-28
h-401v28q83 0 107 19t24 80v671q0 30 -2 44t-9 25t-23.5 8.5t-40.5 -10t-66 -26.5l-12 29l286 131zM1479 1305l-363 -986l-110 39l325 826v4h-309q-57 0 -83 -29t-46 -119l-29 7l35 153l23 105h557z" />
    <glyph glyph-name="uni24F2" unicode="&#x24f2;" 
d="M965 1679q-178 0 -337.5 -67t-275 -181.5t-183 -274.5t-67.5 -339q0 -174 68 -333t183 -274t275 -183t337 -68q175 0 334 68t273.5 183t182.5 274t68 333q0 143 -43 275.5t-122.5 238t-185 184.5t-236.5 121.5t-271 42.5zM737 1311v-854q0 -61 22 -80t99 -19v-28h-403v28
q83 0 107 19t24 80v671q0 30 -2.5 44t-9 25t-23 9t-41 -10t-66.5 -27l-12 29l287 131zM897 547q0 80 49.5 144t145.5 134q-89 76 -129.5 138.5t-40.5 132.5q0 102 78.5 165.5t199.5 63.5q114 0 184 -58.5t70 -150.5q0 -69 -43 -123t-145 -127q122 -96 170.5 -159t48.5 -142
q0 -114 -86 -185t-217 -71q-124 0 -204.5 68.5t-80.5 169.5zM1061 1133q0 -47 31 -94t114 -119q71 58 100 106t29 100q0 65 -37 104.5t-98 39.5q-62 0 -100.5 -37.5t-38.5 -99.5zM1016 543q0 -74 43 -125t129 -51q70 0 111.5 42t41.5 113q0 36 -9.5 64t-35.5 58.5
t-50.5 51.5t-75.5 63q-14 11 -21 17q-133 -115 -133 -233z" />
    <glyph glyph-name="uni24F3" unicode="&#x24f3;" 
d="M965 1679q-178 0 -337.5 -67t-275 -181.5t-183 -274.5t-67.5 -339q0 -174 68 -333t183 -274t275 -183t337 -68q175 0 334 68t273.5 183t182.5 274t68 333q0 143 -43 275.5t-122.5 238t-185 184.5t-236.5 121.5t-271 42.5zM1540 918q0 -240 -140.5 -399.5t-406.5 -201.5
v29q285 69 365 381q-80 -84 -195 -84q-117 0 -179 89t-62 226q0 57 11 110t35 102t59 85.5t86 58t112 21.5q150 0 232.5 -112.5t82.5 -304.5zM752 1311v-854q0 -61 22.5 -80t97.5 -19v-28h-401v28q83 0 107 19t24 80v671q0 30 -2 44t-9 25t-23.5 8.5t-40.5 -10t-66 -26.5
l-12 29l286 131zM1384 956q0 151 -41 239.5t-120 88.5q-77 0 -112.5 -73.5t-35.5 -223.5q0 -293 146 -293q81 0 147 78q16 75 16 184z" />
    <glyph glyph-name="uni24F4" unicode="&#x24f4;" 
d="M965 1679q-178 0 -337.5 -67t-275 -181.5t-183 -274.5t-67.5 -339q0 -174 68 -333t183 -274t275 -183t337 -68q175 0 334 68t273.5 183t182.5 274t68 333q0 143 -43 275.5t-122.5 238t-185 184.5t-236.5 121.5t-271 42.5zM516 449h289q59 0 85.5 24t53.5 98l27 -10
l-45 -129l-35 -102h-524v28q84 92 133.5 148.5t109.5 133.5t91 134t53 123.5t22 128.5q0 87 -40 135.5t-118 48.5q-89 0 -139.5 -69.5t-56.5 -186.5h-33q0 168 81.5 271.5t219.5 103.5q111 0 170.5 -63t59.5 -168q0 -76 -32 -158t-92.5 -166t-125.5 -157t-154 -160v-8z
M1313 309q-99 0 -171 70t-106.5 184t-34.5 256q0 140 34.5 253.5t106.5 184t171 70.5q100 0 172.5 -70t107.5 -183.5t35 -254.5q0 -143 -35 -257t-107.5 -183.5t-172.5 -69.5zM1313 360q85 0 124.5 123.5t39.5 335.5q0 210 -39.5 332.5t-124.5 122.5q-160 0 -160 -455
q0 -459 160 -459z" />
    <glyph glyph-name="uni24FF" unicode="&#x24ff;" 
d="M965 1679q-178 0 -337.5 -67t-275 -181.5t-183 -274.5t-67.5 -339q0 -174 68 -333t183 -274t275 -183t337 -68q175 0 334 68t273.5 183t182.5 274t68 333q0 143 -43 275.5t-122.5 238t-185 184.5t-236.5 121.5t-271 42.5zM971 309q-104 0 -179 70t-111 184t-36 256
q0 140 36 253.5t111 184t179 70.5q103 0 178 -70t111 -183.5t36 -254.5q0 -143 -36 -257t-111 -183.5t-178 -69.5zM971 360q45 0 78 34t52.5 97t28.5 144.5t9 183.5q0 455 -168 455t-168 -455q0 -459 168 -459z" />
    <glyph glyph-name="lozenge" unicode="&#x25ca;" horiz-adv-x="1183" 
d="M502 1638h176l403 -841l-403 -842h-176l-400 842zM586 106h6l321 691l-321 690h-6l-316 -690z" />
    <glyph glyph-name="uni2776" unicode="&#x2776;" 
d="M965 1679q-178 0 -337.5 -67t-275 -181.5t-183 -274.5t-67.5 -339q0 -174 68 -333t183 -274t275 -183t337 -68q175 0 334 68t273.5 183t182.5 274t68 333q0 143 -43 275.5t-122.5 238t-185 184.5t-236.5 121.5t-271 42.5zM1040 1311v-854q0 -61 22 -80t99 -19v-28h-403
v28q83 0 107 19t24 80v671q0 30 -2 44t-8.5 25t-23 9t-40.5 -10t-65 -27l-15 29l287 131z" />
    <glyph glyph-name="uni2777" unicode="&#x2777;" 
d="M965 1679q-178 0 -337.5 -67t-275 -181.5t-183 -274.5t-67.5 -339q0 -174 68 -333t183 -274t275 -183t337 -68q175 0 334 68t273.5 183t182.5 274t68 333q0 143 -43 275.5t-122.5 238t-185 184.5t-236.5 121.5t-271 42.5zM811 449h301q60 0 87.5 24.5t53.5 101.5l29 -10
l-49 -133l-35 -102h-543v28q87 91 138.5 148t113.5 134t94.5 134t55 123.5t22.5 128.5q0 87 -40.5 135.5t-123.5 48.5q-92 0 -143.5 -69.5t-56.5 -186.5h-35q0 167 84 271t225 104q115 0 177.5 -63.5t62.5 -167.5q0 -76 -33 -158t-96.5 -166.5t-130 -156.5t-158.5 -160v-8z
" />
    <glyph glyph-name="uni2778" unicode="&#x2778;" 
d="M965 1679q-178 0 -337.5 -67t-275 -181.5t-183 -274.5t-67.5 -339q0 -174 68 -333t183 -274t275 -183t337 -68q175 0 334 68t273.5 183t182.5 274t68 333q0 143 -43 275.5t-122.5 238t-185 184.5t-236.5 121.5t-271 42.5zM684 410q0 25 16.5 40t42.5 15q18 0 32.5 -7.5
t21.5 -16t20 -27.5q19 -26 40.5 -36.5t57.5 -10.5q34 0 64.5 11.5t57.5 35t43 67.5t16 103q0 65 -20.5 113t-57 74.5t-78.5 39t-92 12.5v31q221 57 221 227q0 65 -37.5 108.5t-109.5 43.5q-144 0 -181 -146h-32q17 115 88 177.5t180 62.5q102 0 169.5 -60t67.5 -161
q0 -84 -59.5 -149t-165.5 -101v-4q116 -11 189 -75t73 -177q0 -135 -102 -213t-250 -78q-86 0 -150.5 28t-64.5 73z" />
    <glyph glyph-name="uni2779" unicode="&#x2779;" 
d="M965 1679q-178 0 -337.5 -67t-275 -181.5t-183 -274.5t-67.5 -339q0 -174 68 -333t183 -274t275 -183t337 -68q175 0 334 68t273.5 183t182.5 274t68 333q0 143 -43 275.5t-122.5 238t-185 184.5t-236.5 121.5t-271 42.5zM961 592h-381v113l411 620h107v-620h119v-113
h-119v-135q0 -61 20 -80t92 -19v-28h-366v28q74 0 95.5 19t21.5 80v135zM643 709v-4h318v489z" />
    <glyph glyph-name="uni277A" unicode="&#x277a;" 
d="M965 1679q-178 0 -337.5 -67t-275 -181.5t-183 -274.5t-67.5 -339q0 -174 68 -333t183 -274t275 -183t337 -68q175 0 334 68t273.5 183t182.5 274t68 333q0 143 -43 275.5t-122.5 238t-185 184.5t-236.5 121.5t-271 42.5zM893 307q-88 0 -153.5 29.5t-65.5 75.5
q0 26 16 41.5t41 15.5q27 0 44 -13t34 -40q39 -51 96 -51q73 0 123.5 69.5t50.5 210.5q0 127 -46.5 188.5t-125.5 61.5q-78 0 -139 -64l-47 31l104 430h394l-29 -116h-320l-59 -254l6 -4q70 53 156 53q113 0 187.5 -82t74.5 -219q0 -90 -27.5 -161t-75.5 -114t-108.5 -65.5
t-130.5 -22.5z" />
    <glyph glyph-name="uni277B" unicode="&#x277b;" 
d="M965 1679q-178 0 -337.5 -67t-275 -181.5t-183 -274.5t-67.5 -339q0 -174 68 -333t183 -274t275 -183t337 -68q175 0 334 68t273.5 183t182.5 274t68 333q0 143 -43 275.5t-122.5 238t-185 184.5t-236.5 121.5t-271 42.5zM627 725q0 240 140.5 399t406.5 201v-29
q-285 -69 -365 -381q80 84 195 84q118 0 180.5 -89t62.5 -226q0 -71 -18.5 -137t-54.5 -120.5t-96 -87t-136 -32.5q-150 0 -232.5 113t-82.5 305zM782 686q0 -151 41.5 -239.5t120.5 -88.5q77 0 112.5 73.5t35.5 223.5q0 293 -146 293q-81 0 -147 -78q-17 -93 -17 -184z" />
    <glyph glyph-name="uni277C" unicode="&#x277c;" 
d="M965 1679q-178 0 -337.5 -67t-275 -181.5t-183 -274.5t-67.5 -339q0 -174 68 -333t183 -274t275 -183t337 -68q175 0 334 68t273.5 183t182.5 274t68 333q0 143 -43 275.5t-122.5 238t-185 184.5t-236.5 121.5t-271 42.5zM1264 1292l-363 -985l-110 39l325 825v5h-309
q-57 0 -83 -28.5t-46 -119.5l-29 6l35 156l23 102h557z" />
    <glyph glyph-name="uni277D" unicode="&#x277d;" 
d="M965 1679q-178 0 -337.5 -67t-275 -181.5t-183 -274.5t-67.5 -339q0 -174 68 -333t183 -274t275 -183t337 -68q175 0 334 68t273.5 183t182.5 274t68 333q0 143 -43 275.5t-122.5 238t-185 184.5t-236.5 121.5t-271 42.5zM666 545q0 80 50 145t144 133
q-87 76 -127.5 139.5t-40.5 133.5q0 100 79 163.5t200 63.5q115 0 184.5 -57.5t69.5 -149.5q0 -70 -43 -123t-146 -127q121 -98 170 -160.5t49 -140.5q0 -114 -86 -186t-217 -72q-125 0 -205.5 68.5t-80.5 169.5zM831 1133q0 -48 31.5 -96t114.5 -119q70 57 98.5 106.5
t28.5 101.5q0 65 -36 103.5t-97 38.5q-62 0 -101 -37t-39 -98zM786 543q0 -76 42.5 -127t129.5 -51q69 0 111.5 43.5t42.5 113.5q0 35 -9.5 62.5t-35 56.5t-49.5 50.5t-74 61.5q-17 14 -26 21q-68 -60 -100 -115t-32 -116z" />
    <glyph glyph-name="uni277E" unicode="&#x277e;" 
d="M961 -41q178 0 337.5 67t274.5 181.5t182.5 274.5t67.5 339q0 174 -67.5 333t-182.5 274t-275 183t-337 68q-175 0 -334 -68t-274 -183t-183 -274t-68 -333q0 -179 68 -339t183 -274.5t274 -181.5t334 -67zM1298 913q0 -240 -140 -399t-406 -201v29q284 71 364 381
q-80 -84 -194 -84q-118 0 -180 89t-62 226q0 57 11 110t35 102t59 85.5t86 58t112 21.5q150 0 232.5 -113t82.5 -305zM1143 952q0 151 -41.5 239.5t-120.5 88.5q-77 0 -112 -73t-35 -224q0 -293 145 -293q81 0 147 78q17 83 17 184z" />
    <glyph glyph-name="uni277F" unicode="&#x277f;" 
d="M965 1679q-178 0 -337.5 -67t-275 -181.5t-183 -274.5t-67.5 -339q0 -174 68 -333t183 -274t275 -183t337 -68q175 0 334 68t273.5 183t182.5 274t68 333q0 143 -43 275.5t-122.5 238t-185 184.5t-236.5 121.5t-271 42.5zM729 1311v-854q0 -61 22.5 -80t98.5 -19v-28
h-401v28q83 0 107 19t24 80v671q0 30 -2.5 44t-9 25t-23 9t-41 -10t-66.5 -27l-12 29l287 131zM1182 309q-103 0 -177.5 70t-110.5 184t-36 256q0 140 35.5 253.5t110.5 184t178 70.5q104 0 179.5 -70t111.5 -183.5t36 -254.5q0 -143 -36 -257t-111.5 -183.5t-179.5 -69.5z
M1182 360q45 0 78.5 34t53 97t29 144.5t9.5 183.5q0 101 -9.5 182t-29 143t-53 96t-78.5 34q-166 0 -166 -455q0 -459 166 -459z" />
    <glyph glyph-name="fi" unicode="&#xfb01;" horiz-adv-x="1165" 
d="M991 1094v-883q0 -100 26 -131t118 -31v-49h-488v49q92 0 119 31t27 131v633q0 27 -0.5 40.5t-3.5 35.5t-10.5 33.5t-19.5 24t-32.5 18t-48.5 5.5h-289v-790q0 -69 15 -101.5t56.5 -46.5t129.5 -14v-49h-553v49q98 0 125.5 31t27.5 131v790h-135v68l135 10v142
q0 104 25.5 187t67.5 136t99.5 88t116.5 49.5t124 14.5q127 0 218 -58.5t91 -144.5q0 -45 -29 -72.5t-78 -27.5q-21 0 -36 5.5t-31.5 22.5t-25 28.5t-30.5 43.5q-32 48 -60 71t-73 23q-180 0 -180 -313v-189h332q140 0 244 37z" />
    <glyph glyph-name="fl" unicode="&#xfb02;" horiz-adv-x="1179" 
d="M1001 1624v-1413q0 -100 27 -131t119 -31v-49h-483v49q89 0 114 31t25 131v1188q-20 -4 -35 -4q-39 0 -63.5 23.5t-53.5 74.5q-29 48 -54 71t-62 23q-71 0 -108.5 -69t-37.5 -244v-189h205v-84h-205v-790q0 -100 32 -131t144 -31v-49h-528v49q98 0 125.5 31t27.5 131v790
h-135v68l135 10v176q0 114 32.5 201t87.5 136t117.5 72.5t131.5 23.5q96 0 178.5 -37t116.5 -95l119 91z" />
    <glyph glyph-name="i.loclTRK" horiz-adv-x="573" 
d="M274 1305q-50 0 -85 35.5t-35 84.5q0 50 35.5 85.5t84.5 35.5q50 0 85.5 -36t35.5 -85t-35.5 -84.5t-85.5 -35.5zM55 0v49q92 0 119 31t27 131v631q0 31 -0.5 46.5t-2 35.5t-4.5 27.5t-9 17t-14.5 10t-21.5 0t-29.5 -6t-39.5 -14.5l-19 48l304 120l32 -30v-885
q0 -100 27 -131t119 -31v-49h-488z" />
    <glyph glyph-name="C_O" horiz-adv-x="2336" 
d="M1833 696q-176 0 -286.5 139t-110.5 353t109.5 352.5t283.5 138.5q176 0 286.5 -138.5t110.5 -352.5t-109.5 -353t-283.5 -139zM72 805q0 246 82 442.5t234 310t347 113.5q203 0 336 -127q23 -22 39.5 -16t19.5 35l11 90h47l31 -580h-48q-89 508 -399 508
q-140 0 -243 -99t-155 -267t-52 -384t53 -383t155.5 -263.5t241.5 -96.5q92 0 168.5 43.5t130.5 122t90.5 182.5t52.5 230h60q-30 -331 -172.5 -515t-396.5 -184q-119 0 -221 42t-177.5 118.5t-128.5 181t-79.5 230.5t-26.5 266zM1845 778q115 0 174.5 101.5t59.5 267.5
q0 120 -27 219.5t-88 165t-147 65.5q-114 0 -174 -101t-60 -265q0 -121 27 -220.5t88 -166t147 -66.5zM1839 -33q-51 0 -86 35t-35 86q0 50 35 85.5t86 35.5q49 0 84 -35.5t35 -85.5q0 -51 -34.5 -86t-84.5 -35z" />
    <glyph glyph-name="L_L" horiz-adv-x="2013" 
d="M707 1638v-49q-97 0 -143.5 -15.5t-61.5 -47.5t-15 -99v-1200q0 -85 24.5 -110t102.5 -25h248q81 0 128 29.5t85 112t76 249.5l57 -14l-94 -412l-12 -57h-1063v49q72 0 114 7t65.5 27.5t30.5 48.5t7 79v1216q0 51 -7 79t-30.5 48.5t-65.5 27.5t-114 7v49h668zM1554 1638
v-49q-88 0 -130.5 -15.5t-56 -47.5t-13.5 -99v-587q0 -72 18 -94.5t78 -22.5h223q66 0 104.5 27t71 104t66.5 233l49 -12l-86 -385l-12 -53h-934v49q88 0 131.5 16t57.5 48.5t14 99.5v577q0 67 -14 99t-57 47.5t-132 15.5v49h622z" />
    <glyph glyph-name="L_T_D" horiz-adv-x="2940" 
d="M707 1638v-49q-97 0 -143.5 -15.5t-61.5 -47.5t-15 -99v-1200q0 -85 24.5 -110t102.5 -25h248q81 0 128 29.5t85 112t76 249.5l57 -14l-94 -412l-12 -57h-1063v49q72 0 114 7t65.5 27.5t30.5 48.5t7 79v1216q0 51 -7 79t-30.5 48.5t-65.5 27.5t-114 7v49h668zM1399 1556
h-103q-50 0 -80 -8t-53.5 -33t-37 -67.5t-23.5 -114.5l-47 6l32 238l9 61h827l8 -61l29 -238l-47 -6q-18 139 -56 181t-135 42h-104q-35 0 -35 -34v-574q0 -97 28.5 -129.5t125.5 -32.5v-49h-457v49q97 0 125.5 32.5t28.5 129.5v574q0 34 -35 34zM2451 737h-419v49
q97 0 125 32.5t28 129.5v479q0 97 -28 129.5t-125 32.5v49h419q203 0 317 -122.5t114 -327.5q0 -206 -114 -328.5t-317 -122.5zM2449 817q120 0 193.5 99.5t73.5 271.5q0 174 -73 272.5t-194 98.5q-45 0 -86 -13q-28 -6 -28 -39v-639q0 -33 22 -39q41 -12 92 -12zM1903 -33
q-50 0 -84.5 35t-34.5 86q0 50 35 85.5t84 35.5q51 0 85.5 -35.5t34.5 -85.5q0 -51 -34.5 -86t-85.5 -35z" />
    <glyph glyph-name="O_O" horiz-adv-x="2217" 
d="M1483 1675q193 0 345.5 -116t235 -311t82.5 -429q0 -176 -47 -332.5t-131 -272.5t-210 -183.5t-275 -67.5q-211 0 -371 135q-160 -135 -375 -135q-193 0 -346 115.5t-236 310.5t-83 430t80 429t233 310.5t352 116.5q205 0 371 -137q162 137 375 137zM1507 43
q196 6 311 211t103 526q-8 230 -71.5 415.5t-177.5 295t-259 106.5q-143 -3 -248 -114q111 -119 172.5 -292.5t61.5 -371.5q0 -185 -51.5 -348t-145.5 -281q130 -153 305 -147zM805 43q141 3 248 113q-111 119 -172.5 292t-61.5 371q0 184 51.5 347t145.5 280
q-129 154 -303 151q-131 -4 -228.5 -99t-146.5 -261.5t-41 -376.5q8 -231 70.5 -416t177 -295t260.5 -106zM1079 1356q-100 -201 -88 -496q12 -353 148 -579q102 196 90 499q-12 346 -150 576z" />
    <glyph glyph-name="S_T" horiz-adv-x="2041" 
d="M549 -33q-90 0 -174 37t-148 100q-53 53 -65 -16l-19 -94h-51l4 612h54q7 -149 57.5 -274.5t139.5 -202t198 -76.5q83 0 142.5 40.5t84.5 98.5t25 125q0 55 -17.5 106.5t-43.5 91.5t-71 85.5t-83.5 77t-98.5 76.5q-48 37 -68 52t-61.5 49t-60 52t-51 50.5t-47.5 55.5
t-36 57t-30 64.5t-16 68t-7 77.5q0 179 115 285t293 106q162 0 272 -104q26 -23 46 -17.5t24 39.5l10 62h49l25 -539h-51q-8 96 -35 180.5t-71 151t-110 105t-145 38.5q-109 0 -171 -68.5t-62 -168.5q0 -47 15 -90.5t38 -78t66.5 -77t83 -74.5t106.5 -82q75 -56 122.5 -94.5
t102 -94t85 -106t51 -117t20.5 -139.5q0 -192 -122.5 -311t-313.5 -119zM1440 1556h-99q-50 0 -80 -8t-53.5 -33t-37 -67.5t-23.5 -114.5l-47 6l33 238l8 61h819l8 -61l33 -238l-47 -6q-14 95 -36 142t-57.5 64t-101.5 17h-100q-35 0 -35 -34v-574q0 -97 27.5 -129.5
t124.5 -32.5v-49h-455v49q97 0 125.5 32.5t28.5 129.5v574q0 34 -35 34zM1550 -33q-50 0 -85 35t-35 86q0 50 35.5 85.5t84.5 35.5q51 0 86 -35.5t35 -85.5q0 -51 -35 -86t-86 -35z" />
    <glyph glyph-name="s_t" horiz-adv-x="1454" 
d="M1364 459h57q0 -251 -59.5 -371.5t-206.5 -120.5q-123 0 -182.5 87.5t-59.5 295.5v651h-143v76q112 3 180.5 82.5t83.5 224.5v19q0 108 -53.5 166.5t-155.5 58.5q-119 0 -182 -80.5t-63 -224.5q0 -262 112 -528l-49 -29q-73 131 -136.5 198.5t-141.5 67.5q-56 0 -94 -37
t-38 -100q0 -59 38.5 -102t156.5 -134q160 -127 221.5 -207t61.5 -188q0 -143 -87.5 -220t-213.5 -77q-52 0 -98.5 13.5t-72.5 29.5t-50 29.5t-37 13.5q-19 0 -26 -15t-7 -48h-53v411h49q20 -167 93.5 -255.5t178.5 -88.5q69 0 107 44t38 114q0 75 -46.5 130.5t-188.5 164.5
q-82 61 -129.5 108.5t-76 104t-28.5 121.5q0 121 82.5 199.5t194.5 78.5q127 0 221 -123l4 2q-69 142 -69 349q0 172 90.5 277.5t238.5 105.5q129 0 206 -87t77 -262v-299h246v-84h-242v-598q0 -153 23.5 -228t91.5 -75q137 0 137 359z" />
    <glyph glyph-name="zero.dnom" horiz-adv-x="704" 
d="M350 -20q-103 0 -177.5 70t-110 183.5t-35.5 255.5q0 140 35.5 253.5t110 184t177.5 70.5q104 0 179.5 -70t112 -183.5t36.5 -254.5q0 -143 -36.5 -256.5t-112 -183t-179.5 -69.5zM350 31q45 0 78.5 34t53 96.5t29 144t9.5 183.5q0 101 -9.5 182t-29 143t-53 96t-78.5 34
q-166 0 -166 -455q0 -458 166 -458z" />
    <glyph glyph-name="one.dnom" horiz-adv-x="415" 
d="M289 981v-854q0 -61 22 -79.5t99 -18.5v-29h-404v29q83 0 107 18.5t24 79.5v672q0 30 -2 44t-9 25t-23.5 8.5t-40.5 -10t-66 -26.5l-12 28l286 131z" />
    <glyph glyph-name="two.dnom" horiz-adv-x="669" 
d="M174 119h303q59 0 86 24.5t55 102.5l27 -10l-47 -134l-37 -102h-543v29q88 92 139 148t113 133t94.5 134t55 123.5t22.5 128.5q0 88 -40 136.5t-121 48.5q-92 0 -145 -69.5t-58 -186.5h-35q0 168 84 271t227 103q115 0 176.5 -63t61.5 -168q0 -76 -33 -158t-96.5 -166.5
t-130 -156.5t-158.5 -160v-8z" />
    <glyph glyph-name="three.dnom" horiz-adv-x="610" 
d="M10 82q0 24 17.5 39.5t42.5 15.5q18 0 32.5 -8t21 -16t19.5 -27q19 -25 41 -36t58 -11q75 0 128.5 52t53.5 165q0 65 -21 113t-57.5 75t-79.5 39.5t-92 12.5v30q221 57 221 228q0 65 -37 108t-108 43q-140 0 -182 -145h-33q17 115 87.5 177t180.5 62q102 0 170 -60
t68 -161q0 -84 -59.5 -149t-166.5 -101v-4q116 -11 189.5 -75t73.5 -177q0 -135 -102 -212.5t-251 -77.5q-85 0 -150 27.5t-65 72.5z" />
    <glyph glyph-name="four.dnom" horiz-adv-x="669" 
d="M393 262h-383v113l412 622h106v-622h121v-113h-121v-135q0 -61 21 -79.5t94 -18.5v-29h-369v29q75 0 97 18.5t22 79.5v135zM76 379v-4h317v489z" />
    <glyph glyph-name="five.dnom" horiz-adv-x="608" 
d="M229 -18q-88 0 -153.5 29t-65.5 73q0 26 16.5 41.5t41.5 15.5q27 0 43 -12.5t34 -38.5q39 -51 97 -51q73 0 123.5 69.5t50.5 208.5q0 127 -46.5 189.5t-125.5 62.5q-80 0 -140 -63l-47 29l105 432h393l-29 -117h-319l-60 -254l7 -4q74 53 155 53q113 0 187.5 -82.5
t74.5 -220.5q0 -175 -98 -267.5t-244 -92.5z" />
    <glyph glyph-name="six.dnom" horiz-adv-x="669" 
d="M29 408q0 240 141 399t408 201v-29q-287 -69 -367 -381q82 86 195 86q117 0 180 -90t63 -227q0 -57 -11 -110t-35 -102t-59 -85.5t-86 -58t-112 -21.5q-151 0 -234 113t-83 305zM186 369q0 -152 40.5 -240t119.5 -88q77 0 113.5 74t36.5 223q0 293 -148 293
q-81 0 -147 -78q-15 -83 -15 -184z" />
    <glyph glyph-name="seven.dnom" horiz-adv-x="663" 
d="M639 967l-363 -985l-110 38l326 826v4h-310q-58 0 -83.5 -28.5t-45.5 -119.5l-28 7l34 155l23 103h557z" />
    <glyph glyph-name="eight.dnom" horiz-adv-x="634" 
d="M23 219q0 80 49.5 144.5t144.5 134.5q-88 76 -128 138t-40 132q0 102 78 165.5t199 63.5q116 0 186 -58.5t70 -150.5q0 -69 -44 -122t-147 -127q123 -97 172 -160t49 -141q0 -114 -86 -185t-217 -71q-125 0 -205.5 68t-80.5 169zM186 805q0 -47 32 -94t116 -119
q70 57 98.5 106t28.5 101q0 65 -36.5 104t-98.5 39q-61 0 -100.5 -37.5t-39.5 -99.5zM141 215q0 -74 43 -125t129 -51q70 0 112 42.5t42 113.5q0 67 -36.5 112t-132.5 123q-6 4 -8.5 6.5t-7 6t-8.5 6.5q-133 -118 -133 -234z" />
    <glyph glyph-name="nine.dnom" horiz-adv-x="663" 
d="M641 580q0 -239 -140.5 -398.5t-406.5 -201.5v30q285 69 365 381q-82 -86 -195 -86q-117 0 -179 89.5t-62 228.5q0 56 11 109.5t35 101.5t59 84t86 57.5t112 21.5q150 0 232.5 -112.5t82.5 -304.5zM485 618q0 151 -41 239.5t-120 88.5q-77 0 -112.5 -73t-35.5 -224
q0 -293 146 -293q82 0 147 80q16 75 16 182z" />
    <glyph glyph-name="zero.numr" horiz-adv-x="704" 
d="M350 653q-103 0 -177.5 70t-110 184t-35.5 256q0 140 35.5 253.5t110 184t177.5 70.5q104 0 179.5 -70t112 -183.5t36.5 -254.5q0 -143 -36.5 -257t-112 -183.5t-179.5 -69.5zM350 705q45 0 78.5 34t53 96.5t29 144t9.5 183.5q0 101 -9.5 182t-29 143t-53 96t-78.5 34
q-166 0 -166 -455q0 -458 166 -458z" />
    <glyph glyph-name="one.numr" horiz-adv-x="415" 
d="M289 1653v-854q0 -61 22 -80t99 -19v-28h-404v28q83 0 107 19t24 80v671q0 30 -2 44t-9 25t-23.5 8.5t-40.5 -10t-66 -26.5l-12 29l286 131z" />
    <glyph glyph-name="two.numr" horiz-adv-x="669" 
d="M174 791h303q59 0 86 24.5t55 102.5l27 -11l-47 -133l-37 -102h-543v28q87 91 138.5 148t113.5 134t94.5 134t55 123.5t22.5 128.5q0 87 -40 135.5t-121 48.5q-92 0 -145 -69.5t-58 -186.5h-35q0 168 84 271.5t227 103.5q115 0 176.5 -63t61.5 -168q0 -76 -33 -158
t-96.5 -166.5t-130 -156.5t-158.5 -160v-8z" />
    <glyph glyph-name="three.numr" horiz-adv-x="610" 
d="M10 754q0 24 17.5 39.5t42.5 15.5q18 0 32.5 -8t21 -16t19.5 -27q19 -25 41 -36t58 -11q75 0 128.5 52t53.5 165q0 65 -21 113t-57.5 74.5t-79 39t-92.5 12.5v31q221 57 221 227q0 65 -37 108.5t-108 43.5q-140 0 -182 -145h-33q17 115 87.5 177t180.5 62q102 0 170 -60
t68 -161q0 -84 -59.5 -149t-166.5 -101v-4q116 -11 189.5 -75t73.5 -177q0 -135 -102.5 -213t-250.5 -78q-85 0 -150 28t-65 73z" />
    <glyph glyph-name="four.numr" horiz-adv-x="669" 
d="M393 934h-383v113l412 622h106v-622h121v-113h-121v-135q0 -61 21.5 -80t93.5 -19v-28h-369v28q75 0 97 19t22 80v135zM76 1051v-4h317v489z" />
    <glyph glyph-name="five.numr" horiz-adv-x="608" 
d="M229 653q-88 0 -153.5 29.5t-65.5 73.5q0 26 16.5 41.5t41.5 15.5q27 0 43 -12.5t34 -38.5q39 -51 97 -51q73 0 123.5 69.5t50.5 208.5q0 127 -46.5 189.5t-125.5 62.5q-80 0 -140 -63l-47 28l105 432h393l-29 -116h-319l-60 -254l7 -4q74 53 155 53q113 0 187.5 -82.5
t74.5 -220.5q0 -175 -98 -268t-244 -93z" />
    <glyph glyph-name="six.numr" horiz-adv-x="669" 
d="M29 1071q0 240 141 399t408 201v-29q-287 -69 -367 -380q82 86 195 86q117 0 180 -90.5t63 -227.5q0 -57 -11 -110t-35 -102t-59 -85.5t-86 -58t-112 -21.5q-151 0 -234 113t-83 305zM186 1032q0 -152 40.5 -239.5t119.5 -87.5q77 0 113.5 73.5t36.5 222.5
q0 293 -148 293q-82 0 -147 -77q-15 -83 -15 -185z" />
    <glyph glyph-name="seven.numr" horiz-adv-x="641" 
d="M639 1638l-363 -985l-110 39l326 826v4h-310q-58 0 -83.5 -28.5t-45.5 -119.5l-28 6l34 154l23 104h557z" />
    <glyph glyph-name="eight.numr" horiz-adv-x="634" 
d="M23 891q0 80 49.5 144t144.5 134q-88 76 -128 138.5t-40 132.5q0 102 78 165.5t199 63.5q116 0 186 -58.5t70 -150.5q0 -69 -44 -122.5t-147 -127.5q123 -97 172 -160t49 -141q0 -114 -86 -185t-217 -71q-125 0 -205.5 68.5t-80.5 169.5zM186 1477q0 -47 32 -94t116 -119
q71 58 99 106t28 100q0 65 -36.5 104.5t-98.5 39.5q-61 0 -100.5 -37.5t-39.5 -99.5zM141 887q0 -74 43 -125t129 -51q70 0 112 42t42 113q0 67 -36.5 112t-132.5 123q-6 4 -8.5 6.5t-7 6t-8.5 6.5q-133 -118 -133 -233z" />
    <glyph glyph-name="nine.numr" horiz-adv-x="669" 
d="M641 1253q0 -240 -140.5 -399t-406.5 -201v29q285 69 365 381q-80 -84 -195 -84q-117 0 -179 89t-62 226q0 57 11 110t35 102t59 85.5t86 58t112 21.5q150 0 232.5 -113t82.5 -305zM485 1292q0 151 -41 239.5t-120 88.5q-77 0 -112.5 -73.5t-35.5 -223.5q0 -293 146 -293
q81 0 147 78q16 75 16 184z" />
    <glyph glyph-name="colon.case" horiz-adv-x="446" 
d="M223 1217q-51 0 -86 34.5t-35 85.5q0 50 35 85.5t86 35.5q49 0 85 -36t36 -85q0 -51 -35.5 -85.5t-85.5 -34.5zM223 254q-51 0 -86 35t-35 86q0 50 35 85.5t86 35.5q49 0 85 -36t36 -85q0 -51 -35.5 -86t-85.5 -35z" />
    <glyph glyph-name="periodcentered.case" horiz-adv-x="446" 
d="M223 756q-51 0 -86 35t-35 86q0 50 35 85t86 35q50 0 85.5 -35.5t35.5 -84.5q0 -51 -35.5 -86t-85.5 -35z" />
    <glyph glyph-name="bullet.case" horiz-adv-x="681" 
d="M362 563q-107 0 -183.5 76.5t-76.5 183.5q0 108 76 184t184 76t184.5 -76t76.5 -184q0 -107 -77 -183.5t-184 -76.5z" />
    </font>
</defs>
</svg>
